<?xml version="1.0" encoding="UTF-8"?> <!-- Creator: CorelDRAW --> <svg xmlns="http://www.w3.org/2000/svg" xmlns:xlink="http://www.w3.org/1999/xlink" xmlns:xodm="http://www.corel.com/coreldraw/odm/2003" xml:space="preserve" width="36.6362mm" height="21.25mm" style="shape-rendering:geometricPrecision; text-rendering:geometricPrecision; image-rendering:optimizeQuality; fill-rule:evenodd; clip-rule:evenodd" viewBox="0 0 3663.62 2125"> <defs> <style type="text/css"> <![CDATA[ .str0 {stroke:white;stroke-width:20;stroke-miterlimit:22.9256} .fil2 {fill:none} .fil1 {fill:#2B2B2A} .fil0 {fill:#2B2B2A;fill-rule:nonzero} ]]> </style> <clipPath id="id0"> <path d="M2965.35 1256.53l-396.31 448.24 -46.34 -5.59 -115.49 -72.93 26.73 -38.04c5.82,-8.77 6.44,-7.62 14.74,-14.21l171.16 -192.18 2.31 -12.98 179.25 -197.21 163.95 84.9z"></path> </clipPath> </defs> <g id="Слой_x0020_1"> <metadata id="CorelCorpID_0Corel-Layer"></metadata> <path class="fil0" d="M2973.16 1241.26c8.44,4.31 11.79,14.68 7.48,23.12 -4.31,8.44 -14.68,11.79 -23.12,7.48 -31.55,-16.14 -60.23,-30.95 -85.08,-43.95 -24.32,-12.73 -45.87,-24.18 -63.89,-33.98l-174.79 -80.93 -5.53 -4.04c-0.2,-0.22 -23.28,-11.2 -46.3,-22.15 -21.39,-10.15 -42.8,-20.35 -52.49,-26.57l-382.41 -206.23 -474.88 -229.56 -737.67 -361.16c-78.06,-47.45 -175.76,-87.29 -270.59,-125.94 -48.13,-19.62 -95.56,-38.96 -139.85,-59.08l-2.36 -1.35 -58.95 -38.32c-38.82,32.21 -88.77,69.56 -157.33,108.9 -67.2,38.56 -152.45,79.14 -262.89,118.85 309.17,179.8 662.14,381.62 1012.9,582.19 448.46,256.42 893.35,510.81 1247.23,719.63l6.06 2.16c118.14,42.08 152.64,54.39 250.66,136.7 24.98,5.88 66.2,28.07 96.69,44.48 13.09,7.04 24.13,13 29.79,15.51l1.35 0.67c66.53,37.13 133.24,73.44 199.92,109.73 129.86,70.68 259.75,141.39 378.79,212.64 59.63,-83.68 117.28,-166.76 174.93,-249.8 60.73,-87.49 121.49,-175.02 184.48,-263.19 5.51,-7.74 16.26,-9.55 24,-4.04 7.74,5.51 9.55,16.26 4.04,24 -62.91,88.06 -123.57,175.44 -184.2,262.79 -60.73,87.49 -121.47,175 -184.48,263.19l-22.92 4.79c-123.89,-74.74 -257.51,-147.47 -391.1,-220.18 -67.38,-36.67 -134.8,-73.36 -199.6,-109.53 -7.36,-3.34 -18.37,-9.27 -31.32,-16.24 -30.41,-16.36 -72.31,-38.92 -90.6,-41.71l-8.56 -3.91c-95.85,-80.86 -128.45,-92.48 -243.33,-133.4l-7.63 -2.72 -3.03 -1.42c-351.33,-207.33 -798.02,-462.76 -1248.29,-720.21 -360.29,-206.01 -722.91,-413.36 -1045.37,-601.14l3.1 -31.22c125.38,-42.77 219.62,-86.88 292.26,-128.56 72.36,-41.52 123.19,-80.6 162.02,-113.49l20.49 -1.28 68.4 44.51c43.11,19.55 90.03,38.68 137.64,58.09 95.52,38.93 193.94,79.06 274.76,128.08l735.51 359.99c301.46,145.7 565.04,278.11 858.64,436.49l4.58 3.57c0.23,0.25 23.27,11.21 46.31,22.15 21.06,10.01 42.13,20.02 52.02,26.27l175.53 81.34c18.27,9.95 39.91,21.45 64.18,34.15 26.24,13.72 54.76,28.46 84.8,43.83zm-729.24 332.27c-8.04,-5.06 -10.45,-15.69 -5.39,-23.73 5.06,-8.04 15.69,-10.45 23.73,-5.39 54.86,34.54 97.3,48.23 127.26,41.08 27.43,-6.56 45.66,-33.07 54.64,-79.48l4.85 -9.03 298.12 -294.04c12.11,-11.98 23.37,-23.36 33.81,-34.13 -21.18,1.1 -42.89,-4.66 -65.12,-17.26l-5.42 -3.16c-8.11,-4.98 -10.65,-15.62 -5.67,-23.73 4.98,-8.11 15.62,-10.65 23.73,-5.67l4.21 2.5c24.58,13.99 47.53,16.56 68.89,7.78 23.08,-9.49 45.51,-31.91 67.25,-67.22l6.7 -11.38 30.88 15.11c-6.86,16.41 -21.86,38.34 -44.92,65.75 -22.35,26.56 -52.4,58.54 -90.13,95.88l-294.42 290.39c-12.31,57.7 -38.8,91.41 -79.44,101.13 -39.36,9.4 -90.56,-5.74 -153.56,-45.4zm615.15 -496.52c6.14,-7.26 17.01,-8.17 24.27,-2.03 7.26,6.14 8.17,17.01 2.03,24.27l-181.16 213.55c-46.15,52.3 -84.67,95.37 -115.51,129.14 -30.98,33.93 -55.76,60.24 -74.27,78.85 -25.58,40.29 -51.04,68.8 -76.33,85.51 -28.32,18.71 -56.48,23.21 -84.45,13.51 -8.97,-3.09 -13.74,-12.88 -10.65,-21.85 3.09,-8.97 12.88,-13.74 21.85,-10.65 17.26,5.98 35.35,2.74 54.23,-9.73 21.57,-14.25 44.01,-39.86 67.27,-76.78l2.36 -2.97c17.93,-17.96 42.78,-44.33 74.51,-79.09 32.57,-35.67 70.91,-78.51 114.98,-128.43l180.87 -213.3zm-294.91 657.94c-6.55,6.88 -17.46,7.15 -24.34,0.6 -6.88,-6.55 -7.15,-17.46 -0.6,-24.34 107.03,-112.6 195.73,-208.99 266.05,-289.1 70.37,-80.16 122.38,-144 155.98,-191.46l22.31 -5.13c344.39,190.62 659.3,350.51 660.21,350.97 8.44,4.31 11.79,14.68 7.48,23.12 -4.31,8.44 -14.68,11.79 -23.12,7.48 -0.9,-0.45 -307.7,-156.23 -647.83,-344.13 -34.48,47.23 -84.2,107.84 -149.13,181.81 -70.85,80.72 -159.88,177.47 -267.01,290.18z"></path> <path class="fil1" d="M2965.35 1256.53l-396.31 448.24 -46.34 -5.59 -115.49 -72.93 26.73 -38.04c5.82,-8.77 6.44,-7.62 14.74,-14.21l171.16 -192.18 2.31 -12.98 179.25 -197.21 163.95 84.9z"></path> <g style="clip-path:url(#id0)"> <g id="_140167401078976"> <g> <line id="_1" class="fil2 str0" x1="2668.72" y1="998.44" x2="3349.67" y2="1387.26"></line> <line class="fil2 str0" x1="2642.92" y1="1022.39" x2="3323.87" y2="1411.2"></line> <line class="fil2 str0" x1="2617.12" y1="1046.34" x2="3298.07" y2="1435.15"></line> <line class="fil2 str0" x1="2591.32" y1="1070.28" x2="3272.27" y2="1459.1"></line> <line class="fil2 str0" x1="2565.52" y1="1094.23" x2="3246.47" y2="1483.05"></line> <line class="fil2 str0" x1="2539.72" y1="1118.18" x2="3220.68" y2="1507"></line> <line class="fil2 str0" x1="2513.92" y1="1142.13" x2="3194.88" y2="1530.95"></line> <line class="fil2 str0" x1="2488.12" y1="1166.08" x2="3169.08" y2="1554.9"></line> <line class="fil2 str0" x1="2462.32" y1="1190.03" x2="3143.28" y2="1578.84"></line> <line class="fil2 str0" x1="2436.53" y1="1213.98" x2="3117.48" y2="1602.79"></line> <line class="fil2 str0" x1="2410.73" y1="1237.92" x2="3091.68" y2="1626.74"></line> <line class="fil2 str0" x1="2384.93" y1="1261.87" x2="3065.88" y2="1650.69"></line> <line class="fil2 str0" x1="2359.13" y1="1285.82" x2="3040.08" y2="1674.64"></line> <line class="fil2 str0" x1="2333.33" y1="1309.77" x2="3014.29" y2="1698.59"></line> <line class="fil2 str0" x1="2307.53" y1="1333.72" x2="2988.49" y2="1722.54"></line> <line class="fil2 str0" x1="2281.73" y1="1357.67" x2="2962.69" y2="1746.48"></line> <line class="fil2 str0" x1="2255.93" y1="1381.62" x2="2936.89" y2="1770.43"></line> <line class="fil2 str0" x1="2230.14" y1="1405.56" x2="2911.09" y2="1794.38"></line> <line class="fil2 str0" x1="2204.34" y1="1429.51" x2="2885.29" y2="1818.33"></line> <line class="fil2 str0" x1="2178.54" y1="1453.46" x2="2859.49" y2="1842.28"></line> <line class="fil2 str0" x1="2152.74" y1="1477.41" x2="2833.69" y2="1866.23"></line> <line class="fil2 str0" x1="2126.94" y1="1501.36" x2="2807.89" y2="1890.18"></line> <line class="fil2 str0" x1="2101.14" y1="1525.31" x2="2782.1" y2="1914.12"></line> </g> </g> </g> <path class="fil2" d="M2965.35 1256.53l-396.31 448.24 -46.34 -5.59 -115.49 -72.93 26.73 -38.04c5.82,-8.77 6.44,-7.62 14.74,-14.21l171.16 -192.18 2.31 -12.98 179.25 -197.21 163.95 84.9z"></path> </g> </svg> 