<?xml version="1.0" encoding="UTF-8"?> <!-- Creator: CorelDRAW --> <svg xmlns="http://www.w3.org/2000/svg" xmlns:xlink="http://www.w3.org/1999/xlink" xmlns:xodm="http://www.corel.com/coreldraw/odm/2003" xml:space="preserve" width="38.9284mm" height="24.5694mm" style="shape-rendering:geometricPrecision; text-rendering:geometricPrecision; image-rendering:optimizeQuality; fill-rule:evenodd; clip-rule:evenodd" viewBox="0 0 3892.84 2456.94"> <defs> <style type="text/css"> <![CDATA[ .str1 {stroke:white;stroke-width:27.01;strokeLinecap:round;stroke-linejoin:bevel;stroke-miterlimit:22.9256} .str0 {stroke:white;stroke-width:27.01;strokeLinecap:round;stroke-linejoin:bevel;stroke-miterlimit:22.9256} .fil3 {fill:none} .fil1 {fill:#2B2B2A} .fil2 {fill:white;fill-rule:nonzero} .fil0 {fill:#2B2B2A;fill-rule:nonzero} ]]> </style> <clipPath id="id0"> <path d="M3417.35 575.49c194.05,0 351.35,157.3 351.35,351.35 0,194.05 -157.3,351.35 -351.35,351.35 -194.05,0 -351.35,-157.3 -351.35,-351.35 0,-194.05 157.3,-351.35 351.35,-351.35z"></path> </clipPath> </defs> <g id="Слой_x0020_1"> <metadata id="CorelCorpID_0Corel-Layer"></metadata> <path class="fil0" d="M3460.91 1892.24c90.06,-26.18 157.97,-57.68 208.55,-88.24 85.77,-51.83 120.67,-100.15 129.8,-115.18 22.15,-36.44 36.39,-74.56 40.04,-108.88 2.69,-25.34 -0.44,-48.41 -10.53,-66.77 -9.79,-17.82 -26.55,-31.57 -51.35,-38.97 -24.08,-7.19 -55.58,-8.55 -95.44,-2.24 -54.89,8.69 -159.28,79.99 -244.95,169.72 -68.16,71.39 -123.72,153.91 -131.58,224.7 -0.49,4.44 -0.32,8.43 0.48,11.92 1.49,6.47 5.46,11.75 11.7,15.73 7.54,4.81 18.37,8.02 32.21,9.55 27.21,3.02 64.71,-0.66 111.07,-11.34zm222.47 -65.14c-52.33,31.61 -122.57,64.18 -215.71,91.2l-0.74 0.22c-49.33,11.37 -89.88,15.21 -120.05,11.86 -17.9,-1.98 -32.58,-6.57 -43.71,-13.67 -12.41,-7.92 -20.38,-18.75 -23.52,-32.39 -1.47,-6.45 -1.82,-13.43 -1,-20.9 8.59,-77.29 67.15,-165.19 138.86,-240.3 89.34,-93.57 200.3,-168.25 260.25,-177.74 44.15,-6.98 79.63,-5.3 107.36,2.98 32.15,9.59 54.14,27.89 67.29,51.83 12.86,23.41 16.95,51.9 13.69,82.59 -4.06,38.18 -19.65,80.16 -43.84,119.96 -10.05,16.54 -48.09,69.49 -138.88,124.36zm177.08 -305.42c-0.33,-28.76 -7.12,-53.54 -19.1,-73.75 -12.23,-20.65 -29.99,-36.65 -51.84,-47.38 -22.37,-10.99 -49.17,-16.61 -78.92,-16.27 -47.9,0.55 -103.36,16.62 -160.62,50.55 -25.36,15.03 -49.84,28.83 -71.54,41.07 -96.71,54.55 -135.86,76.64 -250.19,222.82 -5.54,7.08 -12,16.97 -18.46,28.59 -13.62,24.48 -27.05,56.22 -32.02,85.51 -4.49,26.42 -2.08,50.45 14.07,63.07 1.59,1.24 3.36,2.42 5.29,3.49 37.72,20.99 74.35,33.6 118.38,35.47 44.88,1.91 97.9,-7.14 167.88,-29.5 22.68,-7.24 39.93,-11.94 55.62,-16.19 43.55,-11.82 75.59,-20.53 139.55,-58.95 17.41,-10.45 45.15,-32.73 73.33,-60.54 22.84,-22.55 45.78,-48.56 63.41,-74.56 13.79,-20.33 25.13,-45.88 33.01,-72.63 8.04,-27.33 12.43,-55.68 12.15,-80.8zm4.12 -87.47c14.29,24.11 22.4,53.44 22.78,87.25 0.31,27.81 -4.46,58.9 -13.21,88.62 -8.61,29.2 -21.16,57.37 -36.59,80.11 -18.78,27.71 -42.91,55.11 -66.79,78.68 -29.65,29.26 -59.38,53.03 -78.39,64.44 -67.37,40.47 -100.83,49.56 -146.31,61.91 -16.51,4.47 -34.61,9.4 -54.56,15.77 -73.12,23.37 -129.07,32.8 -177.06,30.76 -48.83,-2.08 -89.12,-15.88 -130.4,-38.85 -3.12,-1.74 -6.06,-3.69 -8.77,-5.81 -25.51,-19.94 -30.12,-53.24 -24.09,-88.71 5.53,-32.59 20.22,-67.44 35.08,-94.15 7.13,-12.83 14.4,-23.92 20.78,-32.07 117.6,-150.37 158.12,-173.22 258.21,-229.68 19.74,-11.13 41.99,-23.68 71,-40.87 61.41,-36.39 121.59,-53.63 174.12,-54.23 33.94,-0.39 64.84,6.17 90.96,19.01 26.64,13.09 48.31,32.61 63.24,57.82zm-14.56 -20.23c5.39,5.12 5.6,13.65 0.48,19.04 -5.12,5.39 -13.65,5.6 -19.04,0.48 -17.81,-16.97 -34.18,-44.81 -53.57,-77.83 -29.86,-50.81 -67.32,-114.57 -126.25,-164.89 -5.64,-4.83 -6.3,-13.35 -1.47,-18.99 4.83,-5.64 13.35,-6.3 18.99,-1.47 62.3,53.2 101.06,119.16 131.95,171.73 18.33,31.22 33.8,57.53 48.91,71.93zm-652.79 -758.61c3.95,6.29 2.07,14.61 -4.22,18.56 -6.29,3.95 -14.61,2.07 -18.56,-4.22 -12.63,-20.06 -27.33,-42.22 -44.63,-64.32 -17.19,-21.97 -37.07,-44.06 -60.23,-64.27 -58.99,-51.48 -101.15,-109.98 -143.89,-169.31 -47.98,-66.61 -96.79,-134.36 -170.83,-192.92 -18.57,-14.69 -33.48,-29.16 -48.99,-44.21 -23.8,-23.1 -49.15,-47.71 -90.54,-75.5 -37.42,-25.13 -90.9,-31.78 -144.93,-26.01 -62.31,6.65 -124.7,29.75 -164.32,60.2l-18.19 13.92c-72.6,55.39 -83.01,63.34 -115.03,168.53 -53.81,176.79 39.22,277.53 142.38,389.2 44.83,48.53 91.53,99.08 129.98,159.25 9.39,14.71 24.62,28.99 40.89,44.25 26.43,24.8 55.49,52.07 72.25,91.79 6.29,14.91 24.7,42.6 46.45,75.28 33.05,49.67 73.63,110.68 94.19,161.38 19.4,47.85 71.97,106.43 120.56,160.57 34.93,38.92 67.89,75.65 86.35,105.84 8.83,14.44 20.05,33.26 32.34,53.89 63.78,107.07 159.55,267.81 247.79,353.03 5.36,5.15 5.52,13.69 0.37,19.05 -5.15,5.36 -13.69,5.52 -19.05,0.37 -90.79,-87.69 -187.68,-250.31 -252.21,-358.63 -11.63,-19.51 -22.13,-37.14 -32.24,-53.67 -17.3,-28.29 -49.39,-64.06 -83.39,-101.94 -50.15,-55.88 -104.43,-116.35 -125.52,-168.39 -19.55,-48.21 -59.29,-107.96 -91.67,-156.62 -22.4,-33.67 -41.38,-62.21 -48.77,-79.72 -14.5,-34.37 -41.42,-59.63 -65.91,-82.61 -17.46,-16.37 -33.8,-31.7 -45.11,-49.41 -36.94,-57.81 -82.96,-107.63 -127.14,-155.45 -108.62,-117.59 -206.59,-223.67 -148.28,-415.26 34.58,-113.61 45.85,-122.21 124.41,-182.15l18.14 -13.87c43.37,-33.3 110.91,-58.47 177.89,-65.63 59.72,-6.38 119.62,1.49 162.75,30.45 43.49,29.2 69.72,54.66 94.34,78.56 15.11,14.67 29.65,28.77 46.89,42.41 77.03,60.93 126.93,130.2 175.99,198.3 41.82,58.05 83.06,115.29 139.77,164.77 24.52,21.4 45.55,44.76 63.71,67.97 18.06,23.08 33.23,45.93 46.21,66.54zm244.76 1242.41c6.69,-3.23 14.76,-0.42 17.99,6.27 3.23,6.69 0.42,14.76 -6.27,17.99 -35.48,17.16 -138.42,36.74 -256.18,59.14 -161.58,30.71 -351.56,66.85 -425.27,107.02 -85.15,46.41 -253.39,77.41 -409.43,106.14 -107.62,19.82 -209.39,38.57 -272.46,60.31 -46.74,16.1 -425.83,53.42 -762.16,86.5 -241.63,23.78 -461.14,45.38 -517.7,55.12 -8.2,1.4 -29.83,13.08 -53.49,25.85 -35.03,18.9 -74.2,40.02 -94.16,39.08 -13.93,-0.66 -21.77,-7.48 -21.04,-22.8 1.26,-26.57 -86.88,-181.03 -130.38,-257.23 -9.3,-16.29 -16.66,-29.18 -20.29,-35.79 -32.59,-59.32 -55.47,-124.6 -77.46,-187.38 -25.46,-72.71 -49.76,-142.05 -86.33,-192.94 -26.25,-36.53 -38.05,-88.86 -50.55,-144.35 -13.82,-61.34 -28.59,-126.79 -64.32,-174.41 -11.2,-14.93 -7.19,-23.51 1.74,-30.22 2.49,-1.87 4.7,-2.89 6.92,-3.91 0.88,-0.4 0.48,0.93 1.13,0.06 -0.34,-0.68 -10.93,-8.91 -62.58,-47.27 -20.61,-15.31 -36.21,-40.82 -47.75,-69.25 -14.33,-35.31 -22.66,-75.59 -26.52,-105.52 -13.58,-10.55 -48.18,-46.48 -52.79,-155.1 -1.22,-28.74 -8.71,-128.52 -18.06,-208.64 -5.64,-48.47 -11.78,-88.95 -17.13,-99.65 -5.59,-11.18 -2.94,-18.67 6.56,-23.42 8.37,-4.18 22.12,-0.94 40.46,3.38 28.31,6.66 70.26,16.55 98.45,5.39 46.86,-18.5 107.88,-30.7 175.71,-38.45 67.08,-7.65 141.44,-11.03 215.58,-11.96 20.54,-0.26 51.6,-0.06 89.67,0.18 108.77,0.67 275.4,1.73 419.1,-6.51 105.55,-6.03 227.49,-7.77 349.79,-9.49 135.45,-1.91 271.44,-3.83 387.31,-11.79 79.19,-5.43 142.91,-15.35 205.9,-25.14 78.35,-12.19 155.65,-24.22 259.17,-27.43 7.42,-0.2 13.62,5.66 13.82,13.08 0.2,7.42 -5.66,13.62 -13.08,13.82 -101.86,3.16 -178.3,15.05 -255.79,27.11 -63.92,9.94 -128.57,20 -208.22,25.46 -115.48,7.93 -252.4,9.87 -388.79,11.79 -121.53,1.71 -242.7,3.43 -348.63,9.49 -143.85,8.25 -311.34,7.19 -420.68,6.51 -37.92,-0.23 -68.85,-0.43 -89.25,-0.18 -72.89,0.92 -146.24,4.26 -212.84,11.86 -65.84,7.52 -124.6,19.17 -168.85,36.71 -36,14.31 -82.86,3.27 -114.49,-4.17l-11.71 -2.93c5.21,20.51 10.26,54.76 14.74,93.28 9.36,80.25 16.91,181.29 18.16,210.64 4.69,110.47 39.31,133.02 44.99,136.72 4.01,2.58 6.17,3.22 6.97,10.43 3.27,28.59 11.19,69.29 25.45,104.41 9.89,24.35 22.69,45.79 38.79,57.75 71.32,52.96 77.02,73.03 68.17,84.97 -2.1,2.86 -4.43,4.65 -6.84,6.03 36.99,51.72 51.97,118.13 66.02,180.47 11.89,52.76 23.11,102.51 46.11,134.53 38.87,54.09 63.8,125.22 89.91,199.8 21.57,61.59 44.02,125.63 75.68,183.26 4.52,8.23 11.41,20.31 20.07,35.47 42.64,74.72 126.97,222.48 133.48,266.07 15.08,-2.74 47.04,-19.98 75.92,-35.56 25.69,-13.86 49.19,-26.54 61.71,-28.69 57,-9.81 277.21,-31.49 519.6,-55.34 334.71,-32.92 711.98,-70.06 756.04,-85.24 64.45,-22.21 167.46,-41.2 276.36,-61.25 154,-28.36 320.03,-58.94 401.41,-103.3 77.47,-42.23 269.69,-78.78 433.19,-109.86 115.86,-22.03 217.12,-41.3 249.42,-56.92zm-149.99 -88.81c1.86,-7.19 9.22,-11.51 16.41,-9.65 7.19,1.86 11.51,9.22 9.65,16.41 -2.05,7.88 -1.96,14.1 -0.1,18.81 3.38,8.64 14.25,13.85 30.04,16.28 19.23,2.96 44.4,1.53 72.47,-3.16 86.8,-14.49 198.9,-59.38 252.94,-102.93 24.65,-19.87 50.76,-45.81 70.78,-76.67 15.71,-24.21 27.72,-51.51 32.31,-81.25 5.99,-38.75 1.13,-65.57 -15.59,-79.87 -17.3,-14.81 -48.45,-18.13 -94.53,-9.51l-2.54 0.48c21,3.79 40.26,13.21 55.06,30.93 2.07,2.53 4.04,5.13 5.81,7.79 4.93,7.37 8.84,14.79 11.76,22.2 14.09,35.73 6.66,71.97 -14.73,106.1 -20.21,32.28 -53.18,62.64 -91.92,88.58 -31.87,21.35 -67.73,39.82 -103.56,53.95 -44.3,17.46 -90.14,28.87 -126.19,28.53 -19.98,-0.19 -37.33,-4 -50.42,-12.27 -14.5,-9.18 -23.59,-23.18 -25.24,-42.87 -1.24,-14.94 2.05,-33.27 10.94,-55.37 2.76,-6.9 10.61,-10.25 17.51,-7.49 6.9,2.76 10.25,10.61 7.49,17.51 -7.22,17.95 -9.95,32.17 -9.04,43.13 0.88,10.45 5.44,17.73 12.68,22.31 8.65,5.47 21.22,8.01 36.3,8.15 32.34,0.31 74.65,-10.39 116.15,-26.75 34.21,-13.49 68.29,-31.02 98.4,-51.19 35.79,-23.96 66,-51.62 84.12,-80.51 16.92,-26.96 23.01,-55.06 12.39,-81.99 -2.27,-5.75 -5.26,-11.45 -9,-17.04 -1.34,-2.01 -2.72,-3.85 -4.08,-5.47 -19.77,-23.61 -52.9,-26.42 -85.09,-20.77 -34.4,6.05 -67.31,21.48 -84.04,32.68l-3.03 2.11 -3.09 2.41 -16.88 -20.94 22.01 -17.18c34.76,-35.1 109.73,-49.11 132.21,-53.3l1.06 -0.2c54.61,-10.21 93.19,-4.86 117.01,15.53 24.42,20.9 32.16,55.88 24.65,104.45 -5.23,33.88 -18.71,64.66 -36.31,91.79 -21.81,33.61 -49.96,61.64 -76.48,83.01 -57.16,46.06 -174.75,93.38 -265.38,108.51 -30.9,5.16 -58.99,6.67 -80.97,3.28 -25.35,-3.92 -43.63,-14.39 -51.04,-33.06 -3.98,-9.91 -4.48,-21.69 -0.9,-35.49zm183.85 -205.89c-6.29,3.93 -14.58,2.02 -18.51,-4.27 -3.93,-6.29 -2.02,-14.58 4.27,-18.51 53.08,-33.28 92.21,-48.83 120.49,-52.26 21.36,-2.59 37.48,1.48 49.25,10.12 12.07,8.86 18.98,22.02 21.98,37.45 3.92,20.03 1.13,44.16 -5.07,67.05 -19.33,71.19 -107.48,123.88 -181.23,140.42 -25.92,5.82 -50.41,7.29 -69.89,3.66 -22.49,-4.19 -39.03,-15.05 -45.44,-33.59 -7.03,-20.35 -0.32,-48.92 26.95,-86.4 4.36,-6.03 12.8,-7.37 18.83,-3.01 6.03,4.36 7.37,12.8 3.01,18.83 -21.47,29.52 -27.6,49.58 -23.37,61.82 2.86,8.28 12,13.47 24.88,15.87 15.89,2.96 36.64,1.59 59.13,-3.45 66.07,-14.8 144.59,-60.48 161.07,-121.21 5.25,-19.36 7.7,-39.23 4.66,-54.83 -1.74,-9.03 -5.38,-16.41 -11.45,-20.87 -6.37,-4.68 -16.14,-6.76 -30.15,-5.06 -24.72,3 -60.1,17.33 -109.41,48.24z"></path> <path class="fil1" d="M3417.35 575.49c194.05,0 351.35,157.3 351.35,351.35 0,194.05 -157.3,351.35 -351.35,351.35 -194.05,0 -351.35,-157.3 -351.35,-351.35 0,-194.05 157.3,-351.35 351.35,-351.35z"></path> <g style="clip-path:url(#id0)"> <g id="_140167365737984"> <path id="_1" class="fil2" d="M1772.28 -1115.03c-2.67,-6.99 0.83,-14.83 7.82,-17.5 6.99,-2.67 14.83,0.83 17.5,7.82 57.55,149.65 106.03,274.5 166.55,390.67 60.11,115.38 132.06,221.81 236.67,335.02 42.83,46.34 81.43,87.25 116.42,124.31 210.34,222.87 291.12,308.48 428.26,662.58 44.91,115.94 173.17,294.41 322.66,474.89 191.46,231.17 417.3,464.97 548.06,575.59 109.34,92.51 190.91,232.11 263.73,356.76 60.57,103.68 115.03,196.87 172.59,240.79 170.24,129.89 331.51,637.31 478.4,1099.49 89.53,281.71 173.7,546.55 250.29,696.36 20.26,39.64 76.13,174.15 131.65,307.83 62.45,150.36 124.51,299.76 131.59,306.65 5.37,5.23 5.5,13.84 0.27,19.21 -5.23,5.37 -13.84,5.5 -19.21,0.27 -11.14,-10.84 -74.25,-162.78 -137.77,-315.71 -55.47,-133.57 -111.29,-267.96 -130.69,-305.91 -77.6,-151.8 -162.11,-417.67 -251.99,-700.5 -145.64,-458.24 -305.54,-961.34 -469.04,-1086.09 -61.93,-47.25 -117.64,-142.59 -179.61,-248.67 -71.75,-122.81 -152.11,-260.35 -257.77,-349.74 -131.83,-111.52 -359.1,-346.73 -551.46,-578.99 -151.04,-182.35 -280.9,-363.39 -327.02,-482.45 -135.18,-349.03 -214.97,-433.59 -422.74,-653.74 -34.92,-36.98 -73.45,-77.81 -116.62,-124.53 -106.49,-115.24 -179.7,-223.53 -240.83,-340.86 -60.71,-116.55 -109.63,-242.53 -167.71,-393.55z"></path> <path class="fil2" d="M2106.03 -1149.89c-3.78,-6.49 -1.59,-14.84 4.9,-18.62 6.49,-3.78 14.84,-1.59 18.62,4.9 68.22,116.78 119.15,225.81 169.42,333.45 74.83,160.24 148.26,317.47 277.01,494.45 24.72,34.04 38.78,61.44 53.34,89.81 22.8,44.44 46.94,91.47 117.53,171.14 71.38,80.56 185.84,273.09 296.82,459.79 94.53,159.02 186.55,313.82 246.01,389.69 107.74,137.48 249.67,279.27 394.9,424.36 224.08,223.87 456.11,455.67 585.99,694.91 29.43,54.22 85.61,123.32 146.55,198.29 85.7,105.41 180.77,222.35 227.35,329.55 28.17,64.84 56.6,129.28 83.45,190.13 141.92,321.73 238.44,540.5 349.56,954.17 19.9,74.1 108.64,261.23 182.14,416.23 57.01,120.23 105.01,221.46 106.07,240.65 0.4,7.49 -5.34,13.91 -12.83,14.31 -7.49,0.4 -13.91,-5.34 -14.31,-12.83 -0.77,-13.84 -47.73,-112.88 -103.51,-230.53 -73.99,-156.04 -163.33,-344.42 -183.84,-420.81 -110.56,-411.6 -206.75,-629.61 -348.18,-950.23 -25.44,-57.67 -52.42,-118.82 -83.45,-190.23 -45.13,-103.86 -138.94,-219.26 -223.51,-323.27 -61.75,-75.97 -118.68,-146 -149.33,-202.45 -127.98,-235.73 -358.59,-466.12 -581.31,-688.63 -145.73,-145.59 -288.14,-287.86 -397.12,-426.92 -60.78,-77.56 -153.15,-232.94 -248.03,-392.55 -110.39,-185.7 -224.24,-377.21 -293.74,-455.65 -72.83,-82.21 -97.79,-130.82 -121.37,-176.78 -14.08,-27.44 -27.69,-53.95 -51.15,-86.19 -130.13,-178.81 -204.17,-337.34 -279.62,-498.91 -49.8,-106.64 -100.26,-214.65 -168.36,-331.23z"></path> <path class="fil2" d="M2373.45 -1205.57c-5.9,-4.64 -6.92,-13.2 -2.28,-19.1 4.64,-5.9 13.2,-6.92 19.1,-2.28 102.5,80.52 355.92,426.95 578.54,785.96 182.36,294.08 344.55,597.29 386.91,770.72 8.18,33.52 86.45,216.18 201.09,381.09 65.47,94.19 142.58,182.09 224.63,231.75 70.34,42.57 190.17,193.44 308.83,365.32 150.93,218.62 300.88,472.15 344,578.72 17.37,42.92 145.86,220.28 293.01,423.4 176.3,243.34 379.33,523.58 452.94,658.69 56.81,104.26 113.31,197.42 168.6,288.6 112.34,185.25 219.83,362.51 314.3,605.84 9.08,23.37 44.79,107.49 76,177.73 21.2,47.63 40.22,88.73 47.13,99.59l-14.37 20.54 -7.04 -1.56c-7.31,-1.61 -11.93,-8.87 -10.32,-16.18 0.21,-0.96 0.52,-1.87 0.91,-2.73 -9.82,-19.34 -24.91,-52.22 -41.09,-88.61 -31.5,-70.92 -67.45,-155.59 -76.54,-179 -93.64,-241.2 -200.5,-417.41 -312.18,-601.58 -55.6,-91.68 -112.4,-185.36 -169.24,-289.66 -72.59,-133.22 -275.19,-412.87 -451.12,-655.71 -148.22,-204.59 -277.63,-383.22 -296.21,-429.14 -42.57,-105.21 -191.25,-356.45 -341.12,-573.52 -116.76,-169.12 -233.74,-317.02 -300.53,-357.44 -85.8,-51.93 -165.59,-142.63 -232.93,-239.51 -116.55,-167.66 -196.66,-355.5 -205.13,-390.25 -41.61,-170.36 -202.51,-470.77 -383.63,-762.84 -221.15,-356.64 -471.86,-699.97 -572.26,-778.84z"></path> <path class="fil2" d="M3284.61 1341.12c-4.9,5.67 -13.48,6.29 -19.15,1.39 -5.67,-4.9 -6.29,-13.48 -1.39,-19.15 200.07,-230.17 456.22,-277.95 664.73,-316.82 98.37,-18.35 185.95,-34.68 250.26,-67.4 6.69,-3.4 14.9,-0.73 18.3,5.96 3.4,6.69 0.73,14.9 -5.96,18.3 -67.58,34.38 -157.12,51.08 -257.7,69.84 -204.3,38.08 -455.27,84.9 -649.09,307.88z"></path> <path class="fil2" d="M3791.62 727.12c7.14,-2.26 14.77,1.69 17.03,8.83 2.26,7.14 -1.69,14.77 -8.83,17.03 -51.69,16.44 -96,24.44 -141.29,32.6 -55.75,10.06 -113.09,20.4 -187.66,47.62 -243.03,88.73 -279.91,125.98 -382.03,229.16l-37.42 37.59c-5.12,5.09 -12.61,9.02 -20.21,12.99 -6.98,3.64 -14.16,7.4 -15.1,9.26 -3.37,6.69 -11.56,9.38 -18.25,6.01 -6.69,-3.37 -9.38,-11.56 -6.01,-18.25 4.86,-9.57 15.98,-15.42 26.8,-21.06 5.69,-2.98 11.31,-5.92 13.61,-8.21l37.32 -37.49c105.23,-106.32 143.23,-144.71 392.03,-235.54 76.47,-27.91 135.12,-38.49 192.14,-48.78 44.38,-7.99 87.81,-15.84 137.87,-31.76z"></path> <path class="fil2" d="M3794 790.79c7.49,0.58 13.09,7.14 12.51,14.63 -0.58,7.49 -7.14,13.09 -14.63,12.51 -56.01,-4.46 -128.02,5.93 -200.7,23.87 -87.53,21.61 -175.68,54.09 -238.41,84.91 -37.61,18.48 -69.77,36.96 -99.6,58.14 -29.69,21.08 -57.14,44.91 -85.46,74.16 -10.41,10.76 -17.85,15.99 -25.38,21.27 -9.36,6.61 -19.02,13.39 -37.24,35.26l-17.29 3.03 -4.62 -2.71c-6.46,-3.78 -8.62,-12.1 -4.84,-18.56 2.64,-4.51 7.48,-6.92 12.37,-6.68 16.64,-18.97 26.45,-25.86 36,-32.56 6.42,-4.46 12.7,-8.88 21.52,-17.99 29.46,-30.43 58.11,-55.29 89.2,-77.36 30.95,-21.97 64.35,-41.16 103.42,-60.36 64.37,-31.63 154.56,-64.89 243.83,-86.93 75.32,-18.59 150.33,-29.32 209.32,-24.63z"></path> <path class="fil2" d="M3861.22 889.04c7.31,1.61 11.93,8.87 10.32,16.18 -1.61,7.31 -8.87,11.93 -16.18,10.32 -20.85,-4.62 -81.45,5.97 -146.46,21.23 -83.88,19.71 -173.39,47.03 -195.93,60.01 -39.51,22.77 -109.31,63.7 -176.34,107.88 -66.36,43.74 -130.03,90.63 -158.27,125.75l-3.5 3.65c-5.25,5.34 -13.86,5.41 -19.2,0.16 -5.34,-5.25 -5.41,-13.86 -0.16,-19.2l2.08 -2.12c30.38,-37.5 96.05,-86.01 164.15,-130.9 67.73,-44.64 137.98,-85.83 177.72,-108.74 24.57,-14.15 117.42,-42.81 203.27,-62.99 68.24,-16.02 133.17,-26.84 158.5,-21.23z"></path> <path class="fil2" d="M3672.58 714.95c7.46,-0.82 14.18,4.56 15,12.02 0.82,7.46 -4.56,14.18 -12.02,15 -115.31,12.91 -256.99,52.91 -380.63,112.36 -105.19,50.59 -197.06,115.1 -247.72,188.65 -4.25,6.16 -12.72,7.71 -18.88,3.46 -6.16,-4.25 -7.71,-12.72 -3.46,-18.88 53.53,-77.72 149.24,-145.23 258.36,-197.71 126.42,-60.79 271.34,-101.68 389.35,-114.9z"></path> <path class="fil2" d="M3674.8 663.64c7.02,-2.67 14.89,0.86 17.56,7.88 2.67,7.02 -0.86,14.89 -7.88,17.56 -67.92,25.89 -106.18,34.74 -157.28,46.53 -23.47,5.41 -49.67,11.48 -81.77,19.85 -57.01,14.89 -151.11,51.78 -235.34,95.79 -65.31,34.11 -124.35,72.3 -154.63,107.27 -3.91,4.52 -10.71,10.07 -18.17,16.14 -9.99,8.14 -21.4,17.45 -24.15,22.58 -3.55,6.61 -11.8,9.08 -18.41,5.53 -6.61,-3.55 -9.08,-11.8 -5.53,-18.41 5.27,-9.82 18.96,-20.99 30.95,-30.76 6.49,-5.28 12.4,-10.1 14.77,-12.84 32.69,-37.76 94.61,-78.03 162.61,-113.55 86.05,-44.96 182.47,-82.73 241.08,-98.03 33.56,-8.75 59.4,-14.74 82.53,-20.07 49.88,-11.51 87.24,-20.15 153.66,-45.47z"></path> <path class="fil2" d="M3657.1 628.61c7.31,-1.67 14.61,2.91 16.28,10.22 1.67,7.31 -2.91,14.61 -10.22,16.28 -99.98,23.11 -288.08,75.84 -440.12,143.57 -98.93,44.07 -182.18,94.16 -214.2,145.66 -3.96,6.37 -12.36,8.33 -18.73,4.37 -6.37,-3.96 -8.33,-12.36 -4.37,-18.73 35.26,-56.7 122.87,-110.05 226.24,-156.1 154.02,-68.61 344.14,-121.93 445.12,-145.27z"></path> <path class="fil2" d="M3813.25 819.84c7.49,0.58 13.09,7.14 12.51,14.63 -0.58,7.49 -7.14,13.09 -14.63,12.51 -54.12,-4.31 -118,5.41 -182.34,22.45 -82.22,21.77 -164.92,55.37 -229.37,87.03 -37.99,18.66 -78.9,43.52 -117.56,71.24 -37.46,26.86 -72.51,56.21 -100.35,84.97 -14.37,14.84 -23.28,14.8 -32.56,14.78 -5.02,-0.02 -10.3,-0.04 -24.6,17.14l-17.29 3.03 -4.62 -2.71c-6.46,-3.78 -8.62,-12.1 -4.84,-18.56 2.67,-4.57 7.62,-6.99 12.57,-6.67 18.28,-19.46 28.82,-19.41 38.83,-19.37 3.38,0.01 6.67,-0.01 13.03,-6.58 29.14,-30.1 65.43,-60.54 103.97,-88.17 39.48,-28.3 81.74,-53.93 121.5,-73.46 65.91,-32.38 150.43,-66.73 234.37,-88.95 67.09,-17.77 134.05,-27.87 191.38,-23.31z"></path> <path class="fil2" d="M3847.09 860.37c7.31,1.61 11.93,8.87 10.32,16.18 -1.61,7.31 -8.87,11.93 -16.18,10.32 -18.23,-4.04 -61.58,1.56 -111.13,10.89 -80.61,15.19 -176.24,40.4 -211.09,50.91 -41.86,12.61 -123.25,60.99 -202.06,115.42 -81.09,56 -158.87,118.04 -187.68,153.88l-20.59 0.64 -23.89 -26.06c-5.05,-5.52 -4.67,-14.1 0.85,-19.15 5.52,-5.05 14.1,-4.67 19.15,0.85l13.62 14.86c35.8,-38.47 108.27,-95.67 183.12,-147.36 80.86,-55.85 165.14,-105.71 209.72,-119.14 35.23,-10.62 132.04,-36.13 213.85,-51.55 52.63,-9.91 99.68,-15.64 121.99,-10.69z"></path> <path class="fil2" d="M3227.11 1256.22c-4.9,5.67 -13.48,6.29 -19.15,1.39 -5.67,-4.9 -6.29,-13.48 -1.39,-19.15 200.06,-230.17 456.22,-277.95 664.74,-316.83 98.36,-18.34 185.93,-34.67 250.26,-67.39 6.69,-3.4 14.9,-0.73 18.3,5.96 3.4,6.69 0.73,14.9 -5.96,18.3 -67.59,34.38 -157.13,51.08 -257.7,69.83 -204.3,38.09 -455.28,84.91 -649.1,307.89z"></path> <path class="fil2" d="M3273.55 1290.21c-4.9,5.67 -13.48,6.29 -19.15,1.39 -5.67,-4.9 -6.29,-13.48 -1.39,-19.15 200.06,-230.18 456.23,-277.96 664.75,-316.83 98.36,-18.34 185.94,-34.68 250.24,-67.39 6.69,-3.4 14.9,-0.73 18.3,5.96 3.4,6.69 0.73,14.9 -5.96,18.3 -67.58,34.37 -157.12,51.08 -257.68,69.83 -204.31,38.08 -455.29,84.89 -649.11,307.89z"></path> <path class="fil2" d="M3639.11 589.79c7.31,-1.67 14.61,2.91 16.28,10.22 1.67,7.31 -2.91,14.61 -10.22,16.28 -99.98,23.11 -288.07,75.83 -440.1,143.56 -98.94,44.07 -182.2,94.16 -214.22,145.67 -3.96,6.37 -12.36,8.33 -18.73,4.37 -6.37,-3.96 -8.33,-12.36 -4.37,-18.73 35.26,-56.72 122.88,-110.06 226.26,-156.11 154.01,-68.61 344.12,-121.92 445.1,-145.26z"></path> <path class="fil2" d="M3596.16 557.49c7.31,-1.67 14.61,2.91 16.28,10.22 1.67,7.31 -2.91,14.61 -10.22,16.28 -99.98,23.11 -288.07,75.83 -440.1,143.56 -98.94,44.07 -182.2,94.16 -214.22,145.67 -3.96,6.37 -12.36,8.33 -18.73,4.37 -6.37,-3.96 -8.33,-12.36 -4.37,-18.73 35.26,-56.72 122.88,-110.06 226.26,-156.11 154.01,-68.61 344.12,-121.92 445.1,-145.26z"></path> <path class="fil2" d="M3581.68 520.12c7.31,-1.67 14.61,2.91 16.28,10.22 1.67,7.31 -2.91,14.61 -10.22,16.28 -99.98,23.11 -288.07,75.83 -440.1,143.55 -98.94,44.07 -182.2,94.17 -214.22,145.68 -3.96,6.37 -12.36,8.33 -18.73,4.37 -6.37,-3.96 -8.33,-12.36 -4.37,-18.73 35.26,-56.72 122.88,-110.07 226.26,-156.12 154.01,-68.6 344.12,-121.91 445.1,-145.25z"></path> <path class="fil2" d="M4028.82 999.62c7.31,-1.67 14.61,2.91 16.28,10.22 1.67,7.31 -2.91,14.61 -10.22,16.28 -99.97,23.11 -288.06,75.83 -440.1,143.55 -98.94,44.07 -182.18,94.16 -214.22,145.67 -3.96,6.37 -12.36,8.33 -18.73,4.37 -6.37,-3.96 -8.33,-12.36 -4.37,-18.73 35.27,-56.71 122.88,-110.06 226.26,-156.11 154.02,-68.61 344.13,-121.91 445.1,-145.25z"></path> <path class="fil2" d="M4049.1 1031.44c7.31,-1.67 14.61,2.91 16.28,10.22 1.67,7.31 -2.91,14.61 -10.22,16.28 -99.98,23.11 -288.08,75.84 -440.12,143.57 -98.93,44.07 -182.18,94.16 -214.2,145.66 -3.96,6.37 -12.36,8.33 -18.73,4.37 -6.37,-3.96 -8.33,-12.36 -4.37,-18.73 35.26,-56.7 122.87,-110.05 226.24,-156.1 154.02,-68.61 344.14,-121.93 445.12,-145.27z"></path> <g> <path class="fil3 str0" d="M7640.4 -147.33c249.1,-72.26 331.64,-184.59 346.84,-209.6 75.29,-123.87 63.24,-267.86 -130.89,-237.11 -103.33,16.37 -369.3,239.54 -387.82,406.23 -5.75,51.83 57.95,66.73 171.87,40.48z"></path> <path class="fil3 str1" d="M8050.39 -531.14c-1.7,-147.12 -159.75,-199.7 -330.79,-98.35 -156.28,92.6 -185.06,87.69 -325.47,267.22 -32.27,41.26 -90.32,165.49 -27.06,200.7 79.02,43.98 153.74,52.77 296.86,7.03 80.22,-25.64 108.57,-22.68 198.02,-76.41 32.95,-19.79 100.21,-79.01 140.96,-139.11 29.52,-43.52 48.08,-108.63 47.48,-161.08z"></path> <path class="fil3 str1" d="M8017.22 -628.97c-42.97,-40.95 -109.55,-185.01 -207.84,-268.95 -48.3,-41.25 -136.24,-147.85 -173.45,-200.2 -98.67,-138.83 -98.56,-97.47 -212.83,-203.54 -38.69,-35.92 -74.15,-138.02 -168.17,-220.06 -124.28,-108.44 -173.89,-250.84 -315.24,-362.65 -46.22,-36.56 -71.07,-73.8 -140.38,-120.34 -86.06,-57.79 -246.95,-25.25 -324.97,34.71 -92.23,70.87 -102.05,71.59 -137.86,189.21 -79.64,261.62 146.49,360.22 273.89,559.58 26.01,40.71 86.09,72.45 112.08,134.03 16.99,40.27 106.95,153.65 140.54,236.5 34.39,84.81 164.38,197.21 207.91,268.37 60.3,98.58 176.07,307.01 282.29,409.61"></path> <path class="fil3 str1" d="M7624.33 -142.8c-81.06,39.23 -552.09,95.65 -682.03,166.47 -141.42,77.09 -524.75,112.04 -679.83,165.5 -78.16,26.94 -1142.22,117.75 -1277.75,141.1 -29.16,5.02 -154.69,92.18 -152.97,56.05 1.75,-36.7 -128.16,-256.2 -152.3,-300.14 -70.18,-127.72 -95.1,-284.85 -164.69,-381.69 -53.15,-73.97 -45.15,-225.85 -115.03,-318.97 -20.39,-27.16 65.96,6.16 -55.53,-84.08 -43.69,-32.46 -63.79,-120.58 -69.61,-171.44 -0.12,-1.06 -46.59,-20.27 -52.02,-148.15 -2.01,-47.07 -20.48,-281.5 -36.61,-313.77 -11.16,-22.33 82.36,26.12 138.4,3.92 91.13,-36.12 239.45,-47.66 386.49,-49.52 79.25,-1 315.46,4.79 509.35,-6.33 223.63,-12.8 517.79,-6.2 737.26,-21.28 176.98,-12.15 278.21,-46.78 464.54,-52.57"></path> <path class="fil3 str1" d="M7481.51 -240.36c-29.17,112.36 274.36,25.45 376.82,-57.12 45.98,-37.05 96.85,-94.57 107.94,-166.36 13.51,-87.35 -25.2,-123.52 -125.89,-104.68 -20.25,3.79 -94.68,17.23 -126.73,50.29l-22.43 17.49c27.36,-22.86 151.29,-78.76 198.79,-7.85 62.91,93.93 -64.04,200.25 -192.18,250.78 -105.8,41.73 -218.58,47.72 -173.5,-64.41"></path> <path class="fil3 str1" d="M7645.21 -461.02c169.43,-106.24 186,-24.4 166.5,47.44 -37.85,139.46 -368.07,203.82 -245.66,35.53"></path> </g> </g> </g> <path class="fil3" d="M3417.35 575.49c194.05,0 351.35,157.3 351.35,351.35 0,194.05 -157.3,351.35 -351.35,351.35 -194.05,0 -351.35,-157.3 -351.35,-351.35 0,-194.05 157.3,-351.35 351.35,-351.35z"></path> </g> </svg> 