<?xml version="1.0" encoding="UTF-8"?> <svg xmlns="http://www.w3.org/2000/svg" width="949" height="496" viewBox="0 0 949 496" fill="none"> <path d="M154.252 184.167C167.288 184.229 175.95 186.12 181.81 191.056C187.766 196.067 190.514 203.855 191.68 215.667C193.366 232.746 193.876 250.156 194.379 267.459C194.548 273.319 194.721 279.184 194.942 285.13V285.223C194.991 291.894 193.105 297.276 189.284 301.354C185.552 305.335 180.046 307.944 172.783 309.162L172.701 309.176C165.365 310.215 158.193 311.102 150.899 312.002C98.5652 318.462 39.7026 325.736 19.5776 373.761C12.9466 389.59 10.9075 405.688 13.7354 420.819C16.466 435.438 23.7556 449.224 35.844 461.062C37.36 462.547 38.9822 464.003 40.6976 465.424C61.0399 482.273 90.8966 490.356 120.35 489.487C149.764 488.618 178.685 478.813 197.214 459.899C198.619 458.464 199.998 456.931 201.332 455.322C208.423 445.565 213.398 434.315 216.211 421.832C219.068 409.174 219.708 395.224 218.106 380.235L213.123 341.362C212.084 329.637 214.961 320.47 221.754 313.868C228.379 307.431 238.636 303.624 252.513 302.458L418.757 278.598C557.252 262.656 690.428 254.817 828.382 246.7L865.772 244.495L933.882 238.794C938.319 238.424 941.085 236.419 942.29 233.976C942.794 232.959 943.038 231.855 943.029 230.782C943.02 229.73 942.756 228.677 942.253 227.724C941.131 225.622 938.751 224.011 935.147 223.869L799.283 218.455C756.964 217.039 714.593 215.857 672.182 214.68C556.068 211.456 439.569 208.215 324.463 200.097C308.583 199.07 294.4 197.832 281.931 196.38C269.42 194.924 258.535 193.237 249.286 191.328C227.186 186.767 215.353 179.79 209.965 167.923C204.705 156.338 205.987 140.549 209.991 117.962C212.76 99.322 211.966 82.1318 207.489 66.9741C203.138 52.2418 195.29 39.3801 183.843 28.9297C172.92 18.9605 157.381 12.3667 140.391 8.90046C121.563 5.05712 100.988 5.05712 82.8776 8.52139C63.3027 12.2691 42.9431 22.048 28.082 37.1834C15.5816 49.9168 6.97791 66.4665 6.06897 86.4159L5.98458 88.9029C5.23138 124.921 24.651 147.883 51.7619 162.188C79.3691 176.753 114.942 182.481 145.659 183.879C148.635 184.014 151.501 184.11 154.252 184.167ZM177.976 195.617C173.31 191.688 165.801 190.18 154.183 190.13H154.136C151.218 190.07 148.292 189.974 145.402 189.841C113.962 188.41 77.4786 182.51 48.9783 167.471C19.9814 152.172 -0.786351 127.536 0.0228494 88.7877L0.107119 86.159C1.08859 64.5823 10.3598 46.7162 23.8267 32.9992C39.5763 16.9592 61.0951 6.60631 81.7562 2.65257C100.584 -0.949427 121.986 -0.947133 141.583 3.05353C159.573 6.7238 176.108 13.7787 187.863 24.5103C200.138 35.7162 208.555 49.5043 213.217 65.2895C217.951 81.3162 218.804 99.3797 215.903 118.864L215.889 118.946C212.082 140.425 210.781 155.27 215.413 165.468C219.916 175.386 230.471 181.352 250.478 185.482C259.481 187.339 270.195 188.995 282.609 190.44C295.056 191.889 309.144 193.121 324.86 194.134H324.885C440.156 202.264 556.443 205.5 672.346 208.718C714.83 209.897 757.272 211.079 799.493 212.493L935.382 217.907C941.391 218.145 945.491 221.074 947.532 224.92C948.479 226.715 948.971 228.714 948.991 230.733C949.011 232.735 948.565 234.759 947.645 236.618C945.584 240.794 941.182 244.189 934.374 244.757C898.845 247.729 864.247 250.568 828.732 252.662C690.928 260.772 557.895 268.603 419.46 284.536L253.058 308.416C240.567 309.46 231.517 312.706 225.916 318.145C220.491 323.418 218.203 330.958 219.057 340.757L224.046 379.606C225.717 395.238 225.036 409.839 222.035 423.14C219.03 436.471 213.684 448.509 206.044 458.981L205.938 459.134C204.55 460.81 203.056 462.463 201.47 464.083C181.819 484.144 151.368 494.538 120.514 495.449C89.6996 496.36 58.3625 487.818 36.8857 470.03C35.1059 468.556 33.3594 466.982 31.6594 465.317C18.6646 452.591 10.8187 437.723 7.86644 421.919C4.81897 405.619 6.98205 388.365 14.0592 371.469C35.5338 320.222 96.2182 312.724 150.171 306.062C157.709 305.133 165.125 304.213 171.856 303.263C177.763 302.263 182.127 300.257 184.935 297.263C187.648 294.366 189 290.385 188.98 285.339C188.765 279.536 188.588 273.583 188.418 267.623C187.916 250.459 187.411 233.189 185.74 216.252C184.731 206.039 182.56 199.474 177.976 195.617ZM199.337 376.237C195.545 366.01 189.047 357.748 180.212 351.314C170.87 344.509 158.88 339.688 144.668 336.697C118.985 332.104 96.0874 334.549 77.4034 341.63C56.7955 349.439 41.3406 362.89 32.9981 378.717C27.4395 389.262 25.3294 400.502 26.3268 411.453C27.3552 422.741 31.6858 433.763 38.9334 443.446C47.0765 454.326 58.0854 461.745 70.3795 466.647C85.5974 472.718 102.812 474.963 119.087 475.16C132.899 475.324 146.042 473.088 157.725 468.755C171.617 463.602 183.399 455.494 191.72 444.973C199.998 434.508 204.887 421.601 205.067 406.79C205.177 397.374 203.382 387.144 199.337 376.237ZM183.718 346.495C193.53 353.641 200.743 362.81 204.949 374.153C209.245 385.734 211.151 396.692 211.029 406.861C210.834 423.064 205.47 437.196 196.396 448.67C187.365 460.091 174.689 468.848 159.808 474.367C147.488 478.937 133.611 481.298 119.016 481.123C102.103 480.918 84.1589 478.563 68.181 472.188C54.9291 466.902 43.0247 458.863 34.164 447.024C26.2471 436.449 21.5151 424.379 20.3868 411.989C19.2851 399.905 21.6035 387.523 27.7143 375.933C36.7171 358.856 53.2802 344.383 75.2978 336.04C94.9324 328.6 118.94 326.025 145.801 330.839L145.883 330.85C160.903 334.012 173.663 339.172 183.718 346.495ZM188.047 128.713C195.457 113.527 197.343 94.949 193.978 77.7877C190.762 61.3822 182.752 46.3197 170.201 36.8467C162.479 31.0221 152.747 26.8288 142.073 24.1404C130.343 21.1836 117.502 20.0354 104.918 20.5074C82.9951 21.3298 60.1331 28.0166 43.7078 41.133C30.1456 51.9626 20.992 67.2466 20.5131 87.3026C19.99 109.231 29.5383 126.723 44.3635 139.408C56.6402 149.915 72.5492 157.172 89.3984 160.964C106.294 164.765 124.113 165.084 140.173 161.718C161.342 157.278 179.403 146.427 188.047 128.713ZM199.847 76.6439C203.451 95.0269 201.406 114.972 193.424 131.333C183.896 150.862 164.281 162.764 141.388 167.564C124.506 171.102 105.802 170.774 88.0907 166.789C70.333 162.79 53.5216 155.104 40.4804 143.942C24.3607 130.15 13.9814 111.091 14.551 87.1609C15.0763 65.1146 25.1188 48.3319 39.9887 36.4566C57.4471 22.5155 81.6099 15.41 104.709 14.5456C117.85 14.0536 131.266 15.2524 143.522 18.3421C154.939 21.2192 165.409 25.747 173.8 32.0769C187.595 42.4873 196.363 58.873 199.847 76.6439ZM263.513 278.481C307.707 272.501 384.135 263.716 458.898 255.123C516.994 248.442 574.101 241.877 613.809 236.906C537.602 230.157 449.381 225.197 366.402 220.534C329.191 218.444 293.024 216.409 259.734 214.319C257.032 214.151 254.35 213.871 251.742 213.605C241.606 212.561 232.452 211.62 227.827 218.007C225.486 221.243 224.274 226.64 223.824 232.861C223.23 241.086 223.99 250.564 225.254 258.618C228.919 281.99 236.73 281.201 259.78 278.858L263.513 278.481ZM459.576 261.063C384.645 269.675 308.044 278.481 264.289 284.401L260.365 284.798C233.135 287.564 223.906 288.499 219.362 259.531C218.035 251.064 217.235 241.1 217.862 232.44C218.385 225.195 219.927 218.73 222.986 214.501C229.631 205.325 240.411 206.438 252.349 207.665C254.889 207.925 257.495 208.195 260.095 208.357C293.775 210.471 329.731 212.493 366.73 214.572C453.39 219.441 545.771 224.634 624.528 231.884L627.241 234.654L627.5 238.356L624.894 241.514C584.112 246.745 522.433 253.835 459.576 261.063Z" fill="#1A1A18"></path> <path fill-rule="evenodd" clip-rule="evenodd" d="M946.006 229.112L945.175 229.498L943.48 228.801L942.649 229.187L942.145 229.413L942.046 229.457L941.839 229.55L941.819 229.559L941.618 229.48L941.617 229.479L941.462 229.418L940.125 228.891L939.294 229.263L938.924 229.422L938.859 229.45L938.854 229.452L938.767 229.489L938.529 229.591L938.462 229.62L938.398 229.596L938.139 229.498L938.033 229.459L937.962 229.431L937.953 229.428L936.769 228.983L935.937 229.34L935.754 229.415L935.683 229.444L935.617 229.471L935.592 229.482L935.48 229.527L935.353 229.58L935.106 229.681L935.091 229.676L934.936 229.62L934.867 229.596L934.658 229.521L934.562 229.487L934.539 229.478L934.441 229.443L934.374 229.419L933.414 229.075L932.581 229.416L932.529 229.443L932.479 229.469L932.451 229.483L932.238 229.593L932.111 229.659L931.824 229.807L931.752 229.845L931.711 229.826L931.553 229.753L931.264 229.62L931.137 229.561L930.68 229.243L930.607 229.209L930.601 229.206L930.056 229.063L929.376 229.415L929.363 229.421L929.263 229.473L929.226 229.492L929.187 229.509L929.163 229.519L928.906 229.629L928.798 229.675L928.605 229.758L928.395 229.848L928.313 229.817L928.144 229.753L927.965 229.687L927.826 229.634L927.681 229.58L927.43 229.485L927.351 229.456L927.261 229.422L926.702 229.212L926.227 229.415L926.211 229.422L926.181 229.435L925.997 229.513L925.877 229.565L925.87 229.568L925.604 229.687L925.452 229.754L925.125 229.9L925.039 229.938L925.023 229.931L924.845 229.862L924.674 229.794L924.352 229.668L924.205 229.61L923.943 229.508L923.836 229.466L923.705 229.414L923.345 229.273L922.995 229.429H922.995L922.921 229.462L922.709 229.557L922.514 229.644L922.441 229.677L922.293 229.747L922.137 229.819L921.972 229.895L921.857 229.948L921.801 229.975L921.683 230.029L921.529 229.965L921.381 229.905L921.209 229.834L920.961 229.733L920.884 229.701L920.594 229.582L920.467 229.531L920.354 229.484L920.301 229.462L920.261 229.446L920.198 229.421L920.182 229.414L919.989 229.335L919.819 229.413L919.797 229.424L919.754 229.443L919.732 229.453L919.533 229.546L919.273 229.667L919.158 229.72L918.975 229.808L918.74 229.922L918.646 229.967L918.328 230.121L918.29 230.105L918.236 230.081L918.104 230.025L917.923 229.948L917.582 229.801L917.271 229.668L916.999 229.552L916.784 229.459L916.676 229.413L916.633 229.394L916.588 229.416L916.531 229.444L916.45 229.483L916.348 229.532L916.23 229.589L915.958 229.721L915.802 229.796L915.65 229.873L915.485 229.956L915.134 230.132L914.36 230.258L912.821 229.955L912.047 230.08L912.005 230.101L911.993 230.108L911.881 230.166L911.747 230.236L911.616 230.304L911.558 230.276L911.383 230.196L911.215 230.118L911.173 230.099L911.056 230.044L910.956 229.997L910.878 229.961L910.842 229.944L910.831 229.939L909.92 229.516L909.111 229.937L909.09 229.948L909.074 229.957L908.928 230.032L908.701 230.149L908.568 230.218L908.273 230.371L908.26 230.377L908.144 230.323L907.989 230.252L907.585 230.066L907.388 229.975L907.386 229.974L907.326 229.946L906.564 229.595L905.9 229.938L905.882 229.947L905.837 229.97L905.742 230.02L905.734 230.024L905.637 230.072L905.386 230.198L905.242 230.269L905.091 230.345L904.931 230.424L904.904 230.438L904.868 230.422L904.7 230.348L904.54 230.276L904.247 230.146L904.117 230.088L903.899 229.991L903.822 229.957L903.803 229.949L903.78 229.938L903.209 229.685L902.697 229.94L902.69 229.943L902.557 230.01L902.456 230.06L902.378 230.099L902.202 230.177L902.054 230.244L901.736 230.387L901.565 230.463L901.547 230.471L901.447 230.431L901.271 230.362L901.063 230.28L900.941 230.231L900.788 230.171L900.513 230.062L900.396 230.015L900.28 229.97L900.226 229.948L900.199 229.937L899.854 229.8L899.536 229.943L899.481 229.967L899.412 229.998L899.29 230.053L899.168 230.107L899.034 230.168L899.022 230.173L898.891 230.234L898.706 230.32L898.49 230.421L898.35 230.486L898.199 230.556L898.191 230.56L897.987 230.476L897.809 230.403L897.476 230.266L897.393 230.231L897.342 230.21L897.321 230.201L897.316 230.199L897.175 230.142L897.04 230.086L896.497 229.862L895.666 230.249L895.193 230.478L894.836 230.651L894.711 230.598L893.141 229.922L892.31 230.325L891.479 230.69L889.786 230.037L888.954 230.401L888.123 230.78L886.429 230.097L885.598 230.477L884.766 230.819L883.074 230.209L882.242 230.552L881.411 230.91L879.718 230.27L878.886 230.628L878.055 231.001L876.361 230.33L875.53 230.704L874.698 231.038L873.006 230.444L872.174 230.779L871.339 230.973L869.653 230.66L868.818 230.854L867.983 231.063L866.297 230.72L865.462 230.929L864.628 231.154L862.941 230.78L862.106 231.005L861.272 231.243L859.584 230.84L858.75 231.079L857.916 231.333L856.228 230.901L855.394 231.155L854.561 231.424L852.872 230.959L852.038 231.229L851.205 231.513L849.516 231.019L848.682 231.303L847.849 231.601L846.159 231.078L845.326 231.376L844.494 231.689L842.803 231.138L841.97 231.451L841.138 231.777L839.447 231.198L838.614 231.524L837.781 231.813L836.091 231.309L835.258 231.598L834.425 231.903L832.735 231.369L831.902 231.673L831.07 231.993L829.379 231.429L828.546 231.748L827.714 232.083L826.022 231.487L825.19 231.823L824.358 232.171L822.666 231.548L821.834 231.897L821.003 232.26L819.31 231.607L818.478 231.971L817.647 232.349L815.954 231.665L815.122 232.043L814.291 232.435L812.597 231.723L811.766 232.116L811.535 232.121L811.271 232.127L810.264 233.301L805.954 230.036L786.808 231.61L782.087 228.462L763.189 253.56L776.058 252.787L787.332 238.305L807.1 237.84L807.363 237.834L807.627 237.828L808.456 237.473L810.152 238.089L810.982 237.734L811.057 237.731L811.885 237.392L813.583 237.953L814.411 237.614L814.438 237.613L815.265 237.246L816.965 237.865L817.792 237.497L817.957 237.491L818.093 237.486L818.919 237.092L820.621 237.765L821.448 237.37L821.73 237.36L821.991 237.351L822.044 237.349L822.871 236.982L824.571 237.599L825.399 237.232L825.741 237.22L826.57 236.878L828.268 237.446L829.096 237.105L829.123 237.104L829.951 236.733L831.651 237.359L832.478 236.988L832.554 236.985L833.382 236.638L835.081 237.215L835.909 236.868L835.993 236.865L836.822 236.542L838.519 237.071L839.347 236.748L839.633 236.738L840.461 236.388L842.16 236.972L842.987 236.622L843.018 236.621L843.845 236.243L845.546 236.885C846.519 236.439 846.828 236.513 847.802 236.133L849.501 236.721L850.329 236.369L850.411 236.366L851.24 236.038L852.937 236.579L853.766 236.251L853.789 236.25L854.617 235.893L856.316 236.492L857.144 236.135L857.224 236.132L858.052 235.798L859.75 236.349L860.579 236.015L860.667 236.011L861.496 235.702L863.192 236.205L864.021 235.895L864.109 235.892L864.383 235.882L865.213 235.597L866.908 236.049L867.738 235.764L867.844 235.761L868.675 235.5L870.368 235.904L871.199 235.643L871.315 235.639L872.146 235.402L873.837 235.759L874.669 235.522L874.679 235.522L874.82 235.517L875.649 235.201L877.346 235.716L878.175 235.4L878.283 235.396L878.458 235.39L879.286 235.047L880.984 235.617L881.812 235.274L881.818 235.273L882.643 234.85L884.347 235.582L885.172 235.159L885.229 235.156L886.054 234.714L887.759 235.484L888.584 235.04L888.636 235.038L888.65 235.038L889.476 234.624L891.179 235.337L892.004 234.922L892.042 234.921L892.147 234.917L892.975 234.585L894.674 235.135L895.502 234.802L895.651 234.797L895.735 234.793L896.566 234.542L898.258 234.928L899.089 234.677L899.174 234.674L899.441 234.664L899.489 234.663L900.321 234.438L902.011 234.771L902.843 234.546L903.04 234.539L903.082 234.538L903.34 234.529L904.171 234.277L905.863 234.665L906.694 234.413L906.781 234.41L907.048 234.4L907.203 234.395L908.034 234.116L909.728 234.559L910.558 234.279L910.688 234.275L911.519 234.024L913.211 234.409L914.042 234.158L914.186 234.153L915.018 233.931L916.709 234.258L917.541 234.036L917.719 234.03L917.778 234.028L918.609 233.781L920.301 234.16L921.132 233.912L921.194 233.91L921.382 233.903L922.213 233.631L923.906 234.061L924.737 233.787L924.997 233.778L925.826 233.48L927.521 233.961L928.351 233.663L928.361 232.212L929.19 233.341L930.887 233.868L931.716 233.547L931.733 233.546L932.561 233.201L934.259 233.776L935.087 233.431L935.113 233.43L935.94 233.063L937.64 233.683L938.467 233.316L938.76 233.305L939.587 232.912L941.288 233.583L942.115 233.19L942.128 233.189L942.153 233.188L942.979 232.771L944.682 233.489L945.508 233.072L945.55 232.921L945.715 230.879L945.898 230.226L945.961 229.572L946.006 229.112Z" fill="#1A1A18"></path> <path fill-rule="evenodd" clip-rule="evenodd" d="M653.678 211.183L637.372 238.731L630.553 241.354L549.116 247.696L625.112 232.297L631.14 232.342L643.116 211.323L653.678 211.183Z" fill="#1A1A18"></path> <path fill-rule="evenodd" clip-rule="evenodd" d="M221.596 226.489C221.586 226.064 221.579 225.649 221.576 225.241L221.579 225.21H221.575C221.492 215.088 223.403 210.16 218.315 206.54C217.114 205.686 215.646 204.857 213.53 204.899L194.519 205.621C185.803 205.955 189.041 220.648 189.564 225.908L189.622 225.907L189.949 230.699L193.467 230.669C193.577 228.383 194.751 226.963 196.731 226.061C200.916 224.154 208.146 223.759 212.902 224.872C215.65 225.515 216.869 226.457 217.6 229.455L221.043 229.819L221.567 225.315L221.596 226.489ZM219.365 225.165L221.562 225.11L221.564 225.209L219.365 225.165Z" fill="#1A1A18"></path> </svg> 