<?xml version="1.0" standalone="no"?>
<!DOCTYPE svg PUBLIC "-//W3C//DTD SVG 20010904//EN"
 "http://www.w3.org/TR/2001/REC-SVG-20010904/DTD/svg10.dtd">
<svg version="1.0" xmlns="http://www.w3.org/2000/svg"
 width="1000.000000pt" height="698.000000pt" viewBox="0 0 1000.000000 698.000000"
 preserveAspectRatio="xMidYMid meet">

<g transform="translate(0.000000,698.000000) scale(0.100000,-0.100000)"
fill="#000000" stroke="none">
<path d="M1410 6625 c-171 -27 -354 -101 -468 -188 -320 -248 -494 -684 -427
-1069 59 -338 282 -619 599 -751 138 -58 367 -97 754 -129 l153 -12 -7 -41
c-4 -24 -20 -57 -41 -83 -37 -45 -37 -44 -17 -143 4 -21 1 -28 -17 -32 -21 -6
-21 -9 -15 -76 6 -59 5 -71 -7 -71 -8 0 -18 -7 -21 -16 -7 -18 22 -194 33
-206 8 -9 393 -88 427 -88 13 0 25 4 28 9 3 5 25 124 48 265 32 190 46 256 56
256 8 0 117 -25 242 -56 l228 -55 6 -51 c9 -65 27 -99 79 -149 45 -45 91 -71
152 -88 22 -6 311 -45 642 -86 562 -71 604 -75 635 -61 18 9 41 21 50 28 14
10 45 4 170 -31 84 -24 171 -52 192 -63 43 -22 122 -93 168 -150 l29 -38 -29
-42 c-39 -57 -120 -124 -184 -153 -29 -13 -115 -40 -191 -61 -112 -30 -142
-35 -155 -26 -39 28 -83 42 -119 37 -21 -3 -292 -37 -602 -75 -310 -39 -587
-77 -616 -85 -128 -38 -223 -144 -225 -252 l0 -31 -207 -50 c-115 -28 -224
-53 -243 -57 l-35 -6 -43 258 c-23 142 -48 263 -55 270 -9 9 -60 2 -227 -34
-118 -24 -219 -49 -224 -53 -7 -7 60 -477 91 -640 l5 -25 -204 -18 c-245 -21
-460 -51 -562 -77 -284 -72 -524 -265 -654 -525 -193 -385 -102 -895 217
-1229 151 -157 311 -244 536 -291 298 -61 743 1 1058 148 176 82 346 221 437
356 57 85 134 250 156 336 29 111 24 287 -15 530 -63 393 -56 464 57 575 119
117 77 103 1189 406 554 151 1046 284 1093 296 112 26 71 31 1500 -152 l1165
-150 690 64 c460 42 702 69 726 79 42 17 75 56 84 97 5 24 0 37 -27 70 -36 43
-52 48 -79 24 -17 -15 -20 -14 -41 11 l-23 27 -27 -21 -26 -21 -20 27 -21 28
-32 -19 c-33 -19 -33 -19 -47 2 -17 26 -44 28 -62 7 -12 -14 -16 -13 -41 11
-27 25 -27 26 -54 8 -27 -18 -28 -18 -43 4 -17 26 -44 29 -62 7 -12 -14 -16
-13 -41 11 l-29 28 -24 -23 -24 -23 -17 26 c-20 30 -41 33 -67 9 -18 -16 -19
-15 -34 5 -18 26 -46 28 -64 7 -12 -14 -16 -13 -41 11 -26 25 -27 25 -54 8
-27 -17 -27 -17 -46 7 -18 23 -19 24 -48 7 -28 -16 -30 -15 -52 8 -21 23 -23
23 -51 6 -29 -17 -30 -16 -48 8 -19 24 -20 24 -49 9 -28 -16 -30 -16 -53 8
l-24 24 -26 -21 -26 -20 -21 27 c-17 24 -22 26 -38 15 -35 -24 -43 -24 -62 -1
-19 23 -20 24 -49 7 -28 -17 -30 -17 -52 7 -22 24 -25 24 -48 9 -22 -15 -25
-14 -48 7 l-24 22 -50 -27 -50 -27 -702 111 c-387 61 -715 113 -730 116 -26 5
-28 9 -28 54 0 45 2 49 28 54 15 3 340 55 723 115 729 115 708 113 786 78 17
-7 27 -5 48 11 25 20 28 20 52 5 24 -16 26 -16 44 8 18 23 19 24 48 7 28 -15
30 -15 47 3 20 22 36 24 65 7 17 -11 22 -10 38 11 17 22 19 23 48 7 29 -14 32
-14 48 4 21 23 37 25 66 8 17 -11 22 -10 39 12 l19 25 32 -19 c33 -19 33 -19
47 2 16 25 33 27 62 10 17 -11 23 -9 42 9 21 21 23 21 51 5 28 -16 30 -16 44
6 18 26 30 28 55 5 17 -15 20 -15 43 7 22 21 27 22 56 9 30 -12 33 -11 47 9
17 26 29 28 54 5 17 -15 20 -15 43 7 22 21 27 22 56 10 29 -12 33 -12 50 11
15 20 21 22 36 11 36 -25 46 -25 64 -1 18 23 19 24 48 7 30 -16 31 -16 50 8
20 26 20 26 52 7 31 -18 31 -18 46 4 18 27 30 29 55 6 18 -16 20 -15 45 9 24
25 27 25 53 10 26 -15 28 -15 64 22 32 31 36 41 31 66 -8 38 -39 77 -77 96
-23 12 -215 33 -726 80 l-695 64 -1161 -149 c-1339 -172 -1390 -178 -1466
-164 -30 6 -524 139 -1098 297 -810 221 -1055 292 -1098 316 -72 42 -158 122
-192 179 -26 44 -27 52 -26 171 1 91 10 180 34 325 40 243 46 417 16 530 -22
86 -99 251 -156 334 -95 142 -258 274 -438 358 -294 137 -712 203 -1002 158z
m350 -55 c145 -13 288 -41 437 -86 369 -112 622 -344 732 -672 49 -145 48
-251 -5 -587 -31 -191 -41 -373 -25 -432 26 -96 140 -221 262 -288 32 -17 364
-112 959 -275 501 -136 921 -255 935 -264 80 -52 75 -196 -8 -246 -60 -37 -89
-36 -231 8 -72 23 -201 59 -286 82 -85 22 -204 54 -265 70 -125 33 -1221 305
-1395 346 -63 15 -185 44 -270 65 -154 37 -180 38 -180 5 0 -7 -11 -23 -25
-36 l-25 -24 -168 38 c-92 21 -169 40 -170 41 -2 2 6 17 18 33 16 21 23 49 27
105 l6 76 -34 5 c-19 3 -74 8 -124 11 -136 9 -438 43 -540 61 -450 77 -765
398 -816 830 -9 73 -9 122 0 201 30 268 141 493 333 679 82 80 110 99 209 148
203 100 380 129 649 106z m614 -2428 c5 -29 6 -55 3 -58 -5 -5 -191 35 -309
67 -38 10 -42 16 -53 85 l-6 41 178 -41 178 -42 9 -52z m5936 38 c168 -17 316
-30 330 -31 24 -1 23 -2 -5 -10 -16 -5 -579 -91 -1250 -190 -671 -99 -1224
-184 -1229 -190 -6 -6 -6 -13 0 -19 6 -6 463 57 1319 184 721 107 1326 196
1345 199 19 2 143 -6 275 -19 132 -13 250 -24 262 -24 12 0 34 -11 50 -24 l28
-24 -35 -6 c-65 -12 -1691 -246 -1704 -246 -8 0 -19 23 -27 58 -9 38 -19 57
-29 57 -15 0 -18 -23 -9 -74 l4 -24 -755 -119 c-415 -65 -759 -123 -764 -128
-5 -5 -8 -42 -7 -82 5 -230 -149 -423 -374 -468 -47 -10 -84 -10 -177 0 -64 7
-142 10 -172 6 -96 -11 -2144 -573 -2212 -606 -80 -40 -183 -126 -223 -186
-71 -107 -77 -233 -27 -544 53 -328 54 -438 5 -582 -67 -200 -189 -366 -364
-495 -222 -165 -591 -267 -960 -266 -176 0 -283 18 -412 69 -223 88 -418 279
-528 516 -225 488 -67 1013 381 1265 171 97 326 130 779 168 105 9 205 19 224
21 l34 5 -6 62 c-4 34 -9 85 -13 112 l-6 50 168 38 c93 21 172 37 176 37 3 0
9 -18 13 -40 4 -22 14 -44 23 -49 11 -5 74 6 177 31 1788 441 2225 555 2317
605 106 58 235 224 278 358 62 195 241 333 435 335 28 0 561 68 1185 149 624
82 1144 149 1155 150 11 0 157 -13 325 -29z m-6118 -100 l148 -33 5 -36 c4
-20 8 -46 11 -58 3 -15 0 -23 -10 -23 -18 0 -326 69 -337 75 -4 3 -11 26 -15
51 -7 49 5 68 36 61 8 -2 81 -19 162 -37z m1552 -135 c384 -96 701 -177 704
-180 3 -3 -7 -5 -22 -5 -40 0 -1112 128 -1171 140 -64 13 -146 51 -175 81 -44
47 -76 139 -47 139 7 0 327 -79 711 -175z m-1579 -19 c81 -19 148 -36 150 -38
1 -2 5 -24 8 -50 5 -35 3 -48 -6 -48 -14 0 -340 69 -342 73 -1 1 -5 23 -8 50
-7 46 -6 47 22 47 15 0 95 -15 176 -34z m3050 5 c39 -11 89 -25 113 -31 l43
-11 -40 -29 c-72 -53 -137 -147 -181 -262 -34 -89 -32 -88 -97 -18 -32 34 -59
66 -61 70 -1 4 11 10 27 13 38 8 100 63 117 104 18 42 18 115 0 158 -10 24
-11 33 -3 30 7 -2 44 -13 82 -24z m981 -628 c-24 -101 -131 -251 -223 -312
-46 -31 -96 -40 -108 -21 -3 6 -1 10 6 10 6 0 42 21 80 46 96 64 155 147 204
292 2 6 14 12 26 12 18 0 20 -4 15 -27z m754 -92 l685 -108 -4 -29 c-8 -56 -6
-69 9 -69 10 0 20 19 29 58 8 35 19 57 27 57 14 0 1639 -234 1704 -246 l35 -6
-28 -24 c-16 -13 -36 -24 -45 -24 -9 0 -127 -11 -261 -25 l-243 -24 -1302 194
c-715 107 -1315 197 -1333 200 l-31 6 26 74 c15 41 32 75 37 75 6 0 318 -49
695 -109z m-2535 -86 c-91 -29 -1385 -348 -1391 -343 -13 13 19 92 53 129 40
45 98 73 181 89 87 17 1090 138 1147 138 l50 0 -40 -13z m2990 -180 c1253
-185 1266 -187 1250 -191 -5 -2 -155 -17 -332 -34 l-322 -31 -973 126 c-535
69 -986 128 -1001 131 l-29 6 54 48 c30 26 66 66 82 88 23 34 32 40 55 36 14
-2 562 -83 1216 -179z m-5071 148 c14 -66 65 -377 63 -379 -5 -6 -342 -82
-345 -79 -5 4 -61 365 -62 391 0 19 16 24 163 56 89 20 165 36 169 37 3 1 9
-11 12 -26z"/>
<path d="M1395 6370 c-114 -24 -266 -98 -362 -174 -204 -163 -313 -406 -300
-667 21 -419 353 -685 938 -753 551 -65 829 63 973 446 60 159 76 391 37 542
-68 262 -250 429 -596 549 -138 48 -263 68 -445 73 -127 3 -171 0 -245 -16z
m510 -69 c308 -68 555 -214 649 -384 98 -177 114 -442 41 -658 -123 -361 -393
-485 -920 -424 -348 41 -612 160 -753 340 -89 113 -125 233 -125 410 0 183 32
282 135 419 101 134 279 251 459 302 77 22 98 23 254 20 120 -3 197 -11 260
-25z"/>
<path d="M5562 3712 c-70 -26 -118 -66 -156 -132 -26 -46 -30 -65 -30 -125 -1
-163 115 -280 279 -279 109 0 194 52 244 149 112 218 -106 469 -337 387z m200
-74 c86 -47 129 -169 94 -262 -30 -79 -124 -146 -205 -146 -74 0 -157 53 -193
123 -26 52 -28 139 -3 191 21 43 87 103 130 116 46 14 130 4 177 -22z"/>
<path d="M1696 2130 c-647 -74 -993 -381 -963 -855 8 -115 30 -201 78 -296
120 -241 363 -414 642 -459 96 -16 318 -8 437 15 257 49 518 176 638 311 65
72 134 210 157 314 19 86 22 258 5 351 -46 254 -178 456 -357 547 -23 12 -81
34 -130 48 -77 23 -109 27 -258 29 -93 2 -205 0 -249 -5z m469 -74 c90 -24
215 -89 263 -137 131 -131 212 -347 212 -572 0 -129 -22 -234 -72 -334 -76
-156 -242 -279 -494 -366 -200 -70 -494 -98 -648 -62 -304 71 -551 293 -612
551 -20 85 -22 278 -5 354 47 198 204 368 432 467 129 55 280 90 509 117 84
10 357 -2 415 -18z"/>
<path d="M2119 3003 c-38 -23 -59 -64 -59 -113 0 -36 6 -48 39 -81 32 -33 45
-39 80 -39 85 0 131 46 131 131 0 46 -4 55 -36 85 -30 29 -43 34 -82 34 -26 0
-59 -8 -73 -17z m143 -72 c22 -45 6 -89 -41 -113 -45 -22 -89 -6 -113 41 -22
45 -6 89 41 113 45 22 89 6 113 -41z"/>
</g>
</svg>
