<?xml version="1.0" encoding="UTF-8"?> <!-- Creator: CorelDRAW --> <svg xmlns="http://www.w3.org/2000/svg" xmlns:xlink="http://www.w3.org/1999/xlink" xmlns:xodm="http://www.corel.com/coreldraw/odm/2003" xml:space="preserve" width="18.1496mm" height="14.742mm" style="shape-rendering:geometricPrecision; text-rendering:geometricPrecision; image-rendering:optimizeQuality; fill-rule:evenodd; clip-rule:evenodd" viewBox="0 0 1814.96 1474.2"> <defs> <style type="text/css"> <![CDATA[ .fil0 {fill:#2B2B2A;fill-rule:nonzero} ]]> </style> </defs> <g id="Слой_x0020_1"> <metadata id="CorelCorpID_0Corel-Layer"></metadata> <g id="_140167803793680"> <path class="fil0" d="M895.4 41.9c230.81,0 440.11,44.71 592.18,116.18 156.28,73.44 253.02,175.76 253.02,288.19 0,112.13 -96.12,212.72 -251.5,284.68 -152.23,70.51 -362.21,114.12 -593.84,114.12 -228.73,0 -433.82,-46.42 -583.04,-119.31 -156.16,-76.27 -252.01,-182.16 -252.01,-295.49 0,-111.75 92.9,-209.41 244.8,-278.7 149.84,-68.35 357.96,-109.67 590.39,-109.67zm580.78 140.56c-148.62,-69.85 -353.85,-113.54 -580.78,-113.54 -228.71,0 -432.84,40.36 -579.21,107.13 -142.07,64.81 -228.96,154 -228.96,254.22 0,102.28 90.07,199.56 236.81,271.23 145.76,71.2 346.64,116.55 571.22,116.55 227.77,0 433.73,-42.64 582.56,-111.58 145.66,-67.46 235.76,-159.53 235.76,-260.2 0,-101.12 -90.77,-194.9 -237.4,-263.81z"></path> <path class="fil0" d="M894.97 2.79c250.67,0 477.97,48.42 642.61,127.12 167.01,79.84 270.31,191.39 270.31,316.36 0,125.19 -103.58,237.67 -271,318.29 -164.46,79.21 -391.35,128.2 -641.63,128.2 -247.85,0 -470.25,-51.16 -631.8,-132.14 -167.64,-84.02 -270.54,-200.71 -270.54,-326.92 0,-124.53 99.75,-232.54 262.89,-309.17 162.04,-76.12 387.43,-121.74 639.16,-121.74zm631.01 151.38c-161.06,-76.99 -384.21,-124.36 -631.01,-124.36 -247.91,0 -469.24,44.63 -627.76,119.1 -153.44,72.07 -247.27,171.69 -247.27,284.79 0,115.3 97.19,223.49 255.54,302.86 157.94,79.17 376.04,129.18 619.78,129.18 246.29,0 468.99,-47.94 629.91,-125.44 157.97,-76.07 255.7,-180.1 255.7,-294.03 0,-113.69 -97.41,-216.82 -254.89,-292.1z"></path> <path class="fil0" d="M540.53 802.14c-6.69,3.23 -14.76,0.42 -17.99,-6.27 -3.23,-6.69 -0.42,-14.76 6.27,-17.99 52.02,-25.27 110.66,-45.32 173.96,-58.89 60.95,-13.07 126.24,-20.17 194.13,-20.17 68.14,0 133.74,7.15 194.97,20.3 63.6,13.67 122.45,33.83 174.5,59.21 6.69,3.26 9.48,11.35 6.22,18.04 -3.26,6.69 -11.35,9.48 -18.04,6.22 -50.18,-24.47 -106.93,-43.91 -168.28,-57.09 -59.29,-12.74 -123,-19.66 -189.37,-19.66 -66.12,0 -129.52,6.87 -188.53,19.53 -61.18,13.12 -117.76,32.45 -167.84,56.77zm932.16 353.19c2.35,-7.05 9.99,-10.85 17.04,-8.5 7.05,2.35 10.85,9.99 8.5,17.04 -30.06,89.42 -107.45,169.48 -214.95,226.19 -102.15,53.89 -231.77,86.93 -373.8,86.93 -144.75,0 -285.22,-32.32 -395.3,-89.5 -106.19,-55.16 -184.48,-133.67 -212,-229.02l25.32 -9.03c34.5,81.23 93.72,144.87 177.6,190.86 84.9,46.55 195.18,75.21 330.75,85.92 148.03,7.16 274.55,-10.17 379.46,-51.98 103.87,-41.39 186.79,-106.94 248.69,-196.56 3.26,-7.38 6.16,-14.83 8.69,-22.35z"></path> <path class="fil0" d="M479.72 781.23c-6.32,3.93 -14.64,1.99 -18.57,-4.33 -3.93,-6.32 -1.99,-14.64 4.33,-18.57 58.4,-36.46 126.75,-65.7 201.94,-85.59 72.29,-19.12 150.85,-29.62 232.88,-29.62 83.25,0 162.9,10.98 236.06,30.92 76.04,20.66 145.08,51.19 203.84,89.18 6.23,4.02 8.03,12.34 4.01,18.57 -4.02,6.23 -12.34,8.03 -18.57,4.01 -56.26,-36.37 -122.75,-65.71 -196.33,-85.75 -70.65,-19.3 -147.91,-29.91 -229.01,-29.91 -79.84,0 -156.08,10.17 -226.02,28.66 -72.5,19.18 -138.36,47.34 -194.56,82.43z"></path> <path class="fil0" d="M437.7 765.23c-6.23,4.04 -14.58,2.27 -18.62,-3.96 -4.04,-6.23 -2.27,-14.58 3.96,-18.62 63.18,-41.25 137.92,-74.43 220.54,-97.01 79.46,-21.72 166.13,-33.69 256.72,-33.69 92.41,0 180.7,12.44 261.38,34.95 83.92,23.44 159.62,57.84 223.18,100.58 6.17,4.13 7.82,12.5 3.69,18.67 -4.13,6.17 -12.5,7.82 -18.67,3.69 -61.2,-41.15 -134.25,-74.32 -215.38,-96.98 -78.23,-21.83 -164.08,-33.89 -254.2,-33.89 -88.43,0 -172.7,11.59 -249.66,32.63 -79.84,21.82 -152.01,53.84 -212.94,93.63z"></path> <path class="fil0" d="M116.82 661.71c-1.83,-7.22 2.54,-14.57 9.76,-16.4 7.22,-1.83 14.57,2.54 16.4,9.76 33.97,133.06 66.27,240.64 96.89,322.69 30.3,81.19 58.78,137.26 85.41,168.15l0.48 0.58c27.4,35.35 62.26,66.56 102.7,93.49 127.49,84.93 309.85,127.32 491.16,124.72 181.13,-2.6 360.78,-50.1 483.04,-144.89 36.46,-28.26 67.81,-60.79 92.48,-97.56 35.71,-86.84 66.83,-168.34 93.31,-244.42 26.56,-76.29 48.53,-147.3 65.86,-212.97 1.89,-7.19 9.27,-11.49 16.46,-9.6 7.19,1.89 11.49,9.27 9.6,16.46 -17.45,66.12 -39.63,137.79 -66.5,214.97 -26.79,76.97 -58.27,159.37 -94.38,247.13l-1.21 2.32c-26.44,39.68 -60.06,74.68 -99.16,104.99 -127,98.46 -312.58,147.8 -499.18,150.47 -186.42,2.67 -374.38,-41.22 -506.36,-129.14 -42.74,-28.46 -79.72,-61.61 -108.98,-99.31 -28.65,-33.41 -58.64,-92.09 -89.95,-175.99 -31.11,-83.38 -63.73,-191.88 -97.83,-325.45z"></path> <path class="fil0" d="M122.98 680.04c-4.83,-5.64 -4.17,-14.16 1.47,-18.99 5.64,-4.83 14.16,-4.17 18.99,1.47 37.1,43.31 81.19,81.5 132.23,114.53 51.23,33.14 109.52,61.15 174.83,83.99 7.01,2.44 10.72,10.13 8.28,17.14 -2.44,7.01 -10.13,10.72 -17.14,8.28 -67.35,-23.55 -127.58,-52.51 -180.63,-86.83 -53.23,-34.45 -99.26,-74.33 -138.03,-119.59z"></path> <path class="fil0" d="M616.49 929.34c-7.33,-1.22 -12.29,-8.18 -11.07,-15.51 1.22,-7.33 8.18,-12.29 15.51,-11.07 150.12,25.15 284.73,33.86 403.76,26.11 118.35,-7.7 221.25,-31.68 308.66,-71.94 6.75,-3.11 14.77,-0.15 17.88,6.6 3.11,6.75 0.15,14.77 -6.6,17.88 -90.43,41.65 -196.53,66.45 -318.26,74.36 -121.06,7.88 -257.71,-0.93 -409.88,-26.43z"></path> <path class="fil0" d="M1306.39 960.34c7.1,-2.21 14.67,1.76 16.88,8.86 2.21,7.1 -1.76,14.67 -8.86,16.88 -125.78,39.16 -245.86,61.92 -360.17,68.27 -114.55,6.36 -223.34,-3.77 -326.33,-30.38 -7.19,-1.86 -11.51,-9.22 -9.65,-16.41 1.86,-7.19 9.22,-11.51 16.41,-9.65 100.23,25.9 206.28,35.75 318.09,29.54 112.03,-6.22 229.93,-28.6 353.63,-67.11z"></path> <path class="fil0" d="M472.86 952.71c6.9,2.79 10.23,10.66 7.44,17.56 -2.79,6.9 -10.66,10.23 -17.56,7.44 -83,-33.63 -151.35,-69.64 -205.02,-107.97 -54.4,-38.85 -93.88,-80.26 -118.34,-124.16 -3.61,-6.49 -1.27,-14.69 5.22,-18.3 6.49,-3.61 14.69,-1.27 18.3,5.22 22.48,40.34 59.32,78.79 110.44,115.3 51.88,37.05 118.4,72.04 199.52,104.91z"></path> <path class="fil0" d="M163.76 832.05c-3.4,-6.61 -0.8,-14.75 5.81,-18.15 6.61,-3.4 14.75,-0.8 18.15,5.81 20.58,39.82 56.37,78.64 107.36,116.41 51.87,38.44 119.24,75.67 202.05,111.64 6.81,2.94 9.95,10.86 7.01,17.67 -2.94,6.81 -10.86,9.95 -17.67,7.01 -84.83,-36.84 -153.99,-75.09 -207.43,-114.7 -54.36,-40.27 -92.79,-82.18 -115.28,-125.69z"></path> <path class="fil0" d="M649.71 1114.55c-7.33,-1.19 -12.32,-8.12 -11.13,-15.45 1.19,-7.33 8.12,-12.32 15.45,-11.13 133.11,22.05 253.7,29.39 361.69,22.03 107.39,-7.32 202.31,-29.22 284.68,-65.67 6.81,-2.99 14.78,0.1 17.77,6.91 2.99,6.81 -0.1,14.78 -6.91,17.77 -85.23,37.72 -183.17,60.36 -293.74,67.89 -109.97,7.49 -232.6,0.05 -367.81,-22.35z"></path> <path class="fil0" d="M1218.84 1193.42c7.19,-1.94 14.62,2.31 16.56,9.5 1.94,7.19 -2.31,14.62 -9.5,16.56 -100.43,27.24 -197.27,42.51 -290.45,45.79 -93.27,3.28 -182.77,-5.5 -268.46,-26.31 -7.22,-1.75 -11.66,-9.03 -9.91,-16.25 1.75,-7.22 9.03,-11.66 16.25,-9.91 83.31,20.24 170.38,28.76 261.18,25.57 90.86,-3.19 185.66,-18.19 284.33,-44.95z"></path> <path class="fil0" d="M523.38 1175.75c6.84,2.91 10.03,10.84 7.12,17.68 -2.91,6.84 -10.84,10.03 -17.68,7.12 -71.26,-30.45 -131.21,-62.28 -179.79,-95.43 -49.13,-33.53 -86.83,-68.59 -113.04,-105.12 -4.34,-6.03 -2.97,-14.44 3.06,-18.78 6.03,-4.34 14.44,-2.97 18.78,3.06 24.33,33.91 59.81,66.79 106.4,98.58 47.12,32.15 105.53,63.14 175.15,92.89z"></path> <path class="fil0" d="M248.06 1068.24c-3.08,-6.75 -0.1,-14.75 6.65,-17.83 6.75,-3.08 14.75,-0.1 17.83,6.65 16.53,36.06 46.93,70.86 91.15,104.32 45.17,34.19 104.51,66.82 177.92,97.83 6.84,2.88 10.06,10.78 7.18,17.62 -2.88,6.84 -10.78,10.06 -17.62,7.18 -75.63,-31.94 -136.89,-65.66 -183.72,-101.11 -47.8,-36.17 -80.94,-74.4 -99.39,-114.66z"></path> <path class="fil0" d="M676.83 1323.72c-7.31,-1.36 -12.12,-8.41 -10.76,-15.72 1.36,-7.31 8.41,-12.12 15.72,-10.76 99.97,19.03 194.22,26.47 282.73,22.33 88.17,-4.13 170.73,-19.78 247.65,-46.95 7.01,-2.47 14.72,1.22 17.19,8.23 2.47,7.01 -1.22,14.72 -8.23,17.19 -79.34,28.02 -164.51,44.17 -255.45,48.43 -90.6,4.23 -186.9,-3.35 -288.85,-22.75z"></path> </g> </g> </svg> 