<?xml version="1.0" encoding="UTF-8"?> <!-- Creator: CorelDRAW --> <svg xmlns="http://www.w3.org/2000/svg" xmlns:xlink="http://www.w3.org/1999/xlink" xmlns:xodm="http://www.corel.com/coreldraw/odm/2003" xml:space="preserve" width="24.7442mm" height="19.9134mm" style="shape-rendering:geometricPrecision; text-rendering:geometricPrecision; image-rendering:optimizeQuality; fill-rule:evenodd; clip-rule:evenodd" viewBox="0 0 2474.42 1991.34"> <defs> <style type="text/css"> <![CDATA[ .fil3 {fill:none} .fil1 {fill:#2B2B2A} .fil2 {fill:white;fill-rule:nonzero} .fil0 {fill:#2B2B2A;fill-rule:nonzero} ]]> </style> <clipPath id="id0"> <path d="M2108.36 650.61c194.05,0 351.35,157.3 351.35,351.35 0,194.05 -157.3,351.35 -351.35,351.35 -194.05,0 -351.35,-157.3 -351.35,-351.35 0,-194.05 157.3,-351.35 351.35,-351.35z"></path> </clipPath> </defs> <g id="Слой_x0020_1"> <metadata id="CorelCorpID_0Corel-Layer"></metadata> <g id="_140167442034048"> <path class="fil0" d="M283.38 1021.68c-6.24,4.47 -14.94,3.03 -19.41,-3.21 -4.47,-6.24 -3.03,-14.94 3.21,-19.41 44.71,-32 79.88,-60.84 111.61,-86.86 83.76,-68.69 144.45,-118.45 275.98,-146.57 20.11,-4.29 55.95,-27.15 99.16,-54.68 56.91,-36.27 126.19,-80.43 194.7,-104.26 105.33,-36.64 207.38,-26.52 260.13,125.09l2.87 8.8c6.06,-14.09 15.48,-26.59 29.29,-36.23 31.84,-22.22 86.83,-28.22 178.28,-0.58 10.89,3.29 42.53,16.37 84.19,33.6 109.62,45.32 290.62,120.15 334.53,116.68 0.43,-0.03 0.42,1.27 0.22,2.78l0.11 1.42 10.52 -12.76c3.36,-0.38 4.23,0.65 4.5,0.18 0.23,-0.4 -3.83,-3.1 -9.8,-9.39 -9.85,-10.4 -25.39,-22.88 -44.51,-36.28 -86.85,-60.88 -243.58,-139.32 -289.27,-137.57l-0.17 0c-4.09,-0.18 -86.14,-5.05 -138.1,-19.22 -15.54,-4.23 -28.92,-9.43 -37.74,-15.79 -13.53,-9.74 -18.52,-21.69 -10.71,-36.25 4.39,-8.13 13.91,-16.47 29.92,-24.84 7.85,-4.11 29.69,-7.3 59.49,-11.64 68.01,-9.9 181.02,-26.37 227.97,-61.57 -23.02,4.6 -58.56,12.8 -97.64,21.8 -81.24,18.72 -177.13,40.83 -221.4,40.83 -23.26,0 -36.98,-6.63 -36.98,-22.42 0,-27.7 9.92,-48.42 26.13,-65.48 -44.16,21.96 -80.64,43.73 -92.04,61.98 -12.56,20.12 -31.3,36.3 -51.87,43.42 -9.29,3.22 -18.95,4.64 -28.52,3.83 -9.75,-0.83 -19.51,-3.95 -28.85,-9.79 -16.98,-10.54 -32.28,-30.21 -43.18,-61.72 -13.07,-37.75 -40.5,-70.79 -70.97,-98.18 8.2,13.38 16.78,28.29 25.73,44.95 8.76,16.29 16.23,29.21 22.29,39.71 18.31,31.68 26.32,45.58 15.76,60.41 -6.92,9.72 -20.04,13.77 -43.33,20.92 -22.02,6.77 -54.6,16.79 -99.78,36.61 -7.02,3.05 -15.21,-0.16 -18.26,-7.18 -3.05,-7.02 0.16,-15.21 7.18,-18.26 46.57,-20.43 80.06,-30.73 102.7,-37.69 17.53,-5.38 27.41,-8.42 28.87,-10.48 0.23,-0.32 -5.07,-9.49 -17.16,-30.41 -6.27,-10.85 -13.99,-24.21 -22.73,-40.47 -30.21,-56.21 -54.81,-90.89 -74.01,-112.19 -15.46,-9.76 -29.13,-17.58 -39.15,-23.31 -10.52,-6.02 -17.53,-10.04 -20.55,-13.19l-3.92 -9.62 2.23 -7.53c1.2,-1.86 7.42,-6.81 14.78,-6.91 3.2,-0.04 7.81,0.42 13.5,2.23 10.58,3.37 27.09,12.43 48.97,35.45 53.63,33.97 127.9,90.58 154.05,166.12 8.59,24.82 19.72,39.75 31.63,47.18 5.3,3.38 10.89,5.15 16.48,5.63 5.77,0.48 11.61,-0.37 17.22,-2.31 14.42,-4.99 27.93,-16.9 37.29,-31.9 24.1,-38.57 122.79,-82.48 206,-119.46 47.76,-21.26 90.13,-40.1 106.36,-51.36 2.89,-2.78 5.71,-5.65 8.44,-8.61l22.34 16.19c-1.54,2.74 -4.15,5.63 -7.7,8.67 -34.36,34.6 -77.68,56 -117.5,75.65 -53.81,26.55 -100.59,49.64 -100.59,97.1 0,3.81 3.39,-5.42 9.14,-5.42 41.46,0 135.51,-21.68 215.2,-40.05 68.85,-15.86 127.47,-29.38 140.45,-24.3l7.71 18.32c-27.6,65.22 -181.98,87.73 -268.37,100.31 -27.17,3.95 -47.08,6.86 -50.59,8.7 -10.74,5.62 -16.49,10.02 -18.28,13.38 -0.32,0.65 1.21,-0.24 2.45,0.65 5.92,4.26 16.26,8.13 28.82,11.55 50.23,13.69 129.02,18.26 129.57,18.24l0.17 0c50.28,-2.15 216.13,79.29 306.4,142.57 20.72,14.52 37.72,28.21 48.75,39.86 14.91,15.73 20.6,30.23 13.82,42.23 -3.02,5.33 -8.1,9.29 -15.46,11.66 -3.55,6.43 -11.02,9.88 -21.85,10.74 -50.41,3.98 -235.29,-72.45 -347.25,-118.74 -40.52,-16.76 -71.29,-29.48 -81.69,-32.62 -82.02,-24.79 -129.04,-21.01 -154.36,-3.34 -11.79,8.23 -18.9,19.84 -22.72,32.96 -4.11,14.12 -4.58,30.17 -3,46.04 4.09,41.17 18.11,78.14 20.5,79.22 155.22,69.82 206.08,144.71 256.32,218.72 30.97,45.65 61.75,90.97 118.36,134.04 63.3,48.16 101.33,114.25 116.37,180.53 10.29,45.34 9.81,90.89 -0.69,130.94 -10.71,40.85 -31.86,76.19 -62.67,100.18 -28.24,21.99 -64.34,34.34 -107.61,32.64 -21.11,-0.83 -41.14,-0.24 -59.3,0.29 -30.45,0.89 -56.02,1.64 -75.37,-4.4 -36.13,-11.28 -48.85,-40.11 -25.56,-114.66l15.29 -48.68c21.36,-67.81 31.49,-99.96 36.03,-129.93 4.09,-27.05 3.83,-53.23 3.33,-102.93 -0.23,-23.41 -0.52,-51.37 -0.52,-76.06 0,-9.26 -2.55,-19.18 -7.18,-29.45 -20.33,-45.11 -78.24,-95.19 -142.17,-134.19 -64.02,-39.06 -133.26,-66.54 -176.29,-66.54 -8.72,0 -15.99,1.14 -21.4,3.58 -47.18,21.27 -98.14,38.14 -149.58,55.16 -84.8,28.06 -171.01,56.6 -239.77,104.77 -53.55,37.53 -100.16,88.11 -146.56,138.48 -75.5,81.96 -150.58,163.44 -258.06,193.35 -93.81,26.1 -159.49,9.09 -195.88,-25.83 -17.83,-17.12 -28.67,-38.52 -32.4,-61.35 -3.69,-22.59 -0.4,-46.6 9.94,-69.21 22.36,-48.93 77.9,-91.64 166.82,-98.79 81.4,-6.54 252.18,-87.65 385.02,-150.74 51.15,-24.29 96.82,-45.98 129.44,-59.68 68.32,-28.69 111.47,-38.86 160.23,-50.36 24.83,-5.86 51.16,-12.07 82.24,-21.05 7.86,-2.27 15.9,-4.82 23.96,-7.62 41.19,-14.33 81.8,-35.25 108.09,-64.69 25.05,-28.06 37.08,-64.62 23.46,-111.77l-2.91 -9.12c-45.56,-130.96 -133.77,-139.69 -224.79,-108.03 -65.57,22.81 -133.31,65.98 -188.94,101.44 -45.59,29.05 -83.41,53.16 -108.3,58.48 -124.99,26.72 -183.44,74.65 -264.12,140.81 -32.56,26.71 -68.66,56.3 -113.03,88.06zm925.56 -182.32c-6.29,15 -15.27,28.61 -26.27,40.93 -29.89,33.48 -74.63,56.77 -119.61,72.41 -8.4,2.92 -16.92,5.62 -25.38,8.06 -32.7,9.45 -58.92,15.64 -83.66,21.47 -47.39,11.17 -89.34,21.07 -155.77,48.96 -33.12,13.91 -78.03,35.24 -128.36,59.14 -134.86,64.05 -308.24,146.39 -394.68,153.34 -77.49,6.24 -125.18,41.89 -143.78,82.59 -8.01,17.51 -10.58,35.97 -7.76,53.23 2.78,17.01 10.89,32.99 24.24,45.81 29.98,28.77 86.32,42.16 169.24,19.09 99.77,-27.76 172.19,-106.36 245.02,-185.41 47.34,-51.39 94.89,-103 151.12,-142.4 72.34,-50.69 160.36,-79.82 246.95,-108.47 50.91,-16.85 101.35,-33.54 146.86,-54.06 9.22,-4.15 20.32,-6.1 32.82,-6.1 47.94,0 122.75,29.2 190.75,70.68 68.09,41.54 130.27,95.98 153.03,146.47 6.25,13.88 9.7,27.62 9.7,40.87 0,36.28 0.22,57.84 0.4,75.84 0.51,51.49 0.79,78.61 -3.55,107.29 -4.83,31.92 -15.18,64.76 -37.01,134.05l-15.29 48.68c-16.94,54.23 -11.68,73.96 7.3,79.88 15.07,4.7 38.48,4.02 66.35,3.2 18.66,-0.54 39.25,-1.15 61.14,-0.29 36.29,1.43 66.26,-8.71 89.47,-26.78 25.82,-20.1 43.67,-50.2 52.87,-85.28 9.41,-35.89 9.79,-76.9 0.49,-117.9 -13.69,-60.36 -48.4,-120.6 -106.17,-164.55 -60.03,-45.67 -92.13,-92.94 -124.44,-140.56 -48.01,-70.72 -96.6,-142.28 -244.8,-208.94 -4.01,-1.8 -21.63,-33.27 -31.22,-71.25zm629.2 17.47l-0.36 1.99 0.47 -0.57 -0.11 -1.42z"></path> <path class="fil0" d="M2079.02 1357.5c0.83,-7.62 7.71,-13.12 15.33,-12.29 7.62,0.83 13.12,7.71 12.29,15.33 -2.83,25.01 -10.91,53 -29.44,87.23 -18.03,33.31 -46.17,72.87 -89.47,121.94 -11.74,13.31 -19.89,31.77 -28.47,51.25 -17.07,38.71 -35.77,81.1 -89.03,108.25 -39.19,19.98 -71.92,53.3 -105.59,87.6 -66.13,67.35 -135.82,138.31 -267.92,132.66 -13.8,-0.59 -55.52,4.76 -106.83,11.35 -76.86,9.85 -174.87,22.43 -237.86,22.43 -31.43,0 -81.34,2.13 -139.42,4.6 -160.47,6.82 -382.36,16.27 -436.75,-8.68 -24.59,-11.27 -49.42,-21.46 -73.89,-31.48 -86.03,-35.25 -168.09,-68.88 -238.45,-149.37 -15.87,-18.16 -26.01,-37.56 -36.1,-56.89 -17.2,-32.94 -34.35,-65.75 -82.36,-87.09l-8.21 -11.36c-0.39,-4.04 -2.15,1.31 -6.31,-3.39 -28.28,-31.98 -106.81,-120.76 -109.22,-153.18 -0.62,-8.51 -3.92,-21.66 -7.8,-37.18 -12.65,-50.56 -31.13,-124.45 4.1,-183.14 9.57,-15.95 30.48,-60.32 40.37,-101.08 5.74,-23.67 7.77,-45.38 1.2,-57.08 -26.95,-47.93 -50.06,-180.32 -56.8,-306.25 -5.83,-109.1 0.67,-214.62 27.56,-258.79 73.08,-119.98 158.37,-153.38 247.01,-188.07 62.42,-24.43 126.63,-49.57 188.07,-107.7 1.29,-1.29 102.06,-38.17 186.23,-67.67 42.1,-14.76 80.46,-28.02 100.44,-34.51 0.11,-24.8 7.37,-57.53 22.67,-84.85 16.2,-28.94 41.41,-52.2 76.85,-55.54 3.12,-0.31 5.98,-0.46 8.56,-0.46 120.27,0 163.42,21.53 207.88,43.71 44.19,22.04 89.79,44.79 226.94,44.79 14.06,0 39.47,-1.81 70.02,-3.98 94.37,-6.72 235.89,-16.78 260.93,13.25 48.52,58.2 43.8,77.91 40.37,92.26 -2.33,9.73 -3.45,14.43 121.73,97.81 42.04,28 83.88,84.58 124.05,152.29 39.27,66.2 77.45,143.92 112.53,215.48 3.36,6.87 0.51,15.18 -6.36,18.54 -6.87,3.36 -15.18,0.51 -18.54,-6.36 -34.66,-70.7 -72.39,-147.51 -111.55,-213.52 -38.27,-64.51 -77.46,-117.97 -115.45,-143.27 -141.33,-94.14 -138.75,-104.97 -133.37,-127.39 2.07,-8.67 4.92,-20.58 -34.71,-68.12 -15.86,-19.03 -148.94,-9.56 -237.67,-3.25 -31.47,2.24 -57.65,4.1 -71.98,4.1 -143.66,0 -192.25,-24.24 -239.34,-47.73 -41.47,-20.69 -81.72,-40.77 -195.48,-40.77l-5.96 0.23c-24.77,2.32 -43.03,19.75 -55.21,41.51 -12.97,23.16 -19.07,50.93 -19.07,71.83 0,3.27 0.11,6.04 0.31,8.23l-9.95 14.57c-12.79,3.71 -58.25,19.39 -109.5,37.35l-176.26 61.56c-65.61,62.03 -132.26,88.14 -197.06,113.49 -84.2,32.96 -165.24,64.69 -233.43,176.65 -23.73,38.98 -29.12,138.55 -23.54,242.91 6.55,122.27 28.26,249.52 53.32,294.09 10.52,18.72 8.74,47.42 1.52,77.18 -10.61,43.71 -33.18,91.55 -43.53,108.8 -29.29,48.8 -12.46,116.12 -0.94,162.16 4.18,16.73 7.74,30.93 8.56,41.86 1.72,23.19 75.64,106.76 102.26,136.86 3.09,3.49 5.71,6.47 7.78,9.09 54.75,25.26 73.78,61.71 92.9,98.31 9.29,17.79 18.63,35.67 32.42,51.45 66.05,75.56 145.16,107.99 228.11,141.97 24.56,10.06 49.5,20.29 74.87,31.92 48.34,22.17 266.42,12.89 424.15,6.18 59.6,-2.54 110.78,-4.72 140.5,-4.72 62.15,0 158.69,-12.39 234.38,-22.09 52.67,-6.76 95.49,-12.25 111.45,-11.57 119.82,5.1 185.08,-61.34 247,-124.4 35.33,-35.99 69.68,-70.96 112.75,-92.92 44.44,-22.66 61.05,-60.31 76.21,-94.67 9.43,-21.4 18.39,-41.7 33.15,-58.43 41.67,-47.24 68.64,-85.08 85.77,-116.72 16.62,-30.71 23.82,-55.36 26.28,-77.11z"></path> <path class="fil0" d="M1523.76 365.43c-7.11,2.82 -15.17,-0.66 -17.99,-7.77 -2.82,-7.11 0.66,-15.17 7.77,-17.99 5.05,-2.01 11.21,-8.6 17.03,-18.16 7.01,-11.51 12.8,-26.63 15.16,-43.09 2.34,-16.26 1.32,-33.69 -5.15,-49.94 -6.53,-16.38 -18.83,-31.92 -39.13,-44.29 -47.86,-29.17 -68.45,-23.57 -80.34,-4.05 -7.43,12.2 -12.96,29.81 -18.8,48.47 -16.73,53.44 -35.91,114.67 -112.67,121.55 -22.72,2.03 -46.14,28.22 -67.92,52.57 -20.3,22.71 -39.44,44.11 -60.71,49.54 -32.21,8.22 -61.52,-17.65 -87.98,-121.3 -28.62,-112.15 -74.94,-185.63 -107.53,-215.43 -9.09,-8.25 -15.77,-12.45 -19.23,-12.36 -1.7,0.04 2.78,1.05 2.86,3.32 0.7,19.61 16.19,59.07 54.95,120.58 1.53,2.42 2.06,2.99 2.36,3.31 1.27,1.35 2.09,2.27 3.13,4.4 1.03,2.21 1.35,3.54 2.24,7.04l0.75 2.95 -13.48 17.34 -8.42 0c-7.68,0 -13.92,-6.24 -13.92,-13.92 0,-3.07 1,-5.91 2.69,-8.21 -40.76,-65.03 -57.18,-108.97 -58.02,-132.51 -0.75,-21.02 8.3,-31.58 24.1,-32.02 10.61,-0.3 24.17,6.33 38.67,19.57 35.57,32.55 85.7,111.13 115.81,229.1 21.17,82.92 38.17,105.27 54.18,101.18 13.18,-3.36 29.54,-21.65 46.89,-41.06 25.3,-28.29 52.5,-58.69 86.18,-61.71 58.18,-5.21 74.41,-57 88.55,-102.19 6.36,-20.32 12.39,-39.51 21.62,-54.67 20.49,-33.63 51.85,-45.81 118.5,-5.19 25.9,15.78 41.79,36.09 50.43,57.77 8.45,21.22 9.84,43.54 6.89,64.08 -2.92,20.35 -10.17,39.2 -18.96,53.63 -8.86,14.55 -19.88,25.22 -30.51,29.46z"></path> <path class="fil1" d="M2108.36 650.61c194.05,0 351.35,157.3 351.35,351.35 0,194.05 -157.3,351.35 -351.35,351.35 -194.05,0 -351.35,-157.3 -351.35,-351.35 0,-194.05 157.3,-351.35 351.35,-351.35z"></path> <g style="clip-path:url(#id0)"> <g> <path id="_1" class="fil2" d="M1749.31 258.24c-9.38,404.84 -15.22,720.92 -3.59,1042.67 11.63,321.53 40.76,648.93 101.26,1076.61l-19.76 2.74c-60.59,-428.27 -89.76,-756.31 -101.42,-1078.65 -11.64,-322.15 -5.8,-638.54 3.59,-1043.77l19.92 0.4z"></path> <path class="fil2" d="M3231.3 662.33c-404.41,-24.39 -720.17,-41.95 -1041.77,-42.22 -321.74,-0.27 -649.98,16.69 -1079.63,61.33l-2.04 -19.84c430.21,-44.69 759.1,-61.69 1081.67,-61.41 322.71,0.28 638.56,17.84 1042.95,42.22l-1.18 19.92z"></path> <path class="fil2" d="M2499.69 224.62c-41.33,327.23 -31.83,625.53 -21.12,962.56 10.53,330.88 22.25,699.07 -11.61,1168.56l-19.92 -1.4c33.81,-468.87 22.11,-836.32 11.61,-1166.54 -10.74,-337.82 -20.26,-636.81 21.28,-965.68l19.76 2.5z"></path> <path class="fil2" d="M3237.15 1413.44c-325.59,-53.44 -623.99,-55.01 -961.12,-56.77 -331.03,-1.73 -699.39,-3.66 -1167.32,-54.88l2.1 -19.84c467.26,51.15 834.91,53.08 1165.3,54.8 338.04,1.77 637.24,3.34 964.24,57.01l-3.2 19.68z"></path> <path class="fil2" d="M1833.47 259.33c-9.38,404.84 -15.22,720.92 -3.59,1042.66 11.63,321.54 40.76,648.94 101.26,1076.62l-19.76 2.74c-60.59,-428.27 -89.76,-756.31 -101.42,-1078.66 -11.64,-322.14 -5.8,-638.53 3.59,-1043.76l19.92 0.4z"></path> <path class="fil2" d="M3227.1 746.39c-404.41,-24.39 -720.18,-41.95 -1041.77,-42.22 -321.74,-0.27 -649.99,16.69 -1079.63,61.33l-2.04 -19.84c430.2,-44.69 759.1,-61.69 1081.67,-61.41 322.7,0.28 638.56,17.84 1042.95,42.22l-1.18 19.92z"></path> <path class="fil2" d="M1888.96 252.83c-9.38,404.84 -15.23,720.93 -3.59,1042.67 11.63,321.53 40.75,648.94 101.26,1076.61l-19.76 2.74c-60.6,-428.26 -89.76,-756.3 -101.42,-1078.65 -11.65,-322.14 -5.8,-638.54 3.59,-1043.77l19.92 0.4z"></path> <path class="fil2" d="M3231.54 802.08c-404.41,-24.39 -720.18,-41.94 -1041.78,-42.21 -321.74,-0.27 -649.98,16.69 -1079.63,61.33l-2.04 -19.84c430.21,-44.69 759.1,-61.69 1081.67,-61.41 322.71,0.28 638.57,17.83 1042.96,42.21l-1.18 19.92z"></path> <path class="fil2" d="M1948.51 252.83c-9.38,404.84 -15.22,720.92 -3.59,1042.67 11.63,321.53 40.76,648.94 101.27,1076.61l-19.76 2.74c-60.6,-428.27 -89.77,-756.31 -101.43,-1078.65 -11.64,-322.15 -5.8,-638.54 3.59,-1043.77l19.92 0.4z"></path> <path class="fil2" d="M3229.33 861.59c-404.41,-24.38 -720.18,-41.94 -1041.77,-42.21 -321.74,-0.27 -649.99,16.69 -1079.63,61.33l-2.04 -19.84c430.2,-44.69 759.1,-61.69 1081.67,-61.41 322.7,0.28 638.56,17.84 1042.95,42.21l-1.18 19.92z"></path> <path class="fil2" d="M2018 262.17c-9.39,404.84 -15.23,720.93 -3.59,1042.67 11.62,321.53 40.75,648.94 101.26,1076.61l-19.76 2.74c-60.6,-428.27 -89.77,-756.31 -101.42,-1078.65 -11.65,-322.14 -5.81,-638.54 3.59,-1043.77l19.92 0.4z"></path> <path class="fil2" d="M3217.42 930.68c-404.41,-24.38 -720.17,-41.94 -1041.77,-42.21 -321.74,-0.27 -649.98,16.69 -1079.63,61.33l-2.04 -19.84c430.21,-44.69 759.1,-61.69 1081.67,-61.41 322.71,0.28 638.56,17.84 1042.95,42.21l-1.18 19.92z"></path> <path class="fil2" d="M2081.29 271.58c-9.38,404.84 -15.22,720.92 -3.59,1042.67 11.63,321.53 40.76,648.93 101.26,1076.61l-19.76 2.74c-60.59,-428.27 -89.76,-756.31 -101.42,-1078.65 -11.64,-322.15 -5.8,-638.54 3.59,-1043.77l19.92 0.4z"></path> <path class="fil2" d="M3205.68 993.59c-404.41,-24.39 -720.18,-41.95 -1041.78,-42.22 -321.73,-0.27 -649.98,16.69 -1079.62,61.33l-2.04 -19.84c430.2,-44.69 759.1,-61.69 1081.66,-61.41 322.71,0.28 638.57,17.84 1042.96,42.22l-1.18 19.92z"></path> <path class="fil2" d="M2152.04 249.76c-9.39,404.84 -15.23,720.93 -3.59,1042.66 11.62,321.54 40.75,648.95 101.26,1076.62l-19.76 2.74c-60.6,-428.27 -89.77,-756.31 -101.42,-1078.66 -11.65,-322.13 -5.81,-638.53 3.59,-1043.76l19.92 0.4z"></path> <path class="fil2" d="M3224.87 1065.09c-404.41,-24.39 -720.18,-41.95 -1041.78,-42.22 -321.74,-0.27 -649.98,16.69 -1079.63,61.33l-2.04 -19.84c430.21,-44.69 759.1,-61.69 1081.67,-61.41 322.71,0.28 638.57,17.84 1042.96,42.22l-1.18 19.92z"></path> <path class="fil2" d="M2183.88 246.56c-9.39,404.84 -15.23,720.93 -3.59,1042.67 11.62,321.53 40.75,648.94 101.26,1076.61l-19.76 2.74c-60.6,-428.27 -89.77,-756.31 -101.42,-1078.65 -11.65,-322.14 -5.81,-638.54 3.59,-1043.77l19.92 0.4z"></path> <path class="fil2" d="M3226.88 1097.03c-404.41,-24.39 -720.17,-41.95 -1041.77,-42.22 -321.74,-0.27 -649.98,16.69 -1079.63,61.33l-2.04 -19.84c430.21,-44.69 759.1,-61.69 1081.67,-61.41 322.71,0.28 638.56,17.84 1042.95,42.22l-1.18 19.92z"></path> <path class="fil2" d="M2251.23 251.49c-9.39,404.84 -15.23,720.93 -3.59,1042.67 11.62,321.53 40.75,648.94 101.26,1076.61l-19.76 2.74c-60.6,-428.27 -89.77,-756.31 -101.42,-1078.65 -11.65,-322.14 -5.81,-638.54 3.59,-1043.77l19.92 0.4z"></path> <path class="fil2" d="M3219.46 1164.15c-404.41,-24.39 -720.17,-41.95 -1041.77,-42.22 -321.74,-0.27 -649.98,16.69 -1079.63,61.33l-2.04 -19.84c430.21,-44.69 759.1,-61.69 1081.67,-61.41 322.71,0.28 638.56,17.84 1042.95,42.22l-1.18 19.92z"></path> <path class="fil2" d="M2316.29 255.05c-9.39,404.84 -15.23,720.93 -3.59,1042.67 11.62,321.53 40.75,648.94 101.26,1076.61l-19.76 2.74c-60.6,-428.27 -89.77,-756.31 -101.42,-1078.65 -11.65,-322.14 -5.81,-638.54 3.59,-1043.77l19.92 0.4z"></path> <path class="fil2" d="M3213.5 1229.03c-404.41,-24.39 -720.18,-41.94 -1041.78,-42.21 -321.74,-0.27 -649.98,16.69 -1079.63,61.33l-2.04 -19.84c430.21,-44.69 759.1,-61.69 1081.67,-61.41 322.71,0.28 638.57,17.83 1042.96,42.21l-1.18 19.92z"></path> <path class="fil2" d="M2378.88 269.04c-9.38,404.84 -15.22,720.92 -3.59,1042.66 11.63,321.54 40.76,648.94 101.26,1076.62l-19.76 2.74c-60.59,-428.27 -89.76,-756.31 -101.42,-1078.66 -11.64,-322.14 -5.8,-638.53 3.59,-1043.76l19.92 0.4z"></path> <path class="fil2" d="M3197.2 1291.07c-404.41,-24.39 -720.17,-41.95 -1041.77,-42.22 -321.74,-0.27 -649.98,16.69 -1079.63,61.33l-2.04 -19.84c430.21,-44.69 759.1,-61.69 1081.67,-61.41 322.71,0.28 638.56,17.84 1042.95,42.22l-1.18 19.92z"></path> <path class="fil2" d="M2446.79 211.03c-9.39,404.84 -15.23,720.93 -3.59,1042.66 11.62,321.54 40.75,648.95 101.26,1076.62l-19.76 2.74c-60.6,-428.27 -89.77,-756.31 -101.42,-1078.66 -11.65,-322.13 -5.81,-638.53 3.59,-1043.76l19.92 0.4z"></path> <path class="fil2" d="M3252.66 1361.07c-404.41,-24.38 -720.18,-41.94 -1041.78,-42.21 -321.74,-0.27 -649.98,16.69 -1079.63,61.33l-2.04 -19.84c430.21,-44.69 759.1,-61.69 1081.67,-61.41 322.71,0.28 638.57,17.84 1042.96,42.21l-1.18 19.92z"></path> <path class="fil2" d="M2516.41 217.86c-9.38,404.84 -15.22,720.92 -3.59,1042.66 11.63,321.54 40.76,648.94 101.26,1076.62l-19.76 2.74c-60.59,-428.27 -89.76,-756.31 -101.42,-1078.66 -11.64,-322.14 -5.8,-638.53 3.59,-1043.76l19.92 0.4z"></path> <path class="fil2" d="M3243.25 1430.4c-404.41,-24.39 -720.17,-41.95 -1041.77,-42.22 -321.74,-0.27 -649.98,16.69 -1079.63,61.33l-2.04 -19.84c430.21,-44.69 759.1,-61.69 1081.67,-61.41 322.71,0.28 638.56,17.84 1042.95,42.22l-1.18 19.92z"></path> <path class="fil2" d="M2428.29 231.11c-41.33,327.24 -31.84,625.56 -21.12,962.6 10.52,330.87 22.24,699.03 -11.62,1168.52l-19.92 -1.4c33.81,-468.86 22.11,-836.29 11.62,-1166.5 -10.75,-337.83 -20.26,-636.84 21.28,-965.72l19.76 2.5z"></path> <path class="fil2" d="M3233.31 1341.84c-325.59,-53.44 -623.99,-55.01 -961.12,-56.76 -331.03,-1.73 -699.39,-3.66 -1167.32,-54.88l2.1 -19.84c467.26,51.15 834.91,53.08 1165.3,54.8 338.05,1.76 637.25,3.33 964.24,57l-3.2 19.68z"></path> <path class="fil2" d="M2364.46 227.84c-41.33,327.24 -31.84,625.55 -21.12,962.59 10.53,330.87 22.24,699.06 -11.61,1168.53l-19.92 -1.4c33.8,-468.85 22.11,-836.3 11.61,-1166.51 -10.75,-337.83 -20.26,-636.83 21.28,-965.71l19.76 2.5z"></path> <path class="fil2" d="M3238.94 1278.18c-325.59,-53.44 -623.99,-55.01 -961.12,-56.76 -331.03,-1.73 -699.39,-3.66 -1167.32,-54.88l2.1 -19.84c467.26,51.15 834.91,53.08 1165.3,54.8 338.05,1.76 637.25,3.33 964.24,57l-3.2 19.68z"></path> <path class="fil2" d="M2301.6 224.55c-41.33,327.24 -31.84,625.55 -21.12,962.59 10.52,330.87 22.24,699.03 -11.62,1168.52l-19.92 -1.4c33.81,-468.86 22.11,-836.29 11.62,-1166.5 -10.75,-337.83 -20.26,-636.83 21.28,-965.71l19.76 2.5z"></path> <path class="fil2" d="M3244.56 1215.48c-325.6,-53.44 -624,-55.01 -961.15,-56.77 -331.02,-1.72 -699.37,-3.66 -1167.29,-54.87l2.1 -19.84c467.26,51.14 834.89,53.08 1165.27,54.79 338.06,1.77 637.26,3.34 964.27,57.01l-3.2 19.68z"></path> <path class="fil2" d="M2236.68 221.25c-41.33,327.24 -31.84,625.55 -21.12,962.59 10.52,330.87 22.24,699.04 -11.62,1168.53l-19.92 -1.4c33.81,-468.86 22.11,-836.3 11.62,-1166.51 -10.75,-337.83 -20.26,-636.83 21.28,-965.71l19.76 2.5z"></path> <path class="fil2" d="M3250.26 1150.73c-325.6,-53.44 -624,-55.01 -961.15,-56.77 -331.02,-1.73 -699.37,-3.66 -1167.29,-54.88l2.1 -19.84c467.25,51.15 834.89,53.08 1165.27,54.8 338.06,1.77 637.26,3.34 964.27,57.01l-3.2 19.68z"></path> <path class="fil2" d="M2118.11 250.22c-9.39,404.84 -15.23,720.93 -3.59,1042.67 11.62,321.53 40.75,648.94 101.26,1076.61l-19.76 2.74c-60.6,-428.27 -89.77,-756.31 -101.42,-1078.65 -11.65,-322.14 -5.81,-638.54 3.59,-1043.77l19.92 0.4z"></path> <path class="fil2" d="M3225.66 1031.17c-404.41,-24.39 -720.18,-41.95 -1041.78,-42.22 -321.74,-0.27 -649.98,16.69 -1079.63,61.33l-2.04 -19.84c430.21,-44.69 759.1,-61.69 1081.67,-61.41 322.71,0.28 638.57,17.84 1042.96,42.22l-1.18 19.92z"></path> <path class="fil2" d="M2050.01 242.54c-9.39,404.84 -15.23,720.93 -3.59,1042.67 11.62,321.53 40.75,648.94 101.26,1076.61l-19.76 2.74c-60.6,-428.27 -89.77,-756.31 -101.42,-1078.65 -11.65,-322.14 -5.81,-638.54 3.59,-1043.77l19.92 0.4z"></path> <path class="fil2" d="M3235.86 963.4c-404.41,-24.39 -720.18,-41.95 -1041.78,-42.22 -321.74,-0.27 -649.98,16.69 -1079.63,61.33l-2.04 -19.84c430.21,-44.69 759.1,-61.69 1081.67,-61.41 322.71,0.28 638.57,17.84 1042.96,42.22l-1.18 19.92z"></path> <path class="fil2" d="M1983.78 242.54c-9.38,404.84 -15.22,720.92 -3.59,1042.67 11.63,321.53 40.76,648.94 101.27,1076.61l-19.76 2.74c-60.6,-428.27 -89.77,-756.31 -101.43,-1078.65 -11.64,-322.15 -5.8,-638.54 3.59,-1043.77l19.92 0.4z"></path> <path class="fil2" d="M3238.31 897.22c-404.41,-24.39 -720.18,-41.94 -1041.78,-42.21 -321.74,-0.27 -649.98,16.69 -1079.63,61.33l-2.04 -19.84c430.21,-44.69 759.1,-61.69 1081.67,-61.41 322.71,0.28 638.57,17.83 1042.96,42.21l-1.18 19.92z"></path> <path class="fil2" d="M1920.65 242.54c-9.39,404.84 -15.23,720.93 -3.59,1042.67 11.62,321.53 40.75,648.94 101.26,1076.61l-19.76 2.74c-60.6,-428.27 -89.77,-756.31 -101.42,-1078.65 -11.65,-322.14 -5.81,-638.54 3.59,-1043.77l19.92 0.4z"></path> <path class="fil2" d="M3240.64 834.13c-404.41,-24.39 -720.17,-41.95 -1041.77,-42.22 -321.74,-0.27 -649.98,16.69 -1079.63,61.33l-2.04 -19.84c430.21,-44.69 759.1,-61.69 1081.67,-61.41 322.71,0.28 638.56,17.84 1042.95,42.22l-1.18 19.92z"></path> <path class="fil2" d="M1860.12 242.54c-9.39,404.84 -15.23,720.93 -3.59,1042.67 11.62,321.53 40.75,648.94 101.26,1076.61l-19.76 2.74c-60.6,-428.27 -89.77,-756.31 -101.42,-1078.65 -11.65,-322.14 -5.81,-638.54 3.59,-1043.77l19.92 0.4z"></path> <path class="fil2" d="M3242.89 773.64c-404.41,-24.39 -720.18,-41.94 -1041.78,-42.21 -321.74,-0.27 -649.98,16.69 -1079.63,61.33l-2.04 -19.84c430.21,-44.69 759.1,-61.69 1081.67,-61.41 322.71,0.28 638.57,17.83 1042.96,42.21l-1.18 19.92z"></path> <path class="fil2" d="M1800.69 242.54c-9.39,404.84 -15.23,720.93 -3.59,1042.67 11.62,321.53 40.75,648.94 101.26,1076.61l-19.76 2.74c-60.6,-428.27 -89.77,-756.31 -101.42,-1078.65 -11.65,-322.14 -5.81,-638.54 3.59,-1043.77l19.92 0.4z"></path> <path class="fil2" d="M3245.09 714.25c-404.41,-24.39 -720.18,-41.94 -1041.78,-42.21 -321.74,-0.27 -649.98,16.69 -1079.63,61.33l-2.04 -19.84c430.21,-44.69 759.1,-61.69 1081.67,-61.41 322.71,0.28 638.57,17.83 1042.96,42.21l-1.18 19.92z"></path> <path class="fil2" d="M1777.87 252.83c-9.39,404.84 -15.23,720.93 -3.59,1042.67 11.62,321.53 40.75,648.94 101.26,1076.61l-19.76 2.74c-60.6,-428.27 -89.77,-756.31 -101.42,-1078.65 -11.65,-322.14 -5.81,-638.54 3.59,-1043.77l19.92 0.4z"></path> <path class="fil2" d="M3235.65 691.06c-404.41,-24.38 -720.18,-41.94 -1041.78,-42.21 -321.74,-0.27 -649.98,16.69 -1079.63,61.33l-2.04 -19.84c430.21,-44.69 759.1,-61.69 1081.67,-61.41 322.71,0.28 638.57,17.84 1042.96,42.21l-1.18 19.92z"></path> </g> </g> <path class="fil3" d="M2108.36 650.61c194.05,0 351.35,157.3 351.35,351.35 0,194.05 -157.3,351.35 -351.35,351.35 -194.05,0 -351.35,-157.3 -351.35,-351.35 0,-194.05 157.3,-351.35 351.35,-351.35z"></path> <path class="fil0" d="M2108.36 638.66c100.33,0 191.16,40.68 256.89,106.41 65.75,65.74 106.41,156.58 106.41,256.89 0,100.33 -40.66,191.15 -106.41,256.89 -65.74,65.75 -156.56,106.41 -256.89,106.41 -100.31,0 -191.15,-40.66 -256.89,-106.41 -65.73,-65.73 -106.41,-156.56 -106.41,-256.89 0,-100.32 40.68,-191.16 106.41,-256.89 65.73,-65.73 156.57,-106.41 256.89,-106.41zm239.99 123.31c-61.41,-61.41 -146.27,-99.41 -239.99,-99.41 -93.72,0 -178.58,38 -239.99,99.41 -61.41,61.41 -99.41,146.27 -99.41,239.99 0,93.72 38,178.58 99.41,239.99 61.41,61.42 146.27,99.41 239.99,99.41 93.72,0 178.58,-37.99 239.99,-99.41 61.42,-61.41 99.41,-146.27 99.41,-239.99 0,-93.72 -37.99,-178.58 -99.41,-239.99z"></path> </g> </g> </svg> 