<?xml version="1.0" encoding="UTF-8"?> <!-- Creator: CorelDRAW --> <svg xmlns="http://www.w3.org/2000/svg" xmlns:xlink="http://www.w3.org/1999/xlink" xmlns:xodm="http://www.corel.com/coreldraw/odm/2003" xml:space="preserve" width="210mm" height="160mm" style="shape-rendering:geometricPrecision; text-rendering:geometricPrecision; image-rendering:optimizeQuality; fill-rule:evenodd; clip-rule:evenodd" viewBox="0 0 21000 16000"> <defs> <style type="text/css"> <![CDATA[ .fil0 {fill:#434342;fill-rule:nonzero} ]]> </style> </defs> <g id="Слой_x0020_1"> <metadata id="CorelCorpID_0Corel-Layer"></metadata> <g id="_140167675566352"> <path class="fil0" d="M8809.31 1333.72c-61.69,17.05 -258.95,285.58 -496.77,609.55 -306.27,417.3 -675.16,919.88 -1008.79,1138.04 -168.44,110.16 -453.52,385.08 -771.75,691.85 -458.38,441.9 -984.69,949.27 -1355.4,1149.65 -6.97,3.77 -131.22,111.98 -304.38,262.79 -387.04,337.11 -1014.23,883.45 -1248.28,1033.53 -52.11,33.31 -608.03,595.69 -1225.13,1228.11 -812.18,832.43 -1727.41,1771.54 -1727.41,1772.63 -7.99,165.54 147.03,399.16 356.12,597.72 212.35,201.61 476.74,361.86 682.27,375.64 422.75,28.38 1090.58,300.9 1826.12,600.99 820.23,334.64 1726.32,704.34 2445.32,799.12l153.93 20.25c889.4,116.63 4169.04,546.99 4336.68,630.6 7.7,4.13 107.05,6.6 277.38,21.48 497.86,43.54 1448.44,126.79 1687.94,207.13 121.92,40.86 239.35,55.3 361.71,70.25 216.34,26.42 447.93,54.72 769.65,228.17 36.14,19.53 414.91,122.65 839.39,233.98 505.92,132.74 1068.15,276.95 1190.44,305.32 7.55,-6.75 15.53,-12.12 24.02,-17.85 17.64,-11.61 41.66,-27.8 77.59,-245.66 28.74,-174.26 161.33,-494.38 314.75,-864.95 236.3,-570.5 523.48,-1263.95 541.19,-1682.2 11.47,-271.79 303.29,-938.39 656.14,-1621.02 414.55,-802.09 916.4,-1634.45 1144.79,-1872.49 163.88,-170.77 513.68,-940.13 842.3,-1765.45 334.71,-840.7 644.97,-1734.82 714.21,-2114.23 -15.9,1.66 -38.98,3.12 -75.48,-3.13 -296.32,-50.94 -936.86,-161.18 -1066.7,-206.61 -314.68,-110.17 -699.54,-204.66 -1086.37,-256.63 -338.41,-45.43 -677.7,-58.57 -971.26,-21.26 -186.52,23.66 -355.11,50.07 -510.85,74.39 -734.74,114.88 -1193.34,186.59 -2004.94,-241.24 -267.66,-141.16 -638.37,-245.16 -1025.99,-315.19 -474.27,-85.64 -972.56,-120.4 -1340.81,-110.6 -237.32,6.31 -1476.09,-258.8 -2290.52,-470.94 -212.93,-55.45 -397.05,-107.26 -526.6,-149.43 -90.64,-29.54 -160.6,-60.38 -204.51,-92.31zm-622.62 517.23c283.55,-386.24 516.08,-702.95 665,-670.08l51.82 84.63 8.49 0.79c-2.47,25.48 58.28,-18.65 150.16,11.25 128.67,41.88 309.45,92.83 517.45,146.97 805.14,209.74 2022.07,471.95 2247.7,466 377.03,-10.02 886.94,25.47 1371.88,113.07 402.5,72.72 789.1,181.65 1071.27,330.43 766.24,403.95 1205.17,335.36 1908.42,225.41 156.47,-24.38 325.85,-50.94 515.06,-74.97 308.07,-39.11 661.22,-25.83 1011.61,21.27 397.64,53.49 793.38,150.59 1116.99,263.88 116.63,40.79 749.04,149.65 1041.59,199.94 104.22,17.86 171.42,29.47 189.35,45.94l25.11 66.99c-43.04,345.45 -375.21,1313.23 -734.6,2215.91 -334.86,840.99 -696.42,1630.31 -874.67,1816.1 -218.81,228.11 -709.56,1044.71 -1118.51,1835.92 -344.22,665.94 -628.64,1308.73 -639.02,1555.56 -18.94,446.19 -311.78,1153.42 -552.8,1735.32 -149.79,361.79 -279.27,674.29 -305.03,830.84 -46.81,284.27 -103.27,322.52 -144.28,350.02l-1.23 -1.38 -57.77 48.19c-27.14,5.01 -698.97,-159.88 -1281.96,-312.79 -434.72,-114.02 -826.47,-221.72 -874.23,-247.48 -295.01,-159.01 -511.94,-185.57 -714.64,-210.32 -129.03,-15.75 -253.06,-31.06 -392.19,-77.66 -219.97,-73.8 -1159.74,-156.1 -1651.94,-199.14 -186.8,-16.4 -312.28,-27.29 -333.4,-37.67 -145.66,-72.28 -3403.82,-499.89 -4287.34,-615.72l-153.93 -20.25c-740.62,-97.61 -1655.56,-470.93 -2483.78,-808.84 -723.5,-295.23 -1380.51,-563.25 -1777.93,-589.96 -242.83,-16.32 -543.66,-194.64 -779.38,-418.46 -238.55,-226.5 -414.69,-505.19 -404.45,-718.2 1.52,-32.07 939.91,-1021.84 1771.39,-1874.08 623.78,-639.24 1189.64,-1210.25 1252.71,-1250.61 222.87,-142.9 845.71,-685.39 1229.99,-1020.17 180.27,-157.06 309.67,-269.76 332.97,-282.25 352.06,-190.29 870.02,-689.67 1321.29,-1124.68 324.26,-312.65 614.85,-592.79 794.25,-710.14 310.55,-203.07 670.08,-692.94 968.58,-1099.58zm7522.92 11568.8l-1.02 0.87 1.02 1.38c-0.07,-1.09 1.02,-5.08 0,-2.25z"></path> <path class="fil0" d="M11791.68 12477.22c-21.7,37.09 -69.53,49.5 -106.61,27.8 -37.09,-21.7 -49.5,-69.53 -27.8,-106.61l16.84 -28.6c132.3,-224.83 1007.7,-1711.66 1124.18,-1932.51 226.57,-429.42 451.85,-883.59 681.62,-1346.76 649.97,-1310.26 1336.38,-2694.03 2169.97,-3764.22 173.24,-222.36 521.3,-802.81 849.56,-1394.59 318.31,-573.91 617.02,-1157.05 718.12,-1432.32l151.32 30.91 -0.95 18.44c-0.94,18.94 -8.63,35.99 -20.61,48.91 -116.7,296.03 -405.4,857.76 -711.59,1409.83 -331.3,597.29 -684.52,1185.58 -863.05,1414.77 -823.14,1056.75 -1506.14,2433.56 -2152.85,3737.36 -231.15,465.93 -457.8,922.78 -683.36,1350.39 -114.89,217.8 -994.92,1712.61 -1127.95,1938.61l-16.84 28.59z"></path> <path class="fil0" d="M4902.56 11484.48c-42.03,-9.58 -68.3,-51.53 -58.72,-93.55 9.58,-42.02 51.53,-68.29 93.55,-58.71 350.17,80.12 745.92,275.56 1166.13,483.2 550.55,271.93 1144.79,565.57 1716.24,635.39 31.57,3.84 323.9,63.28 657.16,132.01 479.5,98.99 1051.09,222.73 1060.31,229.26 30.04,21.77 778.58,311.56 1519.34,592.64 703.76,267.08 1396.41,524.57 1455.12,534.95 328.33,58.28 761.96,195.95 1206.91,337.11 529.36,167.86 1075.48,341.17 1466.01,387.84 276.21,33.02 282.96,12.7 312.86,-79.69 31.94,-98.77 80.27,-247.55 251.62,-457.58 119.09,-146.02 883.59,-1996.02 1606.29,-3744.99 557.23,-1348.36 1089.92,-2637.42 1288.85,-3050.66 163.14,-338.85 322.16,-705.21 483.27,-1076.35 297.99,-686.7 603.53,-1390.53 937.73,-1935.85 53.35,-87.09 156.55,-283.77 203.79,-462.37 19.67,-74.17 29.25,-143.85 20.32,-196.82 -6.16,-36.58 -23.29,-64.23 -56.1,-75.48 -21.12,-7.55 -49.78,-10.24 -86.87,-7.33 -16.33,0.43 -51.53,-11.61 -90.43,-27.51l-124.75 -51.89 -27.58 -7.62c-41.51,-11.39 -65.82,-54.43 -54.43,-95.94 11.39,-41.51 54.43,-65.83 95.94,-54.43l29.76 8.2 139.7 56.82c20.47,8.35 3.92,18.15 18.08,16.77l1.52 -0.29c58.35,-4.57 108.14,1.16 149.79,15.6 95.44,32.51 143.56,104.22 159.38,197.4 12.99,76.86 1.45,168.52 -23.37,262.29 -51.82,196.02 -163.73,409.61 -221.5,503.88 -329.99,538.5 -632.78,1235.87 -928.01,1916.26 -163.94,377.67 -325.71,750.42 -485.59,1082.44 -198.35,411.94 -729.52,1697.37 -1285.22,3042.1 -727.05,1759.57 -1496.2,3620.74 -1629.52,3784.18 -152.77,187.24 -195.8,319.54 -224.18,407.14 -62.56,192.83 -76.64,235.21 -479.64,187.03 -405.11,-48.41 -958.35,-223.97 -1494.75,-394.08 -440.16,-139.64 -868.93,-275.71 -1186.73,-332.18 -67.86,-12.04 -771.9,-272.95 -1483.28,-542.93 -748.67,-284.05 -1511,-581.17 -1554.69,-611.58 -2.75,-1.81 -536.61,-107.63 -1001.16,-203.5 -326.95,-67.42 -613.83,-125.77 -644.97,-129.54 -596.56,-72.94 -1203.79,-372.89 -1766.31,-650.78 -411.5,-203.35 -798.98,-394.73 -1131.87,-470.86z"></path> <path class="fil0" d="M12283.01 13981.98c-21.7,37.09 -69.53,49.5 -106.61,27.8 -37.09,-21.7 -49.5,-69.53 -27.8,-106.61l31.5 -53.56c95.94,-163.01 405.18,-688.52 699.83,-1194 21.56,-37.3 69.38,-50 106.69,-28.45 37.3,21.56 50,69.38 28.45,106.69 -254.45,436.46 -594.82,1014.88 -700.56,1194.57l-31.5 53.56z"></path> </g> </g> </svg> 