<?xml version="1.0" standalone="no"?>
<!DOCTYPE svg PUBLIC "-//W3C//DTD SVG 20010904//EN"
 "http://www.w3.org/TR/2001/REC-SVG-20010904/DTD/svg10.dtd">
<svg version="1.0" xmlns="http://www.w3.org/2000/svg"
 width="306.000000pt" height="187.000000pt" viewBox="0 0 306.000000 187.000000"
 preserveAspectRatio="xMidYMid meet">

<g transform="translate(0.000000,187.000000) scale(0.100000,-0.100000)"
fill="#000000" stroke="none">
<path d="M203 1791 c-99 -34 -155 -95 -175 -193 -13 -65 -1 -118 39 -170 59
-76 134 -109 309 -138 90 -14 130 -38 136 -80 3 -17 2 -33 -2 -35 -13 -8 -2
-168 12 -177 20 -13 90 -5 99 12 4 8 13 48 19 88 8 48 17 75 27 79 9 3 263
-33 567 -81 303 -47 628 -98 721 -112 217 -31 226 -34 192 -62 -7 -6 -262 -49
-567 -96 -844 -131 -898 -139 -913 -133 -9 3 -20 33 -28 79 -17 99 -22 108
-67 108 -62 0 -64 -4 -60 -129 4 -149 8 -146 -207 -185 -107 -20 -159 -43
-209 -94 -70 -69 -88 -135 -62 -223 32 -113 127 -179 265 -187 130 -7 240 51
287 152 28 61 29 90 7 213 -19 106 -16 114 52 144 39 17 449 83 1352 219 l403
60 286 0 c293 0 324 4 324 39 0 28 -23 34 -145 37 -60 1 -119 3 -129 3 -11 1
-16 4 -12 8 3 4 64 7 134 8 70 0 133 4 140 8 18 12 14 45 -7 57 -12 6 -126 10
-299 10 -249 0 -298 3 -439 25 -87 13 -327 49 -533 80 -1034 153 -1092 164
-1129 209 -12 14 -12 30 2 109 22 123 21 152 -7 213 -59 126 -232 188 -383
135z m208 -13 c52 -17 117 -65 144 -107 34 -51 40 -112 21 -205 -9 -43 -16
-91 -16 -106 0 -35 45 -75 99 -90 77 -20 633 -108 1445 -226 l470 -69 18 -31
c17 -30 23 -32 96 -38 42 -3 128 -6 190 -7 79 -1 112 -5 109 -13 -5 -14 -399
-20 -625 -11 l-154 7 -18 43 c-21 50 -21 50 -160 69 -58 8 -292 44 -520 80
-786 124 -855 134 -917 141 -47 5 -62 11 -66 25 -8 32 -57 53 -180 77 -66 12
-139 32 -163 43 -90 44 -154 147 -140 228 12 79 84 156 173 188 47 16 149 18
194 2z m206 -584 c38 -10 15 -34 -33 -34 -37 0 -44 3 -44 20 0 21 30 26 77 14z
m3 -70 c0 -9 -11 -14 -29 -14 -39 0 -61 9 -55 24 6 17 84 8 84 -10z m-10 -51
c0 -11 -9 -13 -36 -10 -39 5 -49 11 -41 24 9 15 77 3 77 -14z m-3 -47 c-2 -6
-20 -12 -40 -14 -30 -3 -37 0 -37 15 0 16 6 18 40 15 25 -3 39 -9 37 -16z
m2031 -38 c17 -17 15 -28 -6 -28 -11 0 -27 9 -37 20 -18 19 -17 20 6 20 14 0
30 -5 37 -12z m349 -5 c3 -8 -36 -11 -138 -12 -78 -1 -146 -4 -150 -6 -11 -8
-37 5 -43 21 -5 12 19 14 161 12 114 -2 168 -7 170 -15z m-330 -49 c-3 -3 -12
-4 -19 -1 -8 3 -5 6 6 6 11 1 17 -2 13 -5z m-473 -49 c5 -21 12 -25 49 -26
l42 -1 -43 -11 c-40 -9 -45 -8 -70 17 -23 22 -25 28 -12 36 22 14 27 12 34
-15z m-44 -20 c13 -14 22 -26 19 -28 -2 -2 -254 -41 -559 -87 -638 -95 -890
-135 -942 -150 -54 -15 -98 -56 -98 -90 0 -15 7 -63 16 -106 27 -132 2 -210
-88 -272 -59 -40 -100 -52 -172 -52 -105 1 -197 49 -242 126 -50 85 -40 166
27 239 55 60 104 81 248 109 182 34 196 51 185 214 l-6 93 38 -3 38 -3 12 -71
c16 -95 22 -112 42 -116 9 -2 98 9 197 25 205 32 1247 195 1256 196 3 1 16
-10 29 -24z"/>
<path d="M227 1742 c-129 -46 -183 -163 -124 -267 28 -49 111 -101 176 -111
104 -16 215 34 258 117 88 165 -111 332 -310 261z m210 -31 c88 -44 127 -145
85 -221 -23 -43 -107 -95 -166 -104 -94 -14 -200 34 -238 108 -48 94 9 197
132 237 42 14 142 3 187 -20z"/>
<path d="M237 496 c-108 -39 -162 -110 -155 -203 6 -66 43 -117 111 -151 202
-100 434 63 346 244 -47 98 -189 150 -302 110z m206 -44 c68 -37 92 -74 92
-143 0 -45 -5 -62 -28 -92 -111 -146 -385 -94 -404 75 -17 152 183 246 340
160z"/>
</g>
</svg>
