<?xml version="1.0" encoding="UTF-8"?> <!-- Creator: CorelDRAW --> <svg xmlns="http://www.w3.org/2000/svg" xmlns:xlink="http://www.w3.org/1999/xlink" xmlns:xodm="http://www.corel.com/coreldraw/odm/2003" xml:space="preserve" width="210mm" height="100mm" style="shape-rendering:geometricPrecision; text-rendering:geometricPrecision; image-rendering:optimizeQuality; fill-rule:evenodd; clip-rule:evenodd" viewBox="0 0 21000 10000"> <defs> <style type="text/css"> <![CDATA[ .fil0 {fill:#2B2B2A;fill-rule:nonzero} ]]> </style> </defs> <g id="Слой_x0020_1"> <metadata id="CorelCorpID_0Corel-Layer"></metadata> <path class="fil0" d="M20428.94 2424.87l15.82 58.15 -47.72 67.14 -2420.69 161.4c-26.67,1.76 -52.31,-2.4 -75.85,-12.13 -23.5,-9.74 -44.63,-24.92 -62.39,-45.16 -17.79,-20.32 -30.14,-43.17 -36.66,-67.57 -4.46,-16.81 -6.26,-34.26 -5.27,-52.01l-3246.1 -175.59c-255.47,-13.81 -524.75,-16.38 -782.97,29.93 -255.13,45.79 -501.21,139.74 -714.92,318.59 -9.9,8.27 -16.8,18.56 -20.11,29.5 -3.34,11.06 -3.38,23.49 0.22,35.93l261.34 897.37c47.34,168.51 -13.93,301.26 -115.21,380.42 -42.71,33.36 -92.83,57.07 -144.72,69.46 -52.18,12.48 -106.77,13.72 -158.18,2.36 -113.11,-24.96 -210.02,-108.74 -235.79,-264.22 -43.56,-236.52 -156.93,-569.17 -223.95,-811.87 -2.45,-8.87 -6.26,-16.55 -11.2,-22.64 -5.23,-6.47 -11.87,-11.83 -19.89,-16.03 -8.15,-4.21 -16.38,-6.65 -24.48,-7.25 -8.28,-0.6 -16.73,0.56 -25.22,3.43l-345.47 120.27c-15.48,5.36 -27.7,16.26 -34.78,29.59 -7.07,13.25 -9.26,29.42 -5.1,45.32 42.28,160.63 137.34,449.12 157.28,598.51 43.82,197.07 -56.86,393.24 -250.5,453.61 -50.94,15.87 -105.05,20.2 -157.62,11.02 -110.03,-19.21 -212.94,-96.22 -268.08,-248.52 -56.04,-211.74 -113.63,-423.65 -170.1,-635.38 -4.37,-16.34 -14.88,-29.55 -28.21,-37.52 -13.42,-8.02 -30.02,-11.06 -46.53,-7.21 -2828.88,664.67 -5649.24,1138.44 -8516.59,1592.18 -13.12,2.06 -24.91,7.29 -33.7,14.97 -5.96,5.23 -10.76,11.87 -13.68,19.63 11.53,7.72 31.17,14.33 55.49,20.2l8377.49 1873.59c16.21,3.56 32.29,0.73 45.32,-6.9 13.12,-7.85 23.5,-20.41 28.17,-35.94 83.27,-276.39 175.55,-671.91 280.43,-926.56 54.8,-125.08 166.5,-187.17 286.17,-197.72 57.59,-4.89 117.23,2.19 172.8,20.03 55.83,17.92 108.23,47.03 151.11,85.8 84.3,76.15 131.9,188.19 100.38,325.75 -85.63,275.97 -158.1,572.69 -235.53,852.86 -3.78,13.68 -3.05,27.44 1.5,39.36 4.46,11.62 13.12,22.21 25.17,29.84l339.51 216.24c8.49,5.4 17.62,8.71 26.76,9.69 9.04,0.95 18.65,-0.34 28.25,-3.81 9.65,-3.52 17.8,-8.71 24.06,-15.23 6.13,-6.43 10.93,-14.66 13.98,-24.39 79.8,-252.73 224.25,-831.3 328.62,-1034.8 59.9,-125.38 164.36,-191.02 274.38,-207.23 57.67,-8.54 117.1,-3.13 172.29,14.58 55.36,17.75 106.64,48.15 147.85,89.4 75.21,75.25 117.18,185.84 90.98,321.85 -46.22,277.42 -234.24,786.57 -322.36,1081.23 -2.61,8.7 -3.43,17.19 -2.57,25.26 0.99,8.06 3.82,16.2 8.32,24.01 4.59,7.93 10.2,14.36 16.63,19.12 6.35,4.72 14.15,8.19 23.16,10.29 237.46,55.57 829.4,227.77 1032.52,239.95l3613.14 -47.42c16.34,-0.17 31.35,-6.78 42.41,-17.32 10.93,-10.42 18.09,-25 19.04,-41.3l5.91 -100.89 59.43 -49.83 2632.72 318.38 44.81 68.18 -14.45 48.11c-9.99,33.27 -29.07,61.48 -54.33,82.28 -25.17,20.71 -56.47,33.96 -91.03,37.35 -1719.83,168.81 -4295.73,580.62 -5924.52,580.62 -31.9,47.68 -72.13,75 -119.42,84.77 -52.78,10.85 -110.63,-1.76 -172.5,-33.19l-10.55 -4.16 -10.55 -2.14 -89.19 -10.16c-7.29,-0.82 -14.02,-0.65 -19.98,0.6 -6.43,1.41 -12.69,3.9 -18.74,7.42 -55.57,32.63 -115,44.08 -168.51,34.47 -55.18,-9.86 -103.38,-41.51 -134.98,-94.55 -4.93,-8.23 -10.76,-14.75 -17.37,-19.42 -6.64,-4.72 -14.58,-8.1 -23.37,-9.91l-19.38 -3.6c-13.33,-2.57 -26.93,-5.19 -40.99,-8.66 -7.38,-1.8 -14.32,-2.44 -20.8,-1.84 -6.17,0.55 -12.86,2.48 -19.98,5.7 -51.67,23.37 -107.24,28.39 -159.08,12.35 -48.07,-14.92 -91.89,-47.51 -124.99,-99.65 -4.85,-7.51 -10.33,-13.51 -16.29,-17.75 -5.92,-4.29 -13.34,-7.51 -21.96,-9.52l-22.9 -5.41c-8.36,-1.97 -16.33,-2.44 -23.66,-1.37 -7.38,1.07 -14.76,3.73 -21.92,7.85l-12.56 6.52c-41.38,19.81 -93.35,25.08 -140.98,13.85 -49.44,-11.67 -95.71,-40.87 -123.8,-89.45l-6.73 -12.48c-4.16,-9 -9.86,-16.33 -16.55,-21.86 -6.82,-5.41 -15.05,-9.48 -24.35,-11.84l-21.4 -5.4c-8.49,-2.19 -16.51,-2.79 -23.71,-1.89 -7.38,1.03 -14.97,3.69 -22.39,7.89 -19.81,11.06 -41.97,19.13 -64.49,23.11 -33.23,5.92 -69.29,3.73 -102.6,-9.17 -34.48,-13.38 -65.44,-37.78 -86.83,-75.6 -5.88,-10.59 -11.02,-21.87 -15.23,-34.09 -15.52,-4.46 -21.01,-6.64 -36.01,-13.12 -24.79,-12.43 -60.51,-33.49 -85.25,-42.23 -7.84,6.17 -16.03,11.66 -24.57,16.42 -33.87,19.17 -72.12,26.63 -109.25,23.11 -37.22,-3.52 -73.24,-18.18 -102.53,-43.26 -16.03,-13.72 -30.18,-30.58 -41.12,-50.13 -3.73,-6.95 -8.7,-12.91 -14.62,-17.75 -5.79,-4.72 -12.65,-8.41 -20.41,-10.93 -15.91,-7.98 -54.45,-18.27 -73.58,-24.66 -7.76,-2.49 -15.31,-3.6 -22.55,-3.26 -7.16,0.3 -14.54,2.14 -21.96,5.36 -51.37,22.25 -100.85,20.5 -143.6,3.52 -47.59,-18.87 -85.93,-56.95 -108.31,-101.07 -4.29,-8.23 -9.6,-15.05 -15.82,-20.19 -6.18,-5.19 -13.77,-9.14 -22.56,-11.67l-52.35 -14.88c-7.46,-2.1 -14.41,-3.04 -20.71,-2.7 -6.35,0.35 -13.21,2.02 -20.37,4.93 -52.1,21.06 -101.79,22.6 -145.83,8.71 -47,-14.88 -86.53,-47.13 -114.79,-91.55 -9.13,-14.06 -21.78,-23.2 -37.9,-27.14l-52.96 -13.04c-6.81,-1.67 -13.46,-2.27 -19.81,-1.8 -6.26,0.47 -12.65,2.1 -19.12,4.76 -49.74,20.63 -100.98,23.71 -145.92,10.81 -46.86,-13.47 -86.78,-43.78 -111.65,-88.98 -4.42,-8.06 -9.69,-14.53 -15.7,-19.21 -6.3,-4.75 -13.89,-8.44 -22.77,-10.84l-36.49 -9.91c-8.83,-2.36 -17.15,-3.09 -24.74,-2.06 -7.89,0.99 -15.65,3.82 -23.28,8.28l-6 3.6c-46.7,24.78 -99.91,24.87 -147.16,8.1 -45.41,-16.07 -86.23,-48.49 -110.24,-89.57l-3.91 -6.77c-4.07,-7.72 -9.26,-14.2 -15.18,-19.09 -6.17,-4.84 -13.5,-8.66 -21.91,-11.19l-36.32 -10.8c-8.61,-2.57 -16.85,-3.48 -24.52,-2.7 -7.55,0.73 -15.31,3.3 -23.16,7.5l-8.7 4.29c-50.64,24.31 -106.13,25.47 -154.54,9.73 -48.84,-15.86 -91.29,-49.35 -115.25,-93.86l-3.74 -7.55c-4.2,-8.79 -9.94,-16.16 -16.8,-21.74 -6.69,-5.44 -15.01,-9.47 -24.57,-11.79l-77.53 -18.99c-8.19,-1.98 -15.95,-2.49 -23.15,-1.59 -7.21,0.9 -14.58,3.47 -21.91,7.46l-6.78 3.69c-44.08,21.95 -92.02,25.47 -134.42,13.42 -43.48,-12.35 -81.34,-41.08 -104.28,-82.97l-3.22 -6.3c-4.03,-8.15 -9.43,-15.05 -15.78,-20.29 -6.39,-5.27 -14.19,-9.3 -23.07,-11.79l-44.98 -12.69c-8.45,-2.4 -16.81,-3.09 -24.65,-2.19 -7.81,0.99 -15.66,3.73 -23.33,8.11l-3.69 2.01c-47.21,25.52 -100.93,26.42 -147.97,11.32 -46.57,-14.88 -87.69,-46.31 -110.03,-85.37l-1.59 -3.09c-4.11,-7.59 -9,-13.8 -14.45,-18.39 -5.44,-4.59 -12.43,-8.36 -20.71,-11.15l-29.37 -9.99c-9.78,-3.26 -19.42,-4.33 -28.51,-3.13 -8.62,1.11 -17.54,4.72 -26.29,10.55 -8.83,5.7 -17.58,10.59 -26.24,14.41 -43.18,18.95 -90.99,19.08 -134.08,4.71 -42.19,-14.02 -80.49,-42.19 -105.83,-80.1 -6.3,-9.47 -11.83,-19.29 -16.16,-29.11 -3.82,-9.05 -9.39,-16.64 -16.25,-22.47 -6.56,-5.62 -14.93,-9.86 -24.62,-12.39l-258.21 -68.39 -3.43 -13.72c-2356.45,-697.73 -4647.94,-1241.6 -7044.44,-1833.59l-7.5 -1.33 -1059.53 -0.38c-23.42,0 -45.76,-4.55 -66.6,-13.47 -20.75,-8.87 -39.49,-21.99 -55.78,-39.15 -16.29,-17.06 -28.43,-36.36 -36.28,-57.54 -7.89,-21.18 -11.23,-43.74 -10.07,-67.19l13.16 -263.49c2.19,-43.57 20.63,-82.67 49.35,-111.36 28.52,-28.77 67.75,-47.08 111.4,-49.14 2813.07,-133.99 5673.73,-1010.05 8404.21,-1640.11 9.86,-2.27 18.52,-6.39 25.43,-12.01 6.94,-5.61 12.77,-13.29 17.02,-22.47 4.63,-10.16 10.55,-20.19 17.45,-29.92 25.86,-36.32 63.98,-62.61 105.74,-74.96 42.54,-12.52 89.32,-10.97 131.42,8.62 9.95,4.68 19.56,10.29 28.6,16.68 8.32,5.92 17.2,9.69 26.07,11.15 8.71,1.42 18.36,0.6 28.35,-2.4l27.65 -8.36c8.41,-2.45 15.44,-6.05 21.06,-10.55 5.83,-4.67 10.97,-10.93 15.26,-18.48l2.58 -4.46c23.19,-37.86 64.44,-67.32 110.71,-80.36 46.35,-13.03 99.05,-10.29 145.57,16.04l5.28 3.05c7.67,4.71 15.43,7.67 22.85,8.87 7.98,1.03 16.38,0.6 24.91,-1.5l42.97 -10.63c9.39,-2.32 17.45,-6.09 23.8,-11.11 6.43,-5.23 12,-12.22 16.42,-20.75l4.41 -7.51c23.55,-40.22 61.36,-66.97 104.54,-77.61 41.64,-10.29 88.38,-5.4 131.34,16.9l9.43 5.36c7.04,4.11 14.33,6.86 21.57,8.02 7.12,1.15 14.92,0.85 23.11,-0.86l75.43 -15.87c9.86,-2.06 18.44,-5.91 25.38,-11.27 7.12,-5.49 13.08,-12.87 17.54,-21.74l4.89 -9.27c24.78,-42.83 67.1,-74.09 115.64,-87.98 47.51,-13.55 101.71,-10.64 151.36,14.23l11.28 5.96c7.63,4.42 15.31,7.16 22.81,8.15 7.59,0.99 15.91,0.34 24.62,-1.97l34.21 -9.01c8.62,-2.23 16.25,-6 22.56,-10.89 6.26,-4.71 11.7,-11.23 16.12,-19.25l4.89 -8.06c24.78,-39.58 65.6,-69.94 110.75,-84.13 46.36,-14.54 98.37,-12.69 144.16,12.65l8.06 4.54c7.76,4.85 15.53,7.98 22.94,9.18 7.72,1.24 16.08,0.86 24.92,-1.2l34.81 -8.23c8.75,-2.06 16.51,-5.62 23.03,-10.47 6.52,-4.84 12.13,-11.32 16.59,-19.16 25.35,-44.34 65.82,-73.24 113.29,-84.9 44.94,-11.15 95.92,-6.26 145.1,15.95 6.61,3 12.95,4.84 18.95,5.49 6.22,0.64 12.82,0.21 19.81,-1.2l51.12 -10.89c8.57,-1.81 16.12,-4.94 22.38,-9.22 6.34,-4.33 12.09,-10.25 16.85,-17.5 28.64,-43.35 68.65,-74.14 116.2,-87.26 44.17,-12.17 93.82,-8.87 145.32,14.07 6.47,2.96 13.12,4.71 19.81,5.27 6.56,0.56 13.55,-0.08 20.79,-1.93l50.3 -12.65c9.26,-2.31 17.24,-6.09 23.63,-11.1 6.3,-4.98 11.75,-11.79 16.16,-20.2 22.99,-43.65 61.88,-80.4 109.99,-97.55 42.7,-15.13 91.97,-15.01 143,9.05 7.2,3.39 14.49,5.4 21.65,5.96 7.38,0.56 14.97,-0.26 22.51,-2.44l71.4 -21.53c8.53,-2.36 15.6,-5.92 21.39,-10.42 5.88,-4.54 11.02,-10.63 15.31,-17.97l2.53 -4.41c26.97,-43.22 68.43,-70.28 113.84,-80.1 44.6,-9.52 93.05,-2.4 135.16,22.21l4.67 2.66c8.28,5.15 16.68,8.32 24.79,9.39 8.57,1.12 17.49,0.3 26.54,-2.44l54.88 -16.68c9.31,-2.83 17.37,-7.34 23.93,-13.3 6.56,-5.74 11.83,-13.42 15.56,-22.55 3.73,-9.05 8.15,-17.67 13.04,-25.73 26.41,-43.65 65.6,-67.7 107.84,-76.66 39.7,-8.41 82.11,-3.01 118.22,11.96 10.07,4.2 19.33,8.92 27.44,13.76 7.2,4.59 14.66,7.46 22.04,8.66 7.76,1.25 15.73,0.99 23.88,-0.81l19.25 -4.37c9.52,-1.93 18.01,-5.92 25.13,-11.45 6.78,-5.15 12.61,-12.48 17.11,-21.57l7.97 -14.02c28.78,-46.53 74.87,-73.58 123.97,-83.36 46.99,-9.39 97.85,-2.7 138.45,17.5l14.54 8.06c6.99,4.54 14.28,7.46 21.65,8.74 7.72,1.38 15.7,1.25 23.8,-0.38l21.27 -4.29c8.62,-1.71 16.25,-4.8 22.6,-9.13 6.51,-4.59 12.3,-10.64 17.15,-17.97 33.7,-51.07 77.99,-82.11 126.36,-95.15 51.5,-13.8 106.86,-6.73 158.27,18.48 6.6,3.13 13.2,5.15 19.81,5.96 6.64,0.82 13.63,0.48 20.71,-0.98 12.18,-2.62 26.84,-4.93 41.25,-7.16l16.59 -2.66c9.48,-1.67 17.84,-4.89 24.74,-9.52 6.91,-4.67 13.08,-11.15 18.01,-19.08l0.17 -0.64c32.89,-52.49 82.24,-82.25 138.54,-89.49 52.49,-6.86 110.33,6.64 164.44,40.17l0.9 0.56c6.44,3.86 12.61,6.61 18.66,8.06 5.79,1.42 12.39,1.76 19.81,1.2l88.93 -7.11 10.97 -1.76 10.6 -3.9c53.47,-25.26 103.93,-36.71 150.37,-31.26 50.94,6 94.85,30.87 130.27,77.87 5.57,7.37 11.92,13.12 18.86,17.02 7.21,4.03 15.48,6.64 24.45,7.54l5766.81 598.21c35.16,3.64 66.98,17.49 92.23,38.93 25.47,21.91 44.34,50.94 53.39,84.77zm-104.28 23.29c-3.82,-11.02 -9.99,-20.24 -17.8,-26.89 -9.3,-7.72 -21.14,-12.82 -34.34,-14.19l-5766.82 -598.2c-24.01,-2.49 -46.09,-9.44 -65.78,-20.5 -19.93,-11.23 -37.34,-26.63 -51.79,-45.75 -16.68,-22.08 -36.06,-33.66 -57.5,-36.19 -25.82,-2.96 -57.12,4.93 -92.62,21.65 -9.74,4.55 -19.04,8.06 -28.52,10.59 -9.64,2.62 -19.64,4.29 -30.18,5.11l-88.93 7.11c-18.23,1.42 -35.98,0.09 -53.39,-4.11 -17.36,-4.21 -33.7,-11.19 -49.44,-21.01l-0.68 -0.56c-32.98,-20.41 -66.34,-28.9 -94.89,-25.21 -24.83,3.17 -46.66,16.42 -61.41,39.83l-0.3 0.6c-13.38,21.27 -30.06,38.68 -49.57,51.76 -19.59,13.16 -41.93,21.95 -66.41,26.07l-17.46 2.7c-11.27,1.71 -22.42,3.47 -35.76,6.3 -19.38,4.03 -37.82,4.97 -55.78,2.74 -18.14,-2.22 -35.98,-7.67 -53.73,-16.42 -28.17,-13.85 -57.54,-18.01 -83.87,-10.93 -24.14,6.47 -46.95,23.02 -65.13,50.72 -12.78,19.51 -28.22,35.42 -46.31,47.6 -18.18,12.09 -38.72,20.54 -61.36,25.13l-21.27 4.28c-21.83,4.42 -42.92,4.81 -62.99,1.25 -20.41,-3.65 -40.13,-11.37 -59.04,-23.07l-6.26 -3.43c-20.16,-9.91 -45.93,-13.08 -70.15,-8.28 -22.34,4.38 -42.67,15.7 -54.33,34.61l-3.17 5.61c-11.37,23.2 -27.36,42.8 -46.96,58.15 -19.25,15.18 -42.1,25.77 -67.83,31.43l-19.25 4.37c-21.91,4.63 -43.31,5.32 -63.89,1.89 -20.71,-3.43 -40.74,-11.02 -59.73,-22.56l-13.12 -6.56c-17.58,-7.2 -37.52,-9.9 -55.45,-6.13 -15.35,3.26 -29.63,11.92 -39.06,27.53l-5.57 11.15c-9.82,23.8 -24.19,44.29 -42.32,60.8 -17.93,16.47 -39.75,28.69 -64.67,36.28l-54.88 16.68c-23.97,7.24 -47.98,9.34 -71.35,6.21 -23.54,-3.13 -46.18,-11.36 -67.11,-24.4l-2.61 -1.62c-18.18,-10.55 -39.19,-13.64 -58.4,-9.57 -18.35,3.99 -35.16,14.92 -45.93,32.21l-1.71 2.78c-11.15,18.7 -24.87,34.43 -41.16,47.13 -16.47,12.82 -35.38,22.46 -56.43,28.64l-72.21 21.65c-20.54,6.01 -40.69,8.19 -60.42,6.65 -19.81,-1.54 -39.45,-6.9 -58.78,-15.99 -22.94,-10.81 -44.3,-11.15 -62.14,-4.85 -21.78,7.76 -39.96,25.38 -51.15,46.61 -11.32,21.52 -26.41,39.71 -44.77,54.2 -18.6,14.62 -39.92,25.04 -63.46,30.96l-49.86 12.6c-18.91,4.85 -37.48,6.43 -55.79,4.89 -18.09,-1.54 -36.15,-6.43 -54.24,-14.45 -27.74,-12.26 -52.74,-14.45 -73.75,-8.66 -22,6.05 -41.3,21.44 -55.83,43.44 -12.56,18.99 -27.83,34.68 -45.58,46.73 -17.84,12.22 -38.03,20.67 -60.29,25.43l-51.11 10.85c-18.27,3.77 -35.85,4.8 -53.17,2.96 -17.62,-1.89 -34.73,-6.65 -51.45,-14.24 -27.02,-12.22 -53.65,-15.22 -75.9,-9.73 -19.47,4.72 -35.93,16.46 -46.22,34.43 -11.92,20.88 -27.19,38.21 -45.33,51.75 -18.13,13.51 -39.14,23.2 -62.64,28.73l-34.82 8.24c-22.38,5.27 -44.51,6.04 -66.16,2.48 -21.87,-3.6 -42.67,-11.57 -62.13,-23.75l-4.55 -2.7c-17.92,-9.44 -39.58,-9.56 -59.77,-3.26 -21.4,6.73 -40.39,20.28 -51.67,37.56l-3.3 5.87c-11.32,19.99 -25.73,36.79 -43.01,50.3 -17.49,13.85 -37.95,23.89 -60.89,29.89l-34.22 9c-21.91,5.79 -43.86,7.29 -65.43,4.46 -21.18,-2.74 -41.59,-9.73 -60.97,-20.67l-8.36 -4.5c-23.8,-11.58 -50.04,-12.69 -73.24,-6.09 -22.13,6.31 -41.12,19.64 -51.93,37.48l-3.34 6.17c-11.92,22.94 -27.74,42.15 -46.95,56.99 -19.73,15.22 -42.97,25.9 -68.7,31.26l-75.42 15.86c-21.05,4.42 -41.72,4.98 -61.87,1.72 -19.73,-3.22 -38.85,-10.16 -57.25,-20.8l-5.48 -3c-19.34,-9.99 -39.67,-12.43 -57.08,-8.15 -15.65,3.78 -29.2,13.08 -37.69,26.98l-2.18 3.9c-11.28,21.99 -26.5,40.56 -45.11,55.18 -18.74,14.58 -40.31,25 -64.19,30.96l-42.97 10.63c-22.59,5.58 -44.72,6.69 -66.2,3.39 -21.66,-3.51 -42.28,-11.1 -61.62,-22.72l-3.86 -2.19c-19.42,-10.89 -42.66,-11.71 -63.67,-5.79 -21.18,5.96 -39.32,18.18 -48.54,33.27l-0.99 1.51c-10.89,19.33 -24.7,35.76 -41.03,48.88 -16.64,13.29 -35.68,23.28 -56.9,29.71l-27.66 8.41c-25.34,7.67 -51.15,9.43 -76.28,5.31 -25.04,-4.07 -48.88,-13.98 -70.67,-29.5l-11.32 -6.64c-17.92,-8.24 -38.24,-8.75 -57.02,-3.22 -19.51,5.79 -37.22,17.88 -49.06,34.48 -2.53,3.55 -5.06,8.01 -7.42,13.07 -11.27,24.06 -27.05,44.38 -46.6,60.25 -19.6,15.95 -42.88,27.18 -68.83,33.19 -2745.27,633.49 -5590.79,1507.79 -8422.98,1642.68 -15.95,0.73 -30.45,7.55 -41.04,18.14 -10.72,10.51 -17.58,24.91 -18.35,40.99l-13.16 263.49c-0.43,9.31 0.68,17.8 3.38,25.09 2.75,7.42 7.38,14.62 13.73,21.27 6.26,6.6 13.16,11.53 20.36,14.62 7.16,3.04 15.61,4.63 24.92,4.63l1052.03 0 20.45 1.24c5.83,0.69 12.39,2.02 19.81,3.82 2451.94,605.66 4678.47,1132.94 7061.54,1838.51l3.13 13.17 243.25 64.44c25.3,6.65 47.81,18.4 66.72,34.52 18.7,15.95 33.75,36.32 44.43,60.38l7.2 12.9c12.09,18.1 30.61,31.65 50.98,38.42 19.17,6.39 39.84,6.6 57.55,-1.24l10.11 -5.71c21.96,-14.75 46.23,-23.96 71.66,-27.35 24.95,-3.3 50.72,-0.73 76.02,7.76l29.59 9.99c20.66,6.9 38.97,17.15 55.05,30.7 15.82,13.34 28.9,29.5 39.19,48.24l1.03 1.63c9.31,16.34 28.09,30.01 50,37 21.14,6.78 44.55,6.86 64.19,-3.43l2.06 -1.15c20.28,-11.58 41.42,-18.74 63.29,-21.44 21.78,-2.62 43.99,-0.82 66.33,5.48l44.98 12.7c23.58,6.64 44.51,17.49 62.26,32.2 17.45,14.45 31.9,32.67 42.79,54.33l2.32 4.16c8.7,15.35 23.07,25.98 39.4,30.65 17.54,4.98 37.78,3.39 56.9,-5.87l5.11 -2.7c18.73,-9.91 38.16,-16.34 58.23,-18.91 20.32,-2.62 41.03,-1.46 61.91,3.64l77.53 19c25.21,6.13 47.64,17.19 66.67,32.63 18.57,15.09 33.75,34.3 44.94,57.2l2.19 4.29c10.8,19.89 30.91,35.33 54.45,42.96 23.72,7.72 50.6,7.38 74.74,-3.86l5.15 -2.66c20.11,-10.84 41.25,-17.4 63.12,-19.63 21.69,-2.19 43.6,-0.09 65.43,6.47l36.32 10.81c22.29,6.69 42.06,17.06 58.96,30.87 16.68,13.89 30.52,30.79 41.24,50.68l2.66 4.68c11.24,18.91 31,34.13 53.34,42.02 20.84,7.37 43.4,7.89 61.75,-1.85l3.04 -1.67c19.86,-11.32 40.61,-18.52 62.09,-21.4 21.96,-3 44.21,-1.45 66.42,4.51l36.71 9.9c22.81,6.13 43.09,16.21 60.67,30.06 17.67,14.02 32.29,31.34 43.44,51.71 10.5,19.13 27.48,31.99 47.42,37.69 22.47,6.43 49.14,4.5 75.94,-6.6 17.19,-7.12 34.52,-11.45 52.05,-12.74 17.33,-1.28 35.04,0.26 53.17,4.72l52.96 13.04c43.91,10.8 78.08,35.37 102.26,73.45 14.58,23.19 34.35,39.75 57.03,46.95 21.31,6.73 46.44,5.57 73.71,-5.58 17.8,-7.46 36.02,-11.7 54.59,-12.69 18.61,-0.98 37.13,1.16 55.7,6.48l52.31 15c23.28,6.87 43.73,17.59 61.19,31.95 17.71,14.54 32.16,32.67 43,54.03 11.37,22.59 30.02,41.68 52.57,50.59 17.97,7.12 39.41,7.59 62.31,-2.31 19.42,-8.41 39.14,-13.17 59.08,-14.11 19.94,-0.98 39.92,1.85 60.08,8.32l73.96 24.7c20.8,6.73 39.24,16.64 55.06,29.58 15.56,12.74 28.9,28.9 39.79,48.2 5.02,8.53 10.98,15.74 17.58,21.4 12.31,10.5 27.57,16.72 43.35,18.22 15.87,1.5 32.37,-1.8 47.13,-10.08 8.4,-4.54 16.2,-10.93 23.11,-19.03l57.33 -15.83c51.11,17.24 76.36,32.12 129.19,58.53 14.19,5.92 28.51,8.24 43.52,11.62l40.65 42.71c2.57,14.58 6.69,26.33 11.79,35.38 8.41,14.62 20.03,23.96 32.72,28.9 13.98,5.4 30.23,6.13 45.92,3.34 11.19,-1.97 21.7,-5.66 30.32,-10.51 19.38,-11.06 39.75,-18.05 60.76,-20.88 21.26,-2.78 42.58,-1.5 63.89,3.9l21.39 5.41c24.96,6.39 47.13,17.49 65.82,32.8 18.61,15.52 33.79,34.99 44.85,58.06l2.96 5.44c11.88,20.8 32.98,33.58 55.96,38.98 24.87,5.87 51.02,3.56 70.92,-5.96l4.72 -2.66c19.51,-11.15 39.57,-18.26 60.2,-21.31 20.71,-3 41.89,-1.93 63.29,3.09l22.9 5.4c21.73,5.1 41.54,14.07 59.25,26.59 17.84,12.6 32.81,28.51 44.77,47.38 18.52,29.5 41.76,47.42 66.33,55.01 26.24,8.1 55.7,5.02 84.05,-7.8 17.45,-7.89 35.41,-12.74 54.11,-14.45 18.39,-1.68 36.87,-0.26 55.66,4.33l55.48 11.23c24.27,5.06 45.97,14.41 64.66,27.66 18.87,13.42 34.82,30.83 47.21,51.71 14.92,25 37.22,39.83 62.26,44.34 28.9,5.19 62.69,-2.02 95.96,-21.53 16.47,-9.6 33.15,-16.25 50.39,-19.89 17.75,-3.65 35.59,-4.42 53.98,-2.36l89.19 10.16c10.08,1.2 19.68,3.13 29.11,5.92 9.27,2.66 18.36,6.39 28.05,11.27 40.65,20.63 75.46,29.63 102.86,24.06 23.89,-4.97 45.24,-23.67 63.42,-58.62l47.34 -28.77c1647.79,0 4209.41,-409.49 5944.42,-579.76 13.16,-1.25 24.83,-6.13 33.92,-13.59 5.87,-4.85 10.93,-11.07 14.75,-18.27l-2512.36 -303.84 -2.57 44.08c-2.58,44.29 -22.09,83.78 -51.97,112.34 -29.8,28.43 -70.19,46.01 -114.53,46.57l-3612.8 47.42c-7.8,0.13 -14.71,-0.17 -20.88,-0.86l-19.68 -3.47 -1017.77 -238.19c-23.16,-5.4 -44.08,-15.05 -62.35,-28.56 -18.14,-13.42 -33.4,-30.57 -45.37,-51.28 -12.04,-20.75 -19.46,-42.54 -22.08,-64.83 -2.53,-22.52 -0.47,-45.24 6.3,-68.01 98.5,-329.48 249.26,-747.38 320.1,-1072.27 18.22,-96.61 -10.38,-173.87 -62.05,-225.54 -28.99,-29.03 -65.39,-50.51 -104.88,-63.16 -39.58,-12.7 -82.54,-16.55 -124.35,-10.38 -76.93,11.28 -150.25,57.59 -193.13,145.96 -115.94,270.56 -229.7,724.99 -323.6,1022.44 -8.15,25.56 -21.36,47.9 -39.02,66.3 -17.54,18.3 -39.28,32.41 -64.45,41.54 -25.21,9.18 -50.85,12.35 -75.98,9.65 -25.21,-2.74 -49.66,-11.49 -72.42,-25.98l-339.43 -215.98c-31.56,-19.81 -54.67,-48.8 -67.37,-81.82 -12.6,-32.84 -14.83,-69.59 -4.84,-105.65l234.38 -848.23c21.65,-94.72 -10.64,-171.38 -67.92,-223.18 -31.35,-28.34 -70.37,-49.87 -112.35,-63.33 -42.4,-13.6 -87.64,-19.04 -131.12,-15.18 -83.31,7.54 -160.58,49.56 -197.63,133.86 -100.94,250.16 -194.28,643.4 -276.01,914.74 -12.86,42.58 -40.95,76.62 -76.54,97.38 -35.72,20.62 -79.07,28.47 -122.2,18.78l-8379 -1873.94c-38.54,-9.26 -71.56,-21.48 -94.93,-38.42 -35.5,-25.81 -51.93,-59.3 -41.51,-103.38 7.72,-32.84 25.3,-60.58 49.18,-81.47 23.97,-20.92 54.38,-34.81 87.13,-40 1544.37,-244.37 2908.48,-462.75 4266.62,-709.39 1357.54,-246.51 2712.68,-522.09 4242.43,-881.5 44.29,-10.42 88.93,-2.19 125.33,19.64 36.49,21.82 64.79,57.33 76.54,101.32 53.52,200.84 104.2,432.09 167.14,626.67 40.35,111.1 111.53,166.63 186.44,179.71 35.68,6.22 72.64,3.21 107.63,-7.68 35.89,-11.19 69.72,-30.48 98.32,-56.3 66.25,-59.9 105.52,-156.12 80.31,-271.46l-156.76 -595.55c-11.2,-42.62 -5.11,-86.01 14.27,-122.42 19.34,-36.31 52.02,-65.64 93.61,-80.09l345.52 -120.19c22.94,-7.89 45.71,-11.02 68.04,-9.35 22.52,1.67 44.77,8.19 66,19.34 21.13,11.19 38.93,25.64 53.08,43.13 14.36,17.76 24.83,38.38 31.17,61.41 71.35,258.26 175.21,566.94 226.45,823.18 17.4,105.23 80.48,161.36 153.63,177.52 35.42,7.81 73.67,6.82 110.67,-2.01 37.31,-8.92 73.32,-25.94 103.9,-49.83 69.89,-54.63 111.82,-147.84 78.08,-267.9l-260.92 -896.52c-9.48,-32.58 -9.09,-65.77 0.21,-96.39 9.35,-30.7 27.58,-58.65 53.47,-80.35 229.45,-192.01 492.38,-292.65 764.49,-341.49 269.02,-48.24 545.59,-45.75 807.15,-31.64l3305.96 178.84 49.61 63.59 -7.07 35.46c-2.02,10.17 -1.85,19.86 0.47,28.52 2.36,8.87 6.99,17.41 13.68,25.04 6.77,7.72 14.53,13.42 22.85,16.85 8.28,3.39 17.84,4.85 28.26,4.16l2355.42 -157.06z"></path> </g> </svg> 