<?xml version="1.0" encoding="UTF-8"?> <svg xmlns="http://www.w3.org/2000/svg" xmlns:xlink="http://www.w3.org/1999/xlink" xml:space="preserve" width="1000px" height="1000px" version="1.0" style="shape-rendering:geometricPrecision; text-rendering:geometricPrecision; image-rendering:optimizeQuality; fill-rule:evenodd; clip-rule:evenodd" viewBox="0 0 1000 1000"> <defs> <style type="text/css"> .fil0 {fill:black;fill-rule:nonzero} </style> </defs> <g id="Layer_x0020_1"> <metadata id="CorelCorpID_0Corel-Layer"></metadata> <g id="_1886065528096"> <path class="fil0" d="M259 50l482 0c33,0 63,13 84,35 22,22 35,51 35,84l0 662c0,33 -13,62 -35,84 -21,22 -51,35 -84,35l-482 0c-33,0 -63,-13 -84,-35 -22,-22 -35,-51 -35,-84l0 -662c0,-33 13,-62 35,-84 21,-22 51,-35 84,-35zm482 14l-482 0c-29,0 -55,12 -74,31 -20,19 -31,45 -31,74l0 662c0,29 11,55 31,74 19,19 45,31 74,31l482 0c29,0 55,-12 74,-31 20,-19 31,-45 31,-74l0 -662c0,-29 -11,-55 -31,-74 -19,-19 -45,-31 -74,-31z"></path> <path class="fil0" d="M327 355l84 -84 -17 0 -67 66 0 18zm94 -84l-94 94 0 17 111 -111 -17 0zm27 0l-121 121 0 17 138 -138 -17 0zm27 0l-148 148 0 17 165 -165 -17 0zm27 0l-175 175 0 18 193 -193 -18 0zm27 0l-202 202 0 18 220 -220 -18 0zm28 0l-230 230 0 17 247 -247 -17 0zm27 0l-257 257 0 17 274 -274 -17 0zm27 0l-284 284 0 17 301 -301 -17 0zm27 0l-79 79 1 -2 -4 6 -229 228 0 2 144 -135 0 4c-18,20 -35,38 -51,54l-44 41c-19,17 -38,32 -56,47l0 -331 4 0 356 0 0 472 -216 0 0 -198 7 -14 0 14 202 -202 0 -18 -198 198 10 -20 188 -187 0 -18 -170 170 10 -20 160 -160 0 -10 -7 0 -135 135 10 -20 115 -115 -18 0zm35 75l-202 201 0 18 202 -202 0 -17zm0 27l-202 202 0 17 202 -202 0 -17zm0 27l-202 202 0 17 202 -202 0 -17zm0 27l-202 202 0 17 202 -201 0 -18zm0 28l-202 201 0 18 202 -202 0 -17zm0 27l-202 201 0 18 202 -202 0 -17zm0 27l-202 202 0 17 202 -202 0 -17zm0 27l-193 193 17 0 176 -176 0 -17zm0 27l-166 166 18 0 148 -148 0 -18zm0 28l-139 138 18 0 121 -121 0 -17zm0 27l-111 111 17 0 94 -94 0 -17zm0 27l-84 84 17 0 67 -67 0 -17zm0 27l-57 57 17 0 40 -40 0 -17zm0 27l-30 30 18 0 12 -12 0 -18zm0 28l-3 2 3 0 0 -2zm-346 -399l57 -57 -18 0 -39 39 0 18zm0 -28l29 -29 -17 0 -12 12 0 17zm0 -27l2 -2 -2 0 0 2z"></path> <path class="fil0" d="M464 944l0 -407 7 -14 0 417 57 0 1 -531 7 -14 -1 549c0,2 -2,3 -4,3l-64 0c-1,0 -3,-1 -3,-3z"></path> <path class="fil0" d="M262 928l280 -552c-117,143 -189,198 -261,254 -16,12 -32,24 -49,38 11,36 18,77 23,119 5,48 7,98 7,141zm301 -578l-301 595c-1,1 -2,2 -3,1 -2,0 -4,-1 -4,-3 1,-47 -1,-101 -7,-155 -5,-43 -12,-84 -23,-121l0 0c-1,-1 0,-2 1,-3 17,-14 34,-27 50,-40 76,-58 152,-116 281,-278 1,-1 3,-2 5,-1 2,1 2,3 1,5z"></path> <path class="fil0" d="M471 457c0,2 -2,4 -4,4 -1,0 -3,-2 -3,-4l0 -400c0,-2 2,-4 3,-4 2,0 4,2 4,4l0 400z"></path> <path class="fil0" d="M564 348c0,2 -2,4 -4,4 -2,0 -3,-2 -3,-4l0 -291c0,-2 1,-4 3,-4 2,0 4,2 4,4l0 291z"></path> </g> </g> </svg> 