<?xml version="1.0"?>
<svg width="1200" height="1000" xmlns="http://www.w3.org/2000/svg" xmlns:svg="http://www.w3.org/2000/svg" clip-rule="evenodd" fill-rule="evenodd" version="1.0" xml:space="preserve">
 <!-- Created with SVG-edit - https://github.com/SVG-Edit/svgedit-->
 <g class="layer">
  <title>Layer 1</title>
  <g id="svg_1" transform="matrix(0.820409 0 0 0.823377 -36.1262 47.6404)">
   <metadata id="svg_2"/>
   <g id="svg_3">
    <path class="fil0" d="m758.51,30.03l435.71,-1.61c39.9,-1.61 75.01,9.68 108.53,29.03c35.11,19.36 65.44,48.39 87.78,82.26l100.55,148.39c1.6,1.61 1.6,3.23 1.6,4.84l0,512.92c0,3.23 0,4.84 -1.6,4.84l-100.55,150c-22.34,32.26 -52.67,61.29 -87.78,80.65c-31.92,19.36 -68.63,29.03 -108.53,30.65l-383.04,1.61c-3.19,0 -6.38,-1.61 -6.38,-4.84l-22.34,-79.03c-1.6,-4.84 1.6,-9.68 4.79,-9.68c1.6,-1.61 1.6,-1.61 3.19,-1.61c43.09,0 84.59,-1.61 126.08,-6.45c39.9,-4.84 81.4,-9.68 122.89,-19.36c44.69,-9.68 84.59,-27.42 113.32,-53.23c22.34,-22.58 36.71,-51.61 36.71,-87.1l0,-438.72c0,-37.1 -14.36,-66.13 -36.71,-87.1c-28.73,-27.42 -68.63,-43.55 -113.32,-54.84c-44.69,-9.68 -90.97,-16.13 -135.66,-19.36c-46.28,-4.84 -92.57,-6.45 -140.45,-6.45c-47.88,0 -94.16,1.61 -138.85,6.45c-46.28,3.23 -90.97,9.68 -135.66,19.36c-46.28,11.29 -86.18,27.42 -113.32,54.84c-23.94,20.97 -38.3,50 -38.3,87.1l0,438.72c0,35.49 14.36,64.52 38.3,87.1c27.13,25.81 67.03,43.55 113.32,53.23c28.73,6.45 55.86,11.29 84.59,14.52c27.13,4.84 54.26,6.45 81.4,8.06l7.98,-17.74c1.6,-6.45 4.79,-11.29 6.38,-14.52l0,-1.61c6.38,-16.13 11.17,-27.42 33.52,-27.42c23.94,0 27.13,9.68 35.11,27.42l4.79,12.9c1.6,3.23 1.6,4.84 0,6.45l-30.32,108.07c0,3.23 -3.19,4.84 -6.38,4.84l-351.12,0c-39.9,0 -76.61,-11.29 -108.53,-29.03c-35.11,-19.36 -65.44,-48.39 -87.78,-82.26l-100.55,-148.39c-1.6,-1.61 -1.6,-3.23 -1.6,-4.84l0,-198.39c0,-4.84 3.19,-8.06 6.38,-8.06l114.91,-33.87c14.36,-3.23 22.34,-6.45 25.54,-9.68l0,-1.61c1.6,-1.61 1.6,-3.23 1.6,-4.84c0,-3.23 0,-4.84 -1.6,-6.45c-3.19,-3.23 -11.17,-6.45 -25.54,-11.29l-114.91,-32.26c-4.79,-1.61 -6.38,-4.84 -6.38,-8.06l0,-198.39c0,-3.23 0,-4.84 1.6,-4.84l100.55,-150c22.34,-32.26 52.67,-61.29 87.78,-80.65c31.92,-19.36 68.63,-30.65 108.53,-30.65l403.79,0l-0.02,-0.02zm435.71,12.9c-279.3,1.61 -558.6,3.23 -839.5,3.23c-36.71,0 -70.22,11.29 -100.55,27.42c-33.52,19.36 -62.24,46.78 -82.99,77.42l-98.95,146.78l0,190.33l110.12,32.26c15.96,4.84 25.54,9.68 30.32,14.52c7.98,6.45 7.98,11.29 7.98,17.74c0,4.84 0,11.29 -6.38,16.13l-1.6,1.61c-4.79,4.84 -14.36,9.68 -30.32,14.52l-110.12,30.65l0,191.94l98.95,146.78c20.75,30.65 49.48,58.07 82.99,77.42c30.32,16.13 63.84,27.42 100.55,27.42l344.74,0l28.73,-100l-4.79,-11.29c-4.79,-11.29 -7.98,-19.36 -20.75,-19.36c-11.17,0 -14.36,8.06 -19.15,19.36l0,1.61c-1.6,3.23 -4.79,8.06 -6.38,14.52l-9.58,22.58c-1.6,3.23 -4.79,4.84 -7.98,4.84c-30.32,-1.61 -59.05,-4.84 -87.78,-8.06c-28.73,-3.23 -57.46,-9.68 -86.18,-14.52c-47.88,-11.29 -90.97,-29.03 -121.3,-58.07c-27.13,-25.81 -43.09,-58.07 -43.09,-98.39l0,-438.72c0,-41.94 15.96,-74.2 43.09,-100c30.32,-27.42 73.42,-46.78 121.3,-56.45c44.69,-9.68 90.97,-16.13 137.26,-20.97c46.28,-4.84 92.57,-6.45 140.45,-6.45c47.88,0 95.76,1.61 142.04,6.45c46.28,4.84 90.97,11.29 137.26,20.97c47.88,9.68 90.97,29.03 119.7,56.45c27.13,25.81 43.09,58.07 43.09,100l0,438.72c0,40.32 -15.96,72.58 -43.09,98.39c-28.73,29.03 -71.82,46.78 -119.7,58.07c-41.5,8.06 -82.99,14.52 -124.49,19.36c-39.9,3.23 -78.2,6.45 -118.1,6.45l17.56,62.91l376.66,-1.61c36.71,0 70.22,-11.29 100.55,-27.42c33.52,-19.36 62.24,-46.78 82.99,-77.42l98.95,-146.78l0,-509.69l-98.95,-146.78c-20.75,-30.65 -49.48,-58.07 -82.99,-77.42c-30.32,-16.13 -63.84,-27.42 -100.55,-27.42l-0.02,-0.03z" id="svg_4"/>
    <path class="fil0" d="m758.51,30.03l435.71,-1.61c31.92,0 60.65,6.45 87.78,17.74c28.73,12.9 55.86,32.26 78.2,56.45c1.6,0 1.6,3.23 1.6,4.84l0,883.9c0,3.23 -1.6,4.84 -3.19,6.45c-20.75,22.58 -47.88,40.32 -76.61,54.84c-27.13,11.29 -55.86,17.74 -87.78,19.36l-383.04,1.61c-3.19,0 -6.38,-1.61 -6.38,-4.84l-28.73,-103.23c-4.79,-14.52 -7.98,-22.58 -11.17,-25.81c-1.6,-1.61 -4.79,-1.61 -6.38,-1.61c-1.6,0 -4.79,0 -6.38,1.61c-3.19,3.23 -6.38,11.29 -9.58,25.81l-30.32,103.23c0,3.23 -3.19,4.84 -6.38,4.84l-351.12,0c-36.71,0 -71.82,-9.68 -102.14,-25.81c-33.52,-17.74 -63.84,-43.55 -86.18,-74.2c0,0 -1.6,-1.61 -1.6,-3.23l0,-391.95c0,-3.23 3.19,-6.45 6.38,-8.06l6.38,-1.61c14.36,-3.23 22.34,-6.45 25.54,-9.68l0,-1.61c1.6,-1.61 1.6,-3.23 1.6,-4.84c0,-3.23 0,-4.84 -1.6,-6.45c-3.19,-3.23 -11.17,-6.45 -25.54,-11.29l-6.38,-1.61c-3.19,0 -6.38,-3.23 -6.38,-6.45l0,-391.95c0,-1.61 1.6,-3.23 3.19,-4.84c22.34,-29.03 51.07,-54.84 84.59,-72.58c30.32,-17.74 65.44,-27.42 102.14,-27.42l403.79,0l-0.02,0zm435.71,12.9c-279.3,1.61 -558.6,3.23 -839.5,3.23c-35.11,0 -67.03,9.68 -95.76,24.19c-30.32,16.13 -57.46,40.32 -78.2,67.74l0,382.27l1.6,0c15.96,4.84 25.54,9.68 30.32,14.52c7.98,6.45 7.98,11.29 7.98,17.74c0,4.84 0,11.29 -6.38,16.13l-1.6,1.61c-4.79,4.84 -14.36,9.68 -30.32,14.52l-1.6,0l0,382.27c20.75,27.42 47.88,50 78.2,67.74c28.73,14.52 60.65,24.19 95.76,24.19l344.74,0l27.13,-98.39c4.79,-17.74 9.58,-27.42 14.36,-32.26c6.38,-6.45 12.77,-6.45 17.56,-6.45c6.38,0 11.17,0 17.56,6.45c4.79,4.84 9.58,14.52 14.36,32.26l27.13,96.78l376.66,-1.61c28.73,0 55.86,-6.45 81.4,-17.74c27.13,-12.9 51.07,-29.03 70.22,-50l0,-877.45c-19.15,-20.97 -43.09,-37.1 -70.22,-50c-25.54,-11.29 -52.67,-17.74 -81.4,-17.74z" id="svg_5"/>
    <path class="fil0" d="m171.18,147.77l89.38,-90.33l4.79,6.45l-89.38,88.71l-4.79,-4.84l0,0.01zm0,30.65l135.66,-137.1l4.79,4.84l-135.66,138.71l-4.79,-6.45zm370.27,885.51l162.79,-166.13c3.19,1.61 6.38,1.61 9.58,1.61l-167.58,169.36l-4.79,-4.84zm614.46,-620.99l194.71,-198.39l6.38,4.84l-199.5,201.62c0,-3.23 -1.6,-6.45 -1.6,-8.06l0.01,-0.01zm-584.14,620.99l159.6,-162.91c4.79,0 7.98,0 11.17,0l-165.99,167.75l-4.79,-4.84l0.01,0zm585.74,-593.57l193.12,-195.17l6.38,4.84l-199.5,201.62l0,-11.29zm-555.41,593.57l159.6,-161.3l1.6,0c3.19,0 6.38,0 9.58,0l-165.99,166.13l-4.79,-4.84l0,0.01zm555.41,-562.92l193.12,-195.17l6.38,4.84l-199.5,201.62l0,-11.29zm-525.09,562.92l97.36,-100l6.38,4.84l-98.95,100l-4.79,-4.84zm132.47,-135.49l27.13,-27.42c4.79,0 7.98,0 12.77,0l-35.11,33.87l-4.79,-6.45zm392.62,-396.79l193.12,-195.17l6.38,4.84l-199.5,201.62l0,-11.29zm-494.76,532.28l55.86,-56.45l4.79,4.84l-55.86,56.45l-4.79,-4.84zm113.32,-116.13l49.48,-50c4.79,0 9.58,0 12.77,-1.61l-55.86,58.07l-6.38,-6.45l-0.01,-0.01zm381.45,-385.5l193.12,-195.17l6.38,4.84l-199.5,201.62l0,-11.29zm-464.44,501.63l12.77,-14.52l6.38,6.45l-14.36,12.9l-4.79,-4.84l0,0.01zm90.97,-91.94l78.2,-79.03c3.19,-1.61 7.98,-1.61 12.77,-3.23l-86.18,87.1l-4.79,-4.84zm373.47,-379.04l193.12,-195.17l6.38,4.84l-199.5,201.62l0,-11.29zm-367.08,403.24l108.53,-109.68c4.79,-1.61 9.58,-3.23 14.36,-3.23l-118.1,117.75l-4.79,-4.84zm367.08,-372.59l193.12,-195.17l6.38,6.45l-199.5,200.01l0,-11.29zm-360.7,396.79l142.04,-143.55c4.79,-1.61 9.58,-3.23 14.36,-3.23l-151.62,151.62l-4.79,-4.84l0.01,0zm360.7,-366.14l193.12,-195.17l6.38,6.45l-199.5,200.01l0,-11.29zm-354.31,388.72l177.16,-177.43c4.79,-1.61 9.58,-3.23 14.36,-4.84l-185.14,188.72l-6.38,-6.45zm354.31,-358.08l193.12,-195.17l6.38,6.45l-199.5,200.01l0,-11.29zm-343.14,379.04l209.08,-211.3c4.79,-1.61 11.17,-4.84 17.56,-6.45l-220.25,222.59l-6.38,-4.84l-0.01,0zm343.14,-348.4l193.12,-195.17l6.38,6.45l-199.5,200.01c0,-1.61 0,-1.61 0,-3.23l0,-8.06zm-312.82,346.79l233.02,-235.49c14.36,-6.45 25.54,-16.13 36.71,-25.81l-263.34,267.75l-6.38,-6.45l-0.01,0zm308.03,-309.69l197.91,-201.62l6.38,6.45l-221.85,224.2c7.98,-9.68 12.77,-19.36 17.56,-29.03zm-277.71,309.69l475.61,-480.66l6.38,6.45l-475.61,480.66l-6.38,-6.45zm31.92,0l443.69,-450.01l6.38,6.45l-445.29,450.01l-4.79,-6.45l0.01,0zm30.32,0l413.37,-419.37l6.38,6.45l-414.96,417.76l-4.79,-4.84zm30.32,0l383.04,-388.72l6.38,6.45l-384.64,387.11l-4.79,-4.84l0.01,0zm30.32,0l352.72,-358.08l6.38,6.45l-352.72,356.46l-6.38,-4.84l0,0.01zm30.32,0l322.39,-327.43l6.38,6.45l-322.39,325.82l-6.38,-4.84zm30.32,0l292.07,-296.78l6.38,6.45l-292.07,295.17l-6.38,-4.84zm31.92,-1.61l260.15,-262.91l6.38,4.84l-261.75,264.52l-4.79,-6.45l0.01,0zm30.32,0l229.83,-232.27l6.38,4.84l-231.42,233.88l-4.79,-6.45zm30.32,0l199.5,-201.62l6.38,4.84l-201.1,203.23l-4.79,-6.45l0.01,0zm30.32,0l169.18,-170.97l6.38,4.84l-169.18,172.59l-6.38,-6.45l0,-0.01zm31.92,-1.61l137.26,-138.71l6.38,4.84l-138.85,140.33l-4.79,-6.45l0,-0.01zm38.3,-8.06l98.95,-100l6.38,4.84l-100.55,101.62l-4.79,-6.45l0.01,-0.01zm57.46,-27.42l41.5,-41.94l6.38,4.84l-41.5,43.55l-6.38,-6.45zm-799.6,40.32l167.58,-169.36c3.19,0 6.38,1.61 9.58,1.61l-170.77,172.59l-6.38,-4.84l-0.01,0zm636.81,-643.57l204.29,-206.46l6.38,4.84l-205.89,209.68c-1.6,-3.23 -3.19,-4.84 -4.79,-8.06l0.01,0zm-667.13,643.57l172.37,-174.2c3.19,1.61 6.38,1.61 9.58,1.61l-175.56,177.43l-6.38,-4.84l-0.01,0zm654.36,-661.31l217.06,-219.36l6.38,4.84l-218.65,220.98c-1.6,-1.61 -3.19,-4.84 -4.79,-6.45l0,-0.01zm-684.69,661.31l177.16,-179.04c3.19,1.61 6.38,1.61 9.58,1.61l-180.35,182.26l-6.38,-4.84l-0.01,0.01zm670.32,-677.44l231.42,-233.88l6.38,4.84l-233.02,235.49c-1.6,-1.61 -3.19,-4.84 -4.79,-6.45l0.01,0zm-700.65,677.44l181.95,-183.88l9.58,1.61l-185.14,187.1l-6.38,-4.84l-0.01,0.01zm683.09,-690.35l248.98,-251.62l6.38,4.84l-248.98,251.62c-1.6,-1.61 -3.19,-3.23 -6.38,-4.84zm-713.42,690.35l188.33,-190.33l9.58,1.61l-191.52,193.55l-6.38,-4.84l-0.01,0.01zm695.86,-703.25l260.15,-262.91l6.38,4.84l-260.15,262.91c-1.6,-1.61 -4.79,-3.23 -6.38,-4.84zm-726.19,703.25l194.71,-196.78l9.58,1.61l-197.91,200.01l-6.38,-4.84zm707.03,-714.54l263.34,-266.14l4.79,6.45l-261.75,264.52c-1.6,-1.61 -4.79,-3.23 -6.38,-4.84l0,0.01zm-735.76,712.93l199.5,-201.62l9.58,1.61l-202.69,204.85l-6.38,-4.84l-0.01,0zm715.01,-722.6l266.53,-269.36l4.79,4.84l-264.94,269.36c-1.6,-1.61 -4.79,-3.23 -6.38,-4.84zm-740.55,717.77l202.69,-204.85c1.6,1.61 4.79,3.23 7.98,3.23l-205.89,208.07l-4.79,-6.45l0.01,0zm718.2,-725.83l269.73,-272.59l6.38,4.84l-268.13,270.98c-3.19,-1.61 -6.38,-1.61 -7.98,-3.23zm-742.15,719.38l204.29,-206.46c3.19,1.61 4.79,1.61 7.98,3.23l-205.89,208.07l-6.38,-4.84zm718.2,-725.83l272.92,-275.82l6.38,4.84l-269.73,272.59l-9.58,-1.61l0.01,0zm-738.95,716.15l204.29,-206.46c1.6,1.61 4.79,3.23 7.98,3.23l-207.48,208.07l-4.79,-4.84zm715.01,-722.6l274.51,-277.43l6.38,4.84l-271.32,274.2l-9.58,-1.61l0.01,0zm-734.17,711.31l204.29,-206.46c1.6,1.61 4.79,3.23 6.38,4.84l-205.89,208.07l-4.79,-6.45l0.01,0zm710.22,-717.77l274.51,-277.43l4.79,6.45l-269.73,272.59l-9.58,-1.61l0.01,0zm-729.38,704.86l204.29,-204.85c3.19,1.61 4.79,3.23 6.38,3.23l-204.29,208.07l-6.38,-6.45zm705.44,-711.31l269.73,-272.59l4.79,4.84l-264.94,269.36l-9.58,-1.61zm-721.4,698.41l204.29,-206.46c1.6,1.61 3.19,3.23 4.79,4.84l-204.29,206.46l-4.79,-4.84zm695.86,-704.86l264.94,-266.14l4.79,4.84l-260.15,264.52l-9.58,-3.23l0,0.01zm-711.82,688.73l204.29,-206.46c1.6,3.23 3.19,4.84 6.38,6.45l-204.29,206.46l-6.38,-6.45zm687.88,-693.57l258.55,-261.3l4.79,4.84l-255.36,258.07c-3.19,0 -4.79,0 -7.98,-1.61zm-702.24,677.44l205.89,-208.07c1.6,3.23 3.19,4.84 4.79,8.06l-204.29,206.46l-6.38,-6.45l-0.01,0zm675.11,-682.28l255.36,-256.46l4.79,6.45l-250.57,251.62c-3.19,0 -6.38,0 -9.58,-1.61zm-678.3,656.47l201.1,-203.23c0,3.23 1.6,4.84 1.6,8.06l-197.91,201.62l-4.79,-6.45zm651.17,-659.7l250.57,-253.23l6.38,6.45l-245.79,248.4c-3.19,0 -6.38,-1.61 -11.17,-1.61l0.01,-0.01zm-651.17,629.05l197.91,-200.01l0,8.06c0,0 0,1.61 0,1.61l-193.12,195.17l-4.79,-4.84l0,0.01zm624.04,-630.67l247.38,-251.62l6.38,6.45l-244.19,245.17c-3.19,0 -6.38,0 -9.58,0l0.01,0zm-624.04,600.02l197.91,-201.62l0,11.29l-193.12,195.17l-4.79,-4.84zm595.31,-601.63l245.79,-250.01l6.38,6.45l-242.59,243.56c-3.19,0 -6.38,0 -9.58,0zm-595.31,570.99l197.91,-201.62l0,11.29l-193.12,195.17l-4.79,-4.84zm563.39,-570.99l247.38,-248.4l4.79,4.84l-241,243.56c-3.19,0 -7.98,0 -11.17,0zm-563.39,540.34l197.91,-201.62l0,11.29l-193.12,195.17l-4.79,-4.84zm529.88,-537.11l250.57,-251.62l4.79,4.84l-242.59,246.78c-4.79,0 -7.98,0 -12.77,0zm-529.88,506.47l197.91,-201.62l0,11.29l-193.12,195.17l-4.79,-4.84zm494.76,-500.02l255.36,-258.07l4.79,4.84l-247.38,250.01c-4.79,1.61 -7.98,1.61 -12.77,3.23l0,-0.01zm-494.76,469.37l197.91,-201.62l0,11.29l-193.12,195.17l-4.79,-4.84zm456.46,-462.92l261.75,-264.52l6.38,4.84l-253.77,256.46c-4.79,1.61 -9.58,1.61 -14.36,3.23l0,-0.01zm-456.46,432.27l197.91,-201.62l0,11.29l-193.12,195.17l-4.79,-4.84zm418.15,-422.59l269.73,-274.2l6.38,6.45l-261.75,264.52c-4.79,0 -9.58,1.61 -14.36,3.23zm-418.15,391.95l197.91,-201.62l0,11.29l-193.12,195.17l-4.79,-4.84zm376.66,-382.27l280.9,-283.88l6.38,6.45l-272.92,274.2c-4.79,1.61 -9.58,3.23 -14.36,3.23zm-376.66,351.62l197.91,-201.62l0,11.29l-193.12,195.17l-4.79,-4.84zm333.57,-338.72l293.67,-296.78l4.79,6.45l-282.49,285.49l-3.19,1.61c-4.79,1.61 -7.98,3.23 -12.77,3.23l-0.01,0zm-333.57,308.07l204.29,-208.07c-3.19,6.45 -3.19,11.29 -4.79,16.13l-194.71,196.78l-4.79,-4.84zm277.71,-282.27l319.2,-322.59l4.79,6.45l-301.65,304.85c-7.98,3.23 -14.36,8.06 -22.34,11.29zm-277.71,251.62l566.58,-572.6l4.79,4.84l-566.58,572.6l-4.79,-4.84zm0,-30.65l1.6,-3.23l6.38,6.45l-3.19,1.61l-4.79,-4.84l0,0.01zm36.71,-38.71l499.55,-503.24l4.79,4.84l-499.55,504.86l-4.79,-6.45l0,-0.01zm-19.15,-11.29l488.38,-491.95l4.79,4.84l-488.38,493.56l-4.79,-6.45zm-17.56,-12.9l475.61,-479.05l4.79,4.84l-475.61,480.66l-4.79,-6.45zm0,-30.65l445.29,-448.4l4.79,4.84l-445.29,450.01l-4.79,-6.45zm0,-30.65l413.37,-417.76l6.38,4.84l-414.96,419.37l-4.79,-6.45zm0,-30.65l383.04,-387.11l6.38,4.84l-384.64,388.72l-4.79,-6.45l0.01,0zm0,-30.65l352.72,-356.46l6.38,4.84l-354.31,358.08l-4.79,-6.45l0,-0.01zm0,-30.65l322.39,-325.82l6.38,4.84l-323.99,327.43l-4.79,-6.45l0.01,0zm0,-30.65l292.07,-295.17l6.38,4.84l-293.67,296.78l-4.79,-6.45l0.01,0zm0,-30.65l261.75,-264.52l6.38,4.84l-263.34,266.14l-4.79,-6.45l0,-0.01zm0,-30.65l231.42,-233.88l6.38,4.84l-233.02,235.49l-4.79,-6.45l0.01,0zm0,-30.65l201.1,-203.23l6.38,4.84l-202.69,204.85l-4.79,-6.45l0,-0.01zm0,-30.65l170.77,-172.59l4.79,4.84l-170.77,174.2l-4.79,-6.45z" id="svg_6"/>
    <path class="fil0" d="m515.91,325.2c30.32,-9.68 70.22,-20.97 113.32,-30.65c44.69,-8.06 90.97,-16.13 134.06,-16.13c44.69,0 90.97,8.06 134.06,16.13c43.09,9.68 82.99,20.97 113.32,30.65c35.11,9.68 78.2,30.65 110.12,58.07c23.94,22.58 41.5,48.39 41.5,79.03l0,261.3c0,29.03 -17.56,56.45 -41.5,77.42c-31.92,29.03 -75.01,50 -110.12,59.68c-30.32,9.68 -70.22,20.97 -113.32,29.03c-43.09,9.68 -89.38,16.13 -134.06,16.13c-43.09,0 -89.38,-6.45 -134.06,-16.13c-43.09,-8.06 -82.99,-19.36 -113.32,-29.03c-33.52,-9.68 -78.2,-30.65 -110.12,-59.68c-23.94,-20.97 -39.9,-48.39 -39.9,-77.42l0,-261.3c0,-30.65 15.96,-56.45 39.9,-79.03c31.92,-27.42 76.61,-48.39 110.12,-58.07zm114.91,-22.58c-43.09,9.68 -81.4,20.97 -111.72,29.03c-35.11,9.68 -76.61,30.65 -106.93,58.07c-23.94,20.97 -38.3,45.16 -38.3,72.58l0,261.3c0,27.42 14.36,51.61 38.3,72.58c30.32,27.42 71.82,46.78 106.93,56.45c30.32,9.68 68.63,20.97 111.72,29.03c43.09,9.68 89.38,16.13 132.47,16.13c43.09,0 89.38,-6.45 132.47,-16.13c43.09,-8.06 82.99,-19.36 113.32,-29.03c33.52,-9.68 76.61,-29.03 106.93,-56.45c22.34,-20.97 38.3,-45.16 38.3,-72.58l0,-261.3c0,-27.42 -15.96,-51.61 -38.3,-72.58c-30.32,-27.42 -73.42,-48.39 -106.93,-58.07c-30.32,-8.06 -70.22,-19.36 -113.32,-29.03c-43.09,-8.06 -89.38,-16.13 -132.47,-16.13c-43.09,0 -89.38,8.06 -132.47,16.13z" id="svg_7"/>
   </g>
  </g>
 </g>
</svg>