<?xml version="1.0"?>
<svg width="700" height="551" xmlns="http://www.w3.org/2000/svg" xmlns:svg="http://www.w3.org/2000/svg">
 <g class="layer">
  <title>background</title>
  <rect fill="none" height="553" id="canvas_background" width="702" x="-1" y="-1"/>
  <g display="none" id="canvasGrid">
   <rect fill="url(#gridpattern)" height="400" id="svg_1" stroke-width="0" width="580" x="1" y="67"/>
  </g>
 </g>
 <g class="layer">
  <title>Layer 1</title>
  <defs>
   <style type="text/css">.fil0 {fill:black;fill-rule:nonzero}</style>
  </defs>
  <g id="svg_15" transform="rotate(90 349.504 274.506)">
   <g id="svg_6" transform="matrix(0.946771 0 0 0.768889 -16080.4 -8492.09)">
    <metadata id="svg_8" transform="translate(96.10546875,45.401222229003906) translate(1.3100336790084839,109.43821716308594) translate(0.6563961505889893,17.147520065307617) translate(-46.33556365966797,1.667327880859375) translate(-10.315807342529297,-11.538759231567383) translate(15.866498947143555,18.22023582458496) translate(-79.33988189697266,-20.886104583740234) translate(120.43087768554688,41.40455627441406) translate(0.00019683706341311336,-1.8189894035458565e-12) translate(0,0.0001447746471967548) translate(0,-8.132669448852539) translate(0.00019683706341311336,-1.8189894035458565e-12) translate(7.740421295166016,-1.8189894035458565e-12) translate(0,-1.3536533117294312) translate(0.0004724089812953025,-1.8189894035458565e-12) translate(-0.0014565943274646997,-1.8189894035458565e-12) translate(0.012203898280858994,-1.8189894035458565e-12) translate(49.02018737792969,138.2516326904297) translate(-73.39769744873047,-211.2594757080078) translate(965.1741943359375,0) translate(15812.4990234375,0) translate(0,10749.9990234375) "/>
    <g id="svg_7">
     <path class="fil0" d="m17510.65,11777.64l0,-752c-23,-20 -48,-36 -74,-46c-27,-11 -54,-16 -83,-16c-29,0 -56,5 -83,16c-26,10 -51,26 -74,46l0,752c23,20 48,36 74,46c27,11 54,16 83,16c29,0 56,-5 83,-16c26,-10 51,-26 74,-46zm12,-755l0,758c0,1 -1,3 -2,4c-25,22 -52,39 -80,50c-28,11 -57,17 -87,17c-30,0 -59,-6 -87,-17c-28,-11 -55,-28 -79,-49c-2,-2 -3,-3 -3,-5l0,-758c0,-1 1,-3 2,-4c25,-22 52,-39 80,-50c28,-11 57,-17 87,-17c30,0 59,6 87,17c28,11 55,28 79,49c2,2 3,3 3,5z" id="svg_10"/>
     <path class="fil0" d="m17405.65,11380.64l6,-6l0,-14l-20,20l14,0zm-22,0l28,-28l0,-15l-42,43l14,0zm-23,0l51,-51l0,-7l6,-3l0,67l-117,0l10,-6l5,0l7,-7l20,-11l-19,18l15,0l38,-37l19,-12l-49,49l14,0zm-59,-45l-6,7l0,2c-2,2 -4,5 -6,7l0,-73l46,0c-1,2 -2,4 -3,6l-2,0l-35,35l0,14l23,-23c-5,9 -11,17 -17,25zm-6,-24l27,-27l-15,0l-12,12l0,15zm0,-23l4,-4l-4,0l0,4z" id="svg_11"/>
     <path class="fil0" d="m17403.65,11518.64l8,-8l0,-15l-23,23l15,0zm-23,0l31,-31l0,-14l-45,45l14,0zm-22,0l53,-53l0,-15l-68,68l15,0zm-23,0l76,-76l0,-14l-90,90l14,0zm-22,0l98,-99l0,-14l-113,113l15,0zm-18,-4l116,-117l0,-11l-3,0l-113,113l0,15zm0,-23l105,-105l-15,0l-90,91l0,14zm0,-22l82,-83l-14,0l-68,68l0,15zm0,-23l60,-60l-15,0l-45,46l0,14zm0,-22l37,-38l-14,0l-23,23l0,15zm0,-23l14,-15l-9,0l10,-6l107,0l0,144l-3,0l-125,0l0,-131l6,-4l0,12z" id="svg_12"/>
     <polygon class="fil0" id="svg_13" points="17310.641044020653,11380.640625 17516.641044020653,11380.640625 17516.641044020653,11386.640625 17300.641044020653,11386.640625 "/>
     <path class="fil0" d="m17517.65,11264.64l-326,188c-1,1 -3,1 -3,-1c-1,-1 -1,-3 0,-4c44,-35 83,-74 111,-114c27,-37 45,-75 52,-111c0,-2 1,-3 3,-3c33,0 63,4 90,11c27,6 51,17 73,29c2,1 2,2 2,4c-1,0 -1,1 -2,1zm-301,167l294,-169c-21,-11 -43,-20 -67,-27c-26,-6 -55,-10 -87,-10c-7,37 -26,74 -52,111c-24,33 -54,65 -88,95z" id="svg_14"/>
    </g>
   </g>
  </g>
 </g>
</svg>