<?xml version="1.0" encoding="UTF-8"?> <!-- Creator: CorelDRAW --> <svg xmlns="http://www.w3.org/2000/svg" xmlns:xlink="http://www.w3.org/1999/xlink" xmlns:xodm="http://www.corel.com/coreldraw/odm/2003" xml:space="preserve" width="210mm" height="100mm" style="shape-rendering:geometricPrecision; text-rendering:geometricPrecision; image-rendering:optimizeQuality; fill-rule:evenodd; clip-rule:evenodd" viewBox="0 0 21000 10000"> <defs> <style type="text/css"> <![CDATA[ .fil0 {fill:#2B2B2A;fill-rule:nonzero} ]]> </style> </defs> <g id="Слой_x0020_1"> <metadata id="CorelCorpID_0Corel-Layer"></metadata> <g id="_140167540803536"> <path class="fil0" d="M11458.46 6782.56c25.94,0 46.99,21.04 46.99,46.99 0,25.95 -21.05,46.99 -46.99,46.99l-9793.44 21.09c-336.81,3.79 -556.53,-40.63 -694.51,-155.12 -141.06,-117.01 -192.8,-300.68 -191.73,-573.36 1.26,-324.45 74.95,-506.38 226.83,-607.64 148.17,-98.8 365.01,-114.09 659.61,-108.72l13391.84 -63.34 12.72 1.66 569.92 158.32 -13.62 92.33 -431.63 -10.51 -2326.86 0.16 -572.02 949.98c-1.85,20.3 1.15,35.31 9.64,44.19 11.57,12.13 35.03,19 71.44,19.75l2353.47 -0.2 12.91 92.37 -548.8 158.31 -13.11 1.82 -2247.95 -10.54c-25.94,-0.08 -46.87,-21.25 -46.8,-47.19 0.08,-25.95 21.25,-46.88 47.2,-46.8l2241.24 10.5 222.21 -64.09 -2021.12 -0.2c-63.86,-1.18 -109.55,-18.08 -138.93,-48.81 -31.32,-32.85 -41.66,-77.24 -33.61,-131.62l6.28 -17.49 591.02 -981.5 40.36 -22.86c797.27,0 1613.14,-17.89 2408,1.5l-198.2 -55.05 -13386.9 63.3c-276.79,-5.01 -478.35,7.82 -605.94,92.92 -123.96,82.66 -184.11,240.93 -185.21,529.65 -0.95,243.3 41.62,404.1 157.84,500.5 119.34,99.04 320.19,137.31 633.7,133.79l9794.15 -21.08z"></path> <path class="fil0" d="M17206.05 6268.94l-2121.27 422.16 -48.13 -20.1c-32.9,-49.09 -74.4,-85.11 -124.24,-107.73 -51.06,-23.19 -111.76,-33.14 -181.82,-29.78 -507.72,35.07 -946.31,64.09 -1315.46,87.08 -365.56,22.78 -660.91,39.57 -885.89,50.15l-1.11 0c-93.15,2.33 -158.51,-23.5 -196.03,-77.4 -36.05,-51.69 -41.98,-125.7 -17.89,-221.66l5.37 -12.92 481.08 -798.85 40.36 -22.66 4946.25 15.79c366.59,-7.34 703.64,64.05 1010.88,214.04 306.92,149.87 584.06,378.16 831.23,684.68l10.15 24.33c8.93,80.09 -6.51,131.03 -46.24,152.51 -38.03,20.62 -88.78,7.66 -152.2,-38.7 -244.48,-129.33 -489.4,-214.19 -734.72,-254.51 -245.71,-40.32 -492.64,-36.1 -740.48,12.75l-39.65 -10.5c-86.25,-73.57 -182.88,-106.67 -296.73,-113.77 -118.91,-7.43 -257.99,12.87 -423.46,45.09zm-2109.97 323.75l2091.89 -416.31c172.49,-33.53 318.45,-54.62 447.46,-46.52 126.41,7.94 235.36,43.52 334.13,121.51 251.2,-46.95 501.92,-49.92 751.9,-8.89 256.69,42.18 512.27,130.8 766.51,265.7l6.12 3.87c32.78,24.32 51.02,35.54 54.57,33.6 2.06,-1.1 1.62,-16.39 -1.34,-45.65 -235.91,-289.94 -499.51,-505.99 -790.48,-648.11 -294.16,-143.63 -616.84,-211.95 -967.91,-204.88l-4921.26 -15.72 -463.66 769.91c-15.36,64.8 -13.62,110.97 5.42,138.33 18,26.18 56.55,38.54 115.39,37.24 221.89,-10.5 516.93,-27.29 884.78,-50.19 364.3,-22.71 802.52,-51.73 1314.75,-87.04l0.91 0c85.74,-4.22 161.08,8.37 225.85,37.79 56.9,25.83 105.28,64.33 144.97,115.36z"></path> <path class="fil0" d="M13796.37 6041.91c0,-55.2 -22.27,-105.12 -58.25,-141.06 -36.13,-36.17 -86.05,-58.44 -141.26,-58.44 -55.2,0 -105.12,22.27 -141.06,58.25 -36.17,36.13 -58.44,86.05 -58.44,141.25 0,55.21 22.27,105.13 58.25,141.06 36.13,36.18 86.05,58.45 141.25,58.45 55.21,0 105.13,-22.27 141.06,-58.25 36.18,-36.13 58.45,-86.05 58.45,-141.26zm8.09 -207.8c53.4,53.47 86.29,126.93 86.29,207.8 0,80.88 -32.93,154.37 -86.09,207.6 -53.47,53.4 -126.92,86.29 -207.8,86.29 -80.87,0 -154.37,-32.93 -207.6,-86.09 -53.35,-53.43 -86.28,-126.92 -86.28,-207.8 0,-80.87 32.89,-154.33 86.08,-207.6 53.43,-53.35 126.93,-86.28 207.8,-86.28 80.88,0 154.33,32.89 207.6,86.08z"></path> <path class="fil0" d="M13776.54 5919.89c-25.94,0 -46.99,-21.05 -46.99,-47 0,-25.94 21.05,-46.99 46.99,-46.99l1167.18 1.46 23.62 6.24 75.03 43.32 766.75 0 12.16 1.66 48.65 13.03 116.22 0.83c25.95,0.08 46.88,21.25 46.8,47.19 -0.08,25.95 -21.25,46.88 -47.19,46.8l-122.9 -0.87 -11.96 -1.46 -47.75 -12.8 -773.26 0 -23.61 -6.43 -75.39 -43.52 -1154.35 -1.46zm2189.55 157.68c25.95,-0.47 47.43,20.14 47.9,46.09 0.48,25.94 -20.14,47.43 -46.08,47.9l-138.73 2.76 -36.06 24.05 -26.18 8.1 -760.31 0 -71.63 53.71 -28.2 9.59 -1141.98 0c-26.03,0 -47.2,-21.16 -47.2,-47.19 0,-26.02 21.17,-47.19 47.2,-47.19l1126.58 0 71.63 -53.71 28.2 -9.59 761.65 0 35.35 -23.58 25.27 -7.9 152.59 -3.04z"></path> <path class="fil0" d="M16438.87 6039.19c-1.82,-65.6 -42.89,-101.69 -98.69,-116.89 -31.03,-8.41 -66.3,-11.26 -102.51,-9.56 -37.68,1.74 -76.46,8.37 -112.94,18.4 -91.19,25.16 -167.09,68 -167.05,106.75 0.04,42.17 82.69,86.95 179.29,111.56 38.03,9.67 77.44,15.59 114.72,16.54 36.33,0.87 71.16,-2.76 101.09,-12.08 51.66,-16.07 87.87,-51.85 86.09,-114.72zm-73.96 -207.96c94.89,25.83 164.67,89.05 167.95,205.35 3.24,114.45 -60.74,178.85 -152.04,207.29 -39.77,12.36 -84.9,17.25 -131.34,16.11 -45.58,-1.15 -92.18,-7.98 -135.73,-19.07 -134.71,-34.32 -249.98,-113.78 -250.06,-203.02 -0.08,-84.59 107.1,-161.84 236,-197.42 43.04,-11.84 88.89,-19.62 133.55,-21.72 46.13,-2.13 91.39,1.54 131.67,12.48z"></path> <path class="fil0" d="M15861.4 6126.86c0.4,25.94 -20.3,47.35 -46.24,47.74 -25.95,0.4 -47.35,-20.3 -47.74,-46.24l-2.69 -150.46c-0.39,-25.95 20.3,-47.35 46.24,-47.74 25.95,-0.4 47.35,20.29 47.75,46.24l2.68 150.46z"></path> <path class="fil0" d="M11883.41 6760.64c0,-26.03 21.17,-47.19 47.19,-47.19 26.03,0 47.19,21.16 47.19,47.19l0 224.27 -47.19 47.19 -313.98 0 -6.99 -0.56c-66.31,-10.07 -112.51,-37.63 -148.33,-83.64 -32.5,-42.02 -54.3,-97.66 -74.72,-169.06 -7.11,-25.03 7.39,-51.14 32.42,-58.24 25.04,-7.11 51.15,7.38 58.25,32.42 17.38,60.85 34.79,106.78 58.33,136.99 20.06,25.55 46.4,41.27 84.59,47.7l263.24 0 0 -177.07z"></path> <path class="fil0" d="M14748.29 6703.26l267.35 -36.17c-33.41,-36.34 -75.11,-69.27 -123.53,-93.28 -61.05,-30.25 -133.2,-46.24 -213.37,-36.73l-1884.88 117.21 1954.43 48.97zm360.11 46.24l-350.91 47.51 -7.39 0.36 -2406.11 -60.31c-18.13,0 -34.4,-1.89 -48.57,-5.45 -31.64,-7.93 -55.88,-23.97 -72.75,-46.44 -16.54,-21.87 -24.76,-49 -24.91,-79.61 -0.08,-16.47 2.13,-33.76 6.51,-51.26l5.37 -12.91 109.94 -182.65 86.45 34.48c-12.01,54.54 -16.55,102.99 -0.55,134.27 14.17,27.76 49.95,46.16 120.52,49.12l2141.69 -133.2c99.79,-11.84 189.79,8.18 266.04,45.97 91.27,45.26 162.9,116.3 208.2,188.41l-33.53 71.71zm-2708.57 -105.08c-37.04,-17.5 -62.04,-42.93 -78.07,-74.2 -3.12,-6.09 -5.85,-12.32 -8.22,-18.72l-19.27 32.06c-1.7,8.06 -2.57,15.33 -2.53,21.61 0.04,9.91 2.18,18.08 6.32,23.61 3.6,5.02 10.43,8.93 20.18,11.37 7.74,1.94 16.71,2.97 26.58,2.93l55.01 1.34z"></path> <path class="fil0" d="M11598.37 6530.57c0,-85.74 11.41,-781 -8.61,-801.03 -5.49,-5.49 -12.91,-8.8 -21.17,-8.8 -8.17,0 -15.63,3.39 -21.04,8.8 -5.37,5.37 -8.77,12.84 -8.77,20.97l0 780.06c0,8.21 3.36,15.71 8.69,21.09 5.37,5.33 12.87,8.68 21.09,8.68 8.17,0 15.63,-3.39 21,-8.76 5.41,-5.41 8.81,-12.88 8.81,-21.01zm94.38 -780.06l0 780.06c0,34.2 -13.98,65.28 -36.45,87.75 -22.43,22.43 -53.51,36.41 -87.71,36.41 -34.08,0 -65.08,-13.98 -87.59,-36.41 -22.62,-22.71 -36.6,-53.71 -36.6,-87.75l0 -780.06c0,-34.2 13.98,-65.27 36.41,-87.71 22.47,-22.47 53.55,-36.44 87.75,-36.44 33.96,0 65,13.97 87.55,36.44 22.66,22.75 36.64,53.79 36.64,87.71z"></path> <path class="fil0" d="M11255.91 6530.57l0 -780.06c0,-8.25 -3.32,-15.67 -8.61,-20.97 -5.49,-5.49 -12.91,-8.8 -21.17,-8.8 -8.29,0 -15.75,3.31 -21.04,8.61 -5.49,5.49 -8.81,12.91 -8.81,21.16l0 780.06c0,8.21 3.32,15.68 8.61,20.97 5.49,5.49 12.95,8.8 21.2,8.8 8.3,0 15.72,-3.31 21.01,-8.61 5.49,-5.48 8.81,-12.95 8.81,-21.16zm94.38 -780.06l0 780.06c0,33.96 -13.98,64.96 -36.45,87.51 -22.74,22.67 -53.78,36.65 -87.71,36.65 -33.96,0 -65.04,-13.98 -87.59,-36.45 -22.66,-22.75 -36.64,-53.75 -36.64,-87.71l0 -780.06c0,-33.92 13.98,-64.96 36.45,-87.51 22.74,-22.67 53.82,-36.64 87.74,-36.64 33.97,0 65.01,13.97 87.55,36.44 22.67,22.75 36.65,53.79 36.65,87.71z"></path> <path class="fil0" d="M10913.41 6530.57l0 -780.06c0,-8.25 -3.32,-15.67 -8.61,-20.97 -5.49,-5.49 -12.91,-8.8 -21.17,-8.8 -8.17,0 -15.64,3.39 -21.05,8.8 -5.37,5.37 -8.76,12.84 -8.76,20.97l0 780.06c0,8.21 3.35,15.71 8.69,21.09 5.37,5.33 12.87,8.68 21.08,8.68 8.18,0 15.64,-3.39 21.01,-8.76 5.41,-5.41 8.81,-12.88 8.81,-21.01zm94.38 -780.06l0 780.06c0,34.2 -13.98,65.28 -36.45,87.75 -22.43,22.43 -53.51,36.41 -87.71,36.41 -34.08,0 -65.08,-13.98 -87.59,-36.41 -22.62,-22.71 -36.6,-53.71 -36.6,-87.75l0 -780.06c0,-34.2 13.98,-65.27 36.41,-87.71 22.47,-22.47 53.54,-36.44 87.74,-36.44 33.97,0 65,13.97 87.55,36.44 22.67,22.75 36.65,53.79 36.65,87.71z"></path> <path class="fil0" d="M10570.95 6530.57l0 -780.06c0,-8.25 -3.32,-15.67 -8.61,-20.97 -5.49,-5.49 -12.91,-8.8 -21.17,-8.8 -8.17,0 -15.64,3.39 -21.05,8.8 -5.37,5.37 -8.76,12.84 -8.76,20.97l0 780.06c0,8.21 3.35,15.71 8.68,21.09 5.38,5.33 12.88,8.68 21.09,8.68 8.18,0 15.64,-3.39 21.01,-8.76 5.41,-5.41 8.81,-12.88 8.81,-21.01zm94.38 -780.06l0 780.06c0,34.2 -13.98,65.28 -36.45,87.75 -22.43,22.43 -53.51,36.41 -87.71,36.41 -34.08,0 -65.08,-13.98 -87.59,-36.41 -22.63,-22.71 -36.61,-53.71 -36.61,-87.75l0 -780.06c0,-34.2 13.98,-65.27 36.41,-87.71 22.47,-22.47 53.55,-36.44 87.75,-36.44 33.96,0 65,13.97 87.55,36.44 22.67,22.75 36.65,53.79 36.65,87.71z"></path> <path class="fil0" d="M10228.45 6530.57l0 -780.06c0,-8.13 -3.4,-15.6 -8.77,-20.97 -5.29,-5.49 -12.72,-8.8 -20.97,-8.8 -8.21,0 -15.68,3.39 -21.09,8.8 -5.37,5.37 -8.76,12.84 -8.76,20.97l0 780.06c0,8.21 3.35,15.71 8.68,21.09 5.37,5.33 12.88,8.68 21.09,8.68 8.33,0 15.76,-3.31 21.05,-8.61 5.37,-5.56 8.77,-13.03 8.77,-21.16zm94.38 -780.06l0 780.06c0,34.2 -13.98,65.28 -36.41,87.71 -22.63,22.43 -53.71,36.45 -87.71,36.45 -34.12,0 -65.12,-13.98 -87.63,-36.41 -22.63,-22.71 -36.61,-53.71 -36.61,-87.75l0 -780.06c0,-34.2 13.98,-65.27 36.41,-87.71 22.47,-22.47 53.55,-36.44 87.75,-36.44 34.08,0 65.16,14.01 87.67,36.56 22.55,22.32 36.53,53.39 36.53,87.59z"></path> <path class="fil0" d="M9885.99 6530.57l0 -780.06c0,-8.25 -3.32,-15.67 -8.61,-20.97 -5.49,-5.49 -12.92,-8.8 -21.17,-8.8 -8.17,0 -15.64,3.39 -21.05,8.8 -5.37,5.37 -8.77,12.84 -8.77,20.97l0 780.06c0,8.21 3.36,15.71 8.69,21.09 5.37,5.33 12.88,8.68 21.09,8.68 8.18,0 15.64,-3.39 21.01,-8.76 5.41,-5.41 8.81,-12.88 8.81,-21.01zm94.38 -780.06l0 780.06c0,34.2 -13.98,65.28 -36.45,87.75 -22.43,22.43 -53.51,36.41 -87.71,36.41 -34.08,0 -65.08,-13.98 -87.59,-36.41 -22.63,-22.71 -36.61,-53.71 -36.61,-87.75l0 -780.06c0,-34.2 13.98,-65.27 36.41,-87.71 22.47,-22.47 53.55,-36.44 87.75,-36.44 33.96,0 65,13.97 87.55,36.44 22.67,22.75 36.65,53.79 36.65,87.71z"></path> <path class="fil0" d="M9543.52 6530.57l0 -780.06c0,-8.25 -3.31,-15.67 -8.6,-20.97 -5.49,-5.49 -12.92,-8.8 -21.17,-8.8 -8.18,0 -15.64,3.39 -21.05,8.8 -5.37,5.37 -8.77,12.84 -8.77,20.97l0 780.06c0,8.21 3.36,15.71 8.69,21.09 5.37,5.33 12.88,8.68 21.09,8.68 8.17,0 15.64,-3.39 21.01,-8.76 5.41,-5.41 8.8,-12.88 8.8,-21.01zm94.39 -780.06l0 780.06c0,34.2 -13.98,65.28 -36.45,87.75 -22.43,22.43 -53.51,36.41 -87.71,36.41 -34.08,0 -65.08,-13.98 -87.59,-36.41 -22.63,-22.71 -36.61,-53.71 -36.61,-87.75l0 -780.06c0,-34.2 13.98,-65.27 36.41,-87.71 22.47,-22.47 53.55,-36.44 87.75,-36.44 33.96,0 65,13.97 87.55,36.44 22.67,22.75 36.65,53.79 36.65,87.71z"></path> <path class="fil0" d="M9201.02 6530.57l0 -780.06c0,-8.25 -3.31,-15.67 -8.6,-20.97 -5.49,-5.49 -12.92,-8.8 -21.17,-8.8 -8.18,0 -15.64,3.39 -21.05,8.8 -5.37,5.37 -8.77,12.84 -8.77,20.97l0 780.06c0,8.21 3.36,15.71 8.69,21.09 5.37,5.33 12.88,8.68 21.09,8.68 8.17,0 15.64,-3.39 21.01,-8.76 5.41,-5.41 8.8,-12.88 8.8,-21.01zm94.39 -780.06l0 780.06c0,34.2 -13.98,65.28 -36.45,87.75 -22.43,22.43 -53.51,36.41 -87.71,36.41 -34.08,0 -65.08,-13.98 -87.59,-36.41 -22.63,-22.71 -36.61,-53.71 -36.61,-87.75l0 -780.06c0,-34.2 13.98,-65.27 36.41,-87.71 22.47,-22.47 53.55,-36.44 87.75,-36.44 33.96,0 65,13.97 87.55,36.44 22.67,22.75 36.65,53.79 36.65,87.71z"></path> <path class="fil0" d="M8858.56 6530.57l0 -780.06c0,-8.25 -3.31,-15.67 -8.61,-20.97 -5.48,-5.49 -12.91,-8.8 -21.16,-8.8 -8.18,0 -15.64,3.39 -21.05,8.8 -5.37,5.37 -8.77,12.84 -8.77,20.97l0 780.06c0,8.21 3.36,15.71 8.69,21.09 5.37,5.33 12.87,8.68 21.09,8.68 8.17,0 15.64,-3.39 21.01,-8.76 5.41,-5.41 8.8,-12.88 8.8,-21.01zm94.39 -780.06l0 780.06c0,34.2 -13.98,65.28 -36.45,87.75 -22.43,22.43 -53.51,36.41 -87.71,36.41 -34.08,0 -65.08,-13.98 -87.59,-36.41 -22.63,-22.71 -36.61,-53.71 -36.61,-87.75l0 -780.06c0,-34.2 13.98,-65.27 36.41,-87.71 22.47,-22.47 53.55,-36.44 87.75,-36.44 33.96,0 65,13.97 87.55,36.44 22.67,22.75 36.65,53.79 36.65,87.71z"></path> <path class="fil0" d="M8516.1 6530.57l0 -780.06c0,-8.25 -3.31,-15.67 -8.61,-20.97 -5.49,-5.49 -12.91,-8.8 -21.16,-8.8 -8.3,0 -15.76,3.31 -21.05,8.61 -5.49,5.49 -8.81,12.91 -8.81,21.16l0 780.06c0,8.21 3.32,15.68 8.61,20.97 5.49,5.49 12.95,8.8 21.21,8.8 8.29,0 15.71,-3.31 21.01,-8.61 5.49,-5.48 8.8,-12.95 8.8,-21.16zm94.38 -780.06l0 780.06c0,33.96 -13.98,64.96 -36.45,87.51 -22.74,22.67 -53.78,36.65 -87.7,36.65 -33.97,0 -65.04,-13.98 -87.59,-36.45 -22.67,-22.75 -36.65,-53.75 -36.65,-87.71l0 -780.06c0,-33.92 13.98,-64.96 36.45,-87.51 22.75,-22.67 53.82,-36.64 87.75,-36.64 33.96,0 65,13.97 87.55,36.44 22.66,22.75 36.64,53.79 36.64,87.71z"></path> <path class="fil0" d="M8173.6 6530.57l0 -780.06c0,-8.25 -3.32,-15.67 -8.61,-20.97 -5.49,-5.49 -12.91,-8.8 -21.16,-8.8 -8.18,0 -15.64,3.39 -21.05,8.8 -5.37,5.37 -8.77,12.84 -8.77,20.97l0 780.06c0,8.21 3.36,15.71 8.69,21.09 5.37,5.33 12.87,8.68 21.09,8.68 8.17,0 15.63,-3.39 21.01,-8.76 5.41,-5.41 8.8,-12.88 8.8,-21.01zm94.38 -780.06l0 780.06c0,34.2 -13.98,65.28 -36.45,87.75 -22.43,22.43 -53.51,36.41 -87.7,36.41 -34.08,0 -65.08,-13.98 -87.59,-36.41 -22.63,-22.71 -36.61,-53.71 -36.61,-87.75l0 -780.06c0,-34.2 13.98,-65.27 36.41,-87.71 22.47,-22.47 53.55,-36.44 87.75,-36.44 33.96,0 65,13.97 87.55,36.44 22.66,22.75 36.64,53.79 36.64,87.71z"></path> <path class="fil0" d="M7831.14 6530.57l0 -780.06c0,-8.25 -3.32,-15.67 -8.61,-20.97 -5.49,-5.49 -12.91,-8.8 -21.17,-8.8 -8.17,0 -15.63,3.39 -21.04,8.8 -5.37,5.37 -8.77,12.84 -8.77,20.97l0 780.06c0,8.21 3.36,15.71 8.69,21.09 5.37,5.33 12.87,8.68 21.09,8.68 8.17,0 15.63,-3.39 21,-8.76 5.41,-5.41 8.81,-12.88 8.81,-21.01zm94.38 -780.06l0 780.06c0,34.2 -13.98,65.28 -36.45,87.75 -22.43,22.43 -53.51,36.41 -87.71,36.41 -34.08,0 -65.08,-13.98 -87.59,-36.41 -22.62,-22.71 -36.6,-53.71 -36.6,-87.75l0 -780.06c0,-34.2 13.98,-65.27 36.41,-87.71 22.47,-22.47 53.55,-36.44 87.75,-36.44 33.96,0 65,13.97 87.55,36.44 22.66,22.75 36.64,53.79 36.64,87.71z"></path> <path class="fil0" d="M7488.64 6530.57l0 -780.06c0,-8.13 -3.4,-15.6 -8.77,-20.97 -5.29,-5.49 -12.71,-8.8 -20.97,-8.8 -8.21,0 -15.67,3.39 -21.08,8.8 -5.37,5.37 -8.77,12.84 -8.77,20.97l0 780.06c0,8.21 3.36,15.71 8.69,21.09 5.37,5.33 12.87,8.68 21.08,8.68 8.34,0 15.76,-3.31 21.05,-8.61 5.37,-5.56 8.77,-13.03 8.77,-21.16zm94.38 -780.06l0 780.06c0,34.2 -13.98,65.28 -36.41,87.71 -22.63,22.43 -53.71,36.45 -87.71,36.45 -34.12,0 -65.12,-13.98 -87.63,-36.41 -22.62,-22.71 -36.6,-53.71 -36.6,-87.75l0 -780.06c0,-34.2 13.98,-65.27 36.41,-87.71 22.47,-22.47 53.55,-36.44 87.74,-36.44 34.08,0 65.16,14.01 87.67,36.56 22.55,22.32 36.53,53.39 36.53,87.59z"></path> <path class="fil0" d="M17031.27 2077.94l-8094.16 -161 -6.6 1452.42 66.19 193.5 2.57 15.13 0 148.88 7850.78 104.01 176.08 -222.41 5.14 -1530.53zm-8140.01 -255.94l8188.07 162.86 46.08 47 -5.33 1593.04 -10.11 29.14 -200.53 253.3 -37.44 17.85 -7920.48 -104.97 -46.63 -46.99 0 -187.62 -66.03 -193.03 -2.37 -15.32 6.87 -1508.46 47.9 -46.8z"></path> <path class="fil0" d="M16867.9 3599.59c25.94,0.27 46.71,21.6 46.44,47.54 -0.28,25.95 -21.6,46.72 -47.55,46.44l-7778.08 -94.97c-25.94,-0.28 -46.71,-21.6 -46.44,-47.55 0.28,-25.94 21.6,-46.71 47.55,-46.44l7778.08 94.98z"></path> <path class="fil0" d="M15911.91 3488.26c0,26.03 -21.17,47.19 -47.19,47.19 -26.02,0 -47.19,-21.16 -47.19,-47.19l0 -1361.39c0,-26.02 21.17,-47.19 47.19,-47.19 26.02,0 47.19,21.17 47.19,47.19l0 1361.39z"></path> <path class="fil0" d="M1971.79 6162.67c0,-78.34 -31.79,-149.31 -83.09,-200.61 -51.3,-51.29 -122.26,-83.08 -200.57,-83.08 -78.35,0 -149.32,31.79 -200.62,83.08 -51.29,51.3 -83.08,122.27 -83.08,200.61 0,78.31 31.79,149.28 83.08,200.58 51.3,51.29 122.27,83.08 200.62,83.08 78.31,0 149.27,-31.79 200.57,-83.08 51.3,-51.3 83.09,-122.27 83.09,-200.58zm-16.35 -267.35c68.36,68.36 110.73,162.94 110.73,267.35 0,104.42 -42.37,198.96 -110.73,267.32 -68.36,68.35 -162.98,110.73 -267.31,110.73 -104.42,0 -199,-42.38 -267.35,-110.73 -68.36,-68.36 -110.74,-162.9 -110.74,-267.32 0,-104.41 42.38,-198.99 110.74,-267.35 68.35,-68.35 162.93,-110.73 267.35,-110.73 104.41,0 198.95,42.38 267.31,110.73z"></path> <polygon class="fil0" points="16045.15,6214.92 15195.16,6232.3 15122.66,6284.46 15094.81,6293.31 14862.61,6290.66 14837.14,6204.42 14965.4,6120.03 14991.23,6112.09 15755.69,6112.09 15807.1,6085.47 15827.76,6080.34 15966.09,6077.57 15990.02,6083.46 16067.27,6126.82 "></polygon> <polygon class="fil0" points="15196.54,5838.34 16045.15,5855.72 16067.27,5943.82 15990.02,5987.22 15966.09,5993.1 15827.76,5990.34 15807.1,5985.2 15755.69,5958.59 14991.23,5958.59 14965.4,5950.65 14883.58,5896.83 14909.05,5810.58 15141.26,5807.93 15170.91,5818.04 "></polygon> </g> </g> </svg> 