<?xml version="1.0" encoding="UTF-8"?> <svg xmlns="http://www.w3.org/2000/svg" width="973" height="238" viewBox="0 0 973 238" fill="none"> <path d="M951.811 181.672L935.735 174.912L698.039 169.902L679.452 202.432L682.196 206.397L812.134 201.65L813.859 202.197L821.489 208.031L951.811 181.672ZM937.344 169.766L959.58 179.117L960.117 183.768L957.338 185.789L956.287 186.242L821.347 213.534L819.189 213.039L811.356 207.052L680.918 211.817L678.614 210.66L674.066 204.09L673.94 201.227L694.156 165.849L696.543 164.502L936.355 169.557L937.344 169.766Z" fill="#1A1A18"></path> <path d="M638.115 232.231C636.636 232.231 635.433 231.029 635.433 229.549C635.433 228.069 636.636 226.866 638.115 226.866L715.762 226.794L733.039 215.357L733.871 214.99L736.967 214.216L739.255 211.039L678.202 217.744L676.414 217.292L669.339 212.491L668.539 208.903L694.188 165.817L696.544 164.502L760.643 165.855L748.685 163.928C698.802 163.252 642.366 165.336 593.352 161.406C577.303 161.688 562.523 161.03 546.411 160.393L412.261 156.348L228.782 149.527L42.8628 142.705C24.1292 143.14 12.7363 154.192 7.99106 168.072C6.088 173.638 5.23653 179.65 5.38386 185.617C5.5336 191.581 6.69053 197.521 8.80893 202.94C13.9985 216.235 25.0548 226.329 41.2891 225.783L229.897 226.541L363.823 227.55L521.741 227.045L615.241 226.541C616.721 226.537 617.93 227.734 617.934 229.214C617.938 230.694 616.741 231.903 615.261 231.906L521.761 232.411L363.815 232.916L229.877 231.906L41.4428 231.149C22.5674 231.779 9.76213 220.176 3.79839 204.899C1.46266 198.919 0.185861 192.351 0.0185273 185.745C-0.147073 179.139 0.796251 172.489 2.89652 166.345C8.32812 150.452 21.3769 137.8 42.8391 137.338L228.969 144.161L412.428 150.983C468.024 152.658 523.586 154.194 579.165 156.288C586.8 156.155 592.6 155.947 600.046 156.544L748.959 158.564L749.348 158.596L799.634 166.7L799.161 172.034L697.994 169.9L674.437 209.469L678.598 212.293L757.192 203.66L758.18 208.922L744.738 212.607L740.745 218.156L739.219 219.197L735.623 220.096L718.066 231.719L716.582 232.16L638.115 232.231Z" fill="#1A1A18"></path> <path d="M614.62 216.293C614.852 214.831 616.23 213.831 617.692 214.063C619.154 214.294 620.153 215.672 619.922 217.135L618.087 228.506L621.231 232.581L633.855 232.377L635.352 229.122L633.93 217.406C633.757 215.93 634.812 214.591 636.288 214.418C637.764 214.244 639.102 215.299 639.276 216.775L640.788 229.234L640.556 230.674L638.033 236.157L635.634 237.715L619.966 237.968L617.798 236.927L613.124 230.869L612.6 228.807L614.62 216.293Z" fill="#1A1A18"></path> <path fill-rule="evenodd" clip-rule="evenodd" d="M459.838 217.092V166.2C459.838 164.188 458.18 162.381 456.156 162.323H456.156C454.132 162.264 452.474 163.751 452.474 165.76V216.652C452.474 218.66 454.129 220.47 456.156 220.529H456.156C458.183 220.588 459.838 219.103 459.838 217.092Z" fill="#1A1A18"></path> <path fill-rule="evenodd" clip-rule="evenodd" d="M597.473 218.154V170.127C597.473 168.115 595.827 166.419 593.816 166.357H593.815C591.804 166.294 590.158 167.889 590.158 169.9V217.927C590.158 219.939 591.804 221.635 593.815 221.698H593.816C595.827 221.76 597.473 220.165 597.473 218.154Z" fill="#1A1A18"></path> <path fill-rule="evenodd" clip-rule="evenodd" d="M583.804 217.731V169.704C583.804 167.692 582.158 165.996 580.147 165.934H580.147C578.135 165.871 576.489 167.466 576.489 169.477V217.504C576.489 219.516 578.135 221.212 580.147 221.274H580.147C582.158 221.337 583.804 219.742 583.804 217.731Z" fill="#1A1A18"></path> <path fill-rule="evenodd" clip-rule="evenodd" d="M570.134 217.308V169.281C570.134 167.27 568.49 165.573 566.478 165.511H566.478C564.466 165.448 562.82 167.043 562.82 169.055V217.082C562.82 219.093 564.466 220.789 566.478 220.852H566.478C568.49 220.914 570.134 219.319 570.134 217.308Z" fill="#1A1A18"></path> <path fill-rule="evenodd" clip-rule="evenodd" d="M556.465 216.885V168.858C556.465 166.846 554.82 165.15 552.809 165.088H552.809C550.797 165.026 549.151 166.62 549.151 168.631V216.659C549.151 218.67 550.797 220.367 552.809 220.429H552.809C554.82 220.491 556.465 218.896 556.465 216.885Z" fill="#1A1A18"></path> <path fill-rule="evenodd" clip-rule="evenodd" d="M542.796 216.462V168.435C542.796 166.424 541.15 164.727 539.139 164.665H539.138C537.127 164.602 535.481 166.197 535.481 168.209V216.236C535.481 218.247 537.127 219.943 539.138 220.006H539.139C541.15 220.068 542.796 218.474 542.796 216.462Z" fill="#1A1A18"></path> <path fill-rule="evenodd" clip-rule="evenodd" d="M529.127 216.517V168.012C529.127 166.001 527.482 164.242 525.47 164.242H525.469C523.457 164.242 521.812 165.775 521.812 167.786V216.29C521.812 218.301 523.457 220.061 525.469 220.061H525.47C527.482 220.061 529.127 218.528 529.127 216.517Z" fill="#1A1A18"></path> <path fill-rule="evenodd" clip-rule="evenodd" d="M515.458 216.572V167.589C515.458 165.578 513.812 163.819 511.801 163.819H511.8C509.788 163.819 508.143 165.353 508.143 167.363V216.345C508.143 218.356 509.787 220.115 511.8 220.115H511.801C513.813 220.115 515.458 218.583 515.458 216.572Z" fill="#1A1A18"></path> <path fill-rule="evenodd" clip-rule="evenodd" d="M501.788 216.626V167.166C501.788 165.155 500.142 163.396 498.131 163.396H498.131C496.12 163.396 494.474 164.93 494.474 166.94V216.4C494.474 218.41 496.118 220.17 498.131 220.17H498.131C500.144 220.17 501.788 218.637 501.788 216.626Z" fill="#1A1A18"></path> <path fill-rule="evenodd" clip-rule="evenodd" d="M488.119 216.681V166.744C488.119 164.732 486.472 162.974 484.462 162.974H484.462C482.451 162.974 480.805 164.508 480.805 166.518V216.455C480.805 218.464 482.449 220.225 484.462 220.225H484.462C486.474 220.225 488.119 218.692 488.119 216.681Z" fill="#1A1A18"></path> <path fill-rule="evenodd" clip-rule="evenodd" d="M474.45 216.735V166.321C474.45 164.309 472.803 162.551 470.793 162.551H470.793C468.783 162.551 467.136 164.085 467.136 166.094V216.509C467.136 218.518 468.781 220.279 470.793 220.279H470.793C472.805 220.279 474.45 218.747 474.45 216.735Z" fill="#1A1A18"></path> <path fill-rule="evenodd" clip-rule="evenodd" d="M447.113 216.845V165.475C447.113 163.464 445.465 161.705 443.456 161.705H443.455C441.446 161.705 439.798 163.241 439.798 165.249V216.618C439.798 218.626 441.442 220.389 443.455 220.389H443.456C445.468 220.389 447.113 218.856 447.113 216.845Z" fill="#1A1A18"></path> <path fill-rule="evenodd" clip-rule="evenodd" d="M433.443 216.9V165.052C433.443 163.041 431.795 161.282 429.787 161.282H429.786C427.777 161.282 426.129 162.819 426.129 164.826V216.673C426.129 218.681 427.773 220.444 429.786 220.444H429.787C431.799 220.444 433.443 218.911 433.443 216.9Z" fill="#1A1A18"></path> <path fill-rule="evenodd" clip-rule="evenodd" d="M419.773 216.954V164.629C419.773 162.618 418.124 160.859 416.117 160.859H416.116C414.108 160.859 412.459 162.396 412.459 164.403V216.728C412.459 218.735 414.103 220.498 416.116 220.498H416.117C418.129 220.498 419.773 218.966 419.773 216.954Z" fill="#1A1A18"></path> <path fill-rule="evenodd" clip-rule="evenodd" d="M406.951 217.432V164.629C406.951 162.618 405.302 160.859 403.294 160.859H403.294C401.286 160.859 399.637 162.396 399.637 164.403V217.205C399.637 219.212 401.281 220.976 403.294 220.976H403.294C405.306 220.976 406.951 219.443 406.951 217.432Z" fill="#1A1A18"></path> <path d="M953.63 176.973C955.106 176.817 956.431 177.886 956.586 179.362C956.742 180.838 955.673 182.163 954.197 182.318L949.852 182.789L948.464 182.568L936.335 177.07L935.02 175.776L933.884 173.396C933.245 172.062 933.812 170.458 935.146 169.82C936.48 169.182 938.084 169.748 938.722 171.083L939.433 172.571L950.012 177.366L953.63 176.973Z" fill="#1A1A18"></path> <path d="M832.972 199.005L821.441 197.441C819.548 197.188 818.599 197.058 817.533 196.66C816.506 196.276 815.734 195.784 814.286 194.836L791.854 194.248C790.68 195.106 789.732 195.7 788.38 196.121C786.868 196.59 785.063 196.737 782.045 196.676L737.088 195.75L735.319 196.446C732.373 197.645 728.172 199.354 723.906 199.243C718.046 199.089 714.032 196.143 712.058 192.313C711.192 190.634 710.727 188.771 710.682 186.898C710.636 185.017 711.007 183.126 711.81 181.401C713.627 177.497 717.581 174.368 723.782 173.905C727.532 173.626 732 175.447 735.44 176.849L737.681 177.734C753.069 178.038 768.564 178.168 783.934 178.648C788.903 178.746 789.499 178.762 792.824 181.782L813.993 182.015C816.773 180.276 817.298 180.216 820.178 179.909L833.56 178.327L833.853 178.317C839.241 178.255 842.69 180.934 844.249 184.387C844.937 185.908 845.238 187.584 845.165 189.236C845.091 190.893 844.632 192.537 843.808 193.987C841.95 197.256 838.313 199.574 833.045 199.015L832.972 199.005ZM822.626 192.18L833.612 193.67C836.408 193.967 838.26 192.88 839.137 191.334C839.538 190.628 839.763 189.818 839.799 189.004C839.835 188.183 839.685 187.349 839.346 186.597C838.616 184.977 836.891 183.712 834.105 183.683L820.769 185.252C818.75 185.468 818.513 185.494 816.197 186.968L814.733 187.388L791.737 187.135L789.938 186.431C787.395 184.086 787.203 184.08 783.808 184.014C768.368 184.014 752.597 183.397 737.124 183.092L736.312 182.957C735.463 182.669 734.493 182.27 733.422 181.836C730.486 180.639 726.674 179.085 724.181 179.27C720.206 179.568 717.75 181.403 716.693 183.675C716.234 184.658 716.023 185.725 716.047 186.77C716.071 187.825 716.34 188.887 716.837 189.852C717.98 192.07 720.407 193.781 724.034 193.877C727.157 193.959 730.769 192.491 733.301 191.459C734.298 191.055 735.154 190.704 735.902 190.48L736.721 190.374L782.149 191.31C784.53 191.358 785.857 191.274 786.78 190.987C787.584 190.738 788.304 190.209 789.391 189.395L791.065 188.859L815.198 189.491L816.608 189.922L817.074 190.227C818.315 191.041 818.942 191.45 819.418 191.629C819.903 191.812 820.659 191.916 822.155 192.116L822.626 192.18Z" fill="#1A1A18"></path> <path d="M965.73 14.7801L958.848 7.01314L605.3 5.37142L600.375 11.6386L600.87 82.8068L604.119 89.0736L604.424 90.3045V96.2146L959.17 96.1405L966.825 75.2133L965.73 14.7801ZM962.074 2.55713L970.405 11.9598L971.077 13.6969L972.201 75.6321L972.043 76.5894L963.574 99.739L961.048 101.506L601.729 101.58L599.035 98.8973V90.9466L595.802 84.7115L595.508 83.4908L595.004 10.7172L595.572 9.04354L601.877 1.01928L604.001 -4.37174e-05L960.073 1.6534L962.074 2.55713Z" fill="#1A1A18"></path> <path d="M604.935 17.7981C604.931 16.3181 606.127 15.1093 607.607 15.1051C609.088 15.1014 610.296 16.2979 610.3 17.7781L610.709 72.4686L960.813 73.4717C962.293 73.4717 963.496 74.6746 963.496 76.1547C963.496 77.6345 962.293 78.8374 960.813 78.8374L608.046 77.8261L605.364 75.1532L604.935 17.7981Z" fill="#1A1A18"></path> <path d="M956.266 88.1163C957.754 88.1163 958.96 89.3231 958.96 90.8111C958.96 92.2991 957.754 93.5059 956.266 93.5059H601.73C600.242 93.5059 599.035 92.2991 599.035 90.8111C599.035 89.3231 600.242 88.1163 601.73 88.1163H956.266Z" fill="#1A1A18"></path> <path d="M961.342 12.568C962.822 12.5802 964.015 13.793 964.003 15.2727C963.991 16.7527 962.778 17.9456 961.298 17.9339L616.877 14.9019C615.397 14.8898 614.204 13.677 614.216 12.1972C614.228 10.7172 615.441 9.52441 616.921 9.53641L961.342 12.568Z" fill="#1A1A18"></path> <path fill-rule="evenodd" clip-rule="evenodd" d="M757.476 206.333L677.919 215.072L670.844 210.271L676.277 202.564L680.825 209.134L754.914 207.036L756.163 206.381L757.476 206.333Z" fill="#1A1A18"></path> <path fill-rule="evenodd" clip-rule="evenodd" d="M611.371 218.154V170.127C611.371 168.115 609.726 166.419 607.715 166.357H607.714C605.702 166.294 604.057 167.889 604.057 169.9V217.927C604.057 219.939 605.702 221.635 607.714 221.698H607.715C609.726 221.76 611.371 220.165 611.371 218.154Z" fill="#1A1A18"></path> </svg> 