<?xml version="1.0" encoding="UTF-8"?> <svg xmlns="http://www.w3.org/2000/svg" width="845" height="248" viewBox="0 0 845 248" fill="none"> <path d="M736.519 22.3715L613.548 12.2344C612.697 12.1644 611.896 11.9483 611.149 11.587C610.409 11.2275 609.741 10.7306 609.149 10.0971C608.048 8.91937 606.808 8.24056 605.435 8.0591C603.941 7.86376 602.205 8.20574 600.243 9.08001C599.066 9.60348 597.828 9.78828 596.641 9.64015C595.448 9.49162 594.291 9.00814 593.278 8.20574C592.248 7.39094 591.097 6.96535 589.839 6.92148C588.446 6.87615 586.867 7.27229 585.116 8.09429C583.821 8.70323 582.434 8.88269 581.11 8.65936C579.782 8.43789 578.526 7.80776 577.503 6.81003C576.437 5.76843 575.425 5.29364 574.469 5.27964C573.433 5.26604 572.297 5.73895 571.093 6.58135C569.882 7.43629 568.481 7.84975 567.082 7.82362C565.679 7.80095 564.291 7.33681 563.109 6.44374C561.619 5.31481 560.187 4.70589 558.834 4.69349C557.509 4.68136 556.125 5.23964 554.687 6.43857C553.607 7.3475 552.316 7.87244 550.98 7.9983C549.649 8.12564 548.282 7.8483 547.044 7.15736C545.383 6.23256 543.851 5.7631 542.492 5.86777C541.26 5.9619 540.066 6.58668 538.929 7.84108C537.95 8.91068 536.713 9.61748 535.384 9.91375C534.054 10.2104 532.638 10.1004 531.301 9.54563C529.923 8.97189 528.618 8.75723 527.412 9.00323C526.199 9.24936 524.973 9.99243 523.745 11.3322C522.825 12.3232 521.687 13.0053 520.457 13.3232C519.221 13.646 517.898 13.6143 516.619 13.1906C515.001 12.6566 513.517 12.3776 512.261 12.5171C511.198 12.6339 510.249 13.0787 509.46 13.9688C508.48 15.08 507.218 15.8076 505.856 16.1076C504.505 16.4078 503.054 16.2856 501.694 15.696C500.231 15.0626 498.863 14.7818 497.638 14.9666C496.508 15.1379 495.415 15.7588 494.377 16.9259C493.431 17.9815 492.24 18.6936 490.954 19.0164C489.656 19.3372 488.276 19.2711 486.955 18.7843C485.433 18.2204 483.788 18.0741 482.234 18.3671C480.759 18.6444 479.357 19.318 478.205 20.3963C477.277 21.272 476.181 21.8445 475.012 22.0993C473.845 22.3503 472.608 22.2842 471.4 21.876C470.01 21.4066 468.379 21.2706 466.819 21.6107C465.519 21.8948 464.268 22.5231 463.277 23.5771C462.324 24.5889 461.147 25.2571 459.884 25.5504C458.624 25.8434 457.273 25.7614 455.972 25.2779C454.618 24.7738 453.184 24.6551 451.828 24.9464C450.537 25.2224 449.311 25.8747 448.279 26.9183C447.236 27.9754 445.938 28.6334 444.57 28.8602C443.199 29.087 441.759 28.8863 440.44 28.2302C439.168 27.6004 437.821 27.3491 436.478 27.6492C435.199 27.9334 433.843 28.7256 432.455 30.1528C431.587 31.0477 430.539 31.6658 429.403 31.9798C428.253 32.292 427.037 32.2988 425.842 31.9798C424.085 31.5084 422.511 31.4336 421.142 31.7352C419.817 32.03 418.62 32.6983 417.568 33.7244C416.614 34.6542 415.468 35.2631 414.243 35.5216C413.013 35.7763 411.718 35.6856 410.469 35.2215C409.154 34.731 407.576 34.5986 405.978 34.9002C404.513 35.1776 403.031 35.8356 401.726 36.9242C400.871 37.6291 399.925 38.1071 398.922 38.3425C397.919 38.5732 396.864 38.566 395.797 38.3093C394.451 37.9865 393.023 37.9676 391.687 38.2678C390.457 38.5434 389.311 39.0914 388.391 39.913C387.444 40.7592 386.334 41.3103 385.163 41.5375C384 41.7623 382.773 41.6682 381.579 41.2388C380.107 40.7102 378.669 40.5464 377.342 40.752C376.072 40.9475 374.862 41.499 373.781 42.4011C372.837 43.1914 371.752 43.6936 370.609 43.8944C369.482 44.0932 368.293 43.9904 367.135 43.5735C365.446 42.9662 363.888 42.9106 362.504 43.2976C361.014 43.7163 359.671 44.6639 358.552 46.0038C358.066 46.6006 357.495 47.0942 356.848 47.4854C356.222 47.8671 355.522 48.1411 354.752 48.3036C252.762 69.9731 150.988 92.2447 48.7252 112.529L48.0571 112.621L47.3715 112.649L6.80615 112.44C6.49922 112.44 6.22174 112.489 5.986 112.585C5.76454 112.676 5.53963 112.833 5.32149 113.049C5.11363 113.257 4.95494 113.485 4.85734 113.721C4.76294 113.948 4.71415 114.218 4.71415 114.525V120.754C4.71415 121.321 4.93748 121.835 5.30042 122.207C5.66695 122.582 6.17456 122.823 6.73283 122.835L49.0828 123.889C49.6395 123.924 49.8875 123.959 50.4332 124.057L350.804 193.729C351.479 193.886 352.094 194.123 352.655 194.445C353.214 194.764 353.727 195.176 354.2 195.675C355.492 197.042 356.991 198.068 358.776 198.623C360.61 199.194 362.806 199.29 365.453 198.775C366.498 198.573 367.529 198.607 368.501 198.869C369.474 199.131 370.389 199.623 371.2 200.331C372.343 201.329 373.578 202.116 374.969 202.529C376.335 202.936 377.914 202.994 379.788 202.554C380.7 202.339 381.611 202.31 382.494 202.463C383.38 202.617 384.226 202.955 385.027 203.475C386.416 204.379 387.862 205.089 389.403 205.44C390.9 205.78 392.549 205.79 394.396 205.323C395.45 205.058 396.502 205.037 397.504 205.255C398.514 205.475 399.463 205.935 400.313 206.621C401.77 207.792 403.288 208.561 404.87 208.922C406.456 209.285 408.157 209.256 409.965 208.835C411.055 208.582 412.149 208.596 413.189 208.863C414.234 209.131 415.203 209.65 416.036 210.398C417.268 211.505 418.648 212.174 420.149 212.45C421.729 212.742 423.506 212.612 425.439 212.124C426.521 211.846 427.609 211.836 428.642 212.075C429.684 212.316 430.656 212.81 431.512 213.542C432.65 214.514 433.882 215.207 435.213 215.558C436.547 215.91 438.029 215.934 439.667 215.572C440.726 215.331 441.784 215.345 442.789 215.598C443.794 215.851 444.731 216.344 445.563 217.061C446.779 218.112 448.096 218.843 449.53 219.175C450.985 219.511 452.601 219.464 454.4 218.965C455.466 218.67 456.53 218.626 457.542 218.829C458.556 219.031 459.519 219.481 460.39 220.164C461.867 221.322 463.418 222.25 465.088 222.767C466.706 223.268 468.481 223.397 470.474 222.997C471.526 222.786 472.564 222.812 473.541 223.069C474.523 223.327 475.44 223.815 476.249 224.518C477.716 225.789 479.248 226.598 480.829 226.972C482.417 227.345 484.097 227.296 485.854 226.862C486.88 226.607 487.902 226.588 488.879 226.794C489.869 227.001 490.802 227.438 491.634 228.083C492.962 229.112 494.438 229.756 496.047 230.02C497.732 230.297 499.601 230.179 501.635 229.683C502.729 229.412 503.811 229.407 504.828 229.65C505.863 229.906 506.827 230.402 507.665 231.121C508.923 232.203 510.334 232.961 511.795 233.319C513.164 233.654 514.592 233.645 515.991 233.234C517.23 232.869 518.488 232.855 519.662 233.167C520.838 233.481 521.919 234.123 522.814 235.06C523.786 236.077 524.886 236.815 526.138 237.18C527.429 237.555 528.956 237.564 530.758 237.123C531.761 236.878 532.761 236.856 533.723 237.051C534.682 237.246 535.598 237.662 536.431 238.285C537.966 239.434 539.59 240.265 541.342 240.601C543.073 240.935 544.985 240.799 547.125 240.029C548.15 239.663 549.185 239.541 550.19 239.654C551.205 239.769 552.186 240.127 553.089 240.71C554.878 241.865 556.605 242.474 558.261 242.521C559.883 242.568 561.529 242.074 563.19 241.036C564.158 240.431 565.215 240.085 566.297 240.008C567.38 239.932 568.474 240.124 569.52 240.584C571.381 241.406 573.164 241.684 574.874 241.484C576.608 241.282 578.323 240.583 580.01 239.464C580.965 238.834 582.017 238.461 583.107 238.356C584.193 238.251 585.295 238.415 586.353 238.855C588.022 239.548 589.554 239.785 590.954 239.619C592.328 239.457 593.63 238.893 594.853 237.988C595.76 237.316 596.772 236.892 597.837 236.725C598.892 236.559 599.981 236.651 601.044 237.008C602.907 237.634 604.713 237.814 606.447 237.541C608.204 237.266 609.94 236.523 611.652 235.312C612.066 235.008 612.492 234.767 612.951 234.577C613.407 234.387 613.881 234.249 614.382 234.162C624.592 232.347 635.833 230.807 647.644 229.465C659.469 228.121 671.789 226.98 684.177 225.96C695.086 225.063 706.433 224.255 718.014 223.507C729.332 222.774 740.987 222.085 752.693 221.408L759.904 220.991C785.389 219.522 810.881 218.049 835.338 216.032H835.365C836.96 215.917 838.08 215.179 838.778 214.017C839.584 212.672 839.954 210.761 839.936 208.507L833.42 204.299L830.716 206.049L827.945 205.892L825.344 203.751L822.817 205.534L819.799 205.276L818.366 203.843L815.808 206.26L812.265 205.883L811.178 204.302L809.414 205.846H806.322L804.061 203.868L801.847 205.666L798.829 205.62L796.787 203.85L794.798 205.442L791.733 205.33L789.775 203.514L786.848 205.363L784.234 205.29L782.32 203.922L779.467 205.984L776.376 205.68L774.649 203.821L772.539 205.138L769.815 204.963L767.767 203.299L765.984 205.211L762.533 205.203L761.531 204.116L761.687 205.995L759.331 208.535L729.91 208.308L729.673 208.491C729.044 208.98 728.368 209.346 727.643 209.586C726.928 209.818 726.171 209.926 725.375 209.91L544.859 206.295C543.837 206.276 542.883 206.047 542.022 205.63C541.152 205.209 540.382 204.593 539.733 203.796C539.088 203.002 538.641 202.125 538.404 201.184C538.17 200.258 538.142 199.276 538.329 198.273L544.861 163.336C545.601 158.531 544.01 155.392 541.48 153.736C540.337 152.988 538.99 152.51 537.572 152.294C536.099 152.068 534.557 152.121 533.08 152.433C529.403 153.215 526.119 155.627 525.36 159.436C522.608 171.292 519.955 183.184 517.254 195.052C516.881 196.692 515.952 198.063 514.705 198.996C513.456 199.928 511.88 200.427 510.21 200.321L490.094 199.023C489.078 198.958 488.133 198.688 487.293 198.234C486.446 197.775 485.7 197.126 485.09 196.306C484.481 195.488 484.072 194.598 483.875 193.668C483.678 192.731 483.689 191.751 483.912 190.762C485.325 184.529 488.004 175.357 488.738 169.362C489.096 164.967 487.36 161.997 484.8 160.351C483.513 159.523 482.002 158.996 480.433 158.772C478.826 158.54 477.174 158.616 475.637 158.99C472.482 159.755 469.794 161.783 469.068 164.948L464.837 184.576C464.446 186.389 463.356 187.881 461.911 188.826C460.475 189.774 458.668 190.168 456.849 189.797L135.053 123.552C133.141 123.163 131.634 122.835 130.386 122.027C128.796 120.998 127.952 119.541 127.952 117.086C127.952 115.24 128.685 113.867 129.884 112.864C130.894 112.02 132.201 111.519 133.623 111.248L459.608 49.1792C459.773 49.1493 460.044 49.0311 460.302 48.9192C461.665 48.3296 462.965 47.773 464.692 48.9472C465.461 49.4654 466.088 50.1003 466.573 50.8438C467.051 51.5767 467.381 52.4051 467.548 53.3194L472.627 80.7051C472.72 81.2074 472.978 81.6348 473.334 81.9315C473.684 82.223 474.152 82.3957 474.673 82.3957H488.815C489.153 82.3957 489.448 82.3379 489.693 82.2263C489.938 82.1148 490.176 81.9296 490.388 81.6836C490.596 81.4414 490.744 81.1761 490.821 80.9073C490.898 80.6371 490.914 80.3316 490.866 80.0104L489.836 73.1623C489.685 72.1679 489.748 71.1821 490.024 70.2419C490.294 69.3204 490.769 68.4568 491.442 67.6891C492.116 66.9182 492.91 66.3266 493.793 65.9374C494.672 65.5518 495.635 65.3598 496.644 65.3756L517.193 65.7071C518.707 65.7332 520.107 66.2374 521.232 67.103C522.359 67.9684 523.205 69.1949 523.614 70.6465L526.908 82.3242C527.042 82.8039 527.328 83.2019 527.696 83.4634C528.065 83.7234 528.534 83.8628 529.034 83.8334L543.826 82.9452C544.139 82.9277 544.428 82.8474 544.678 82.7151C544.925 82.5892 545.149 82.3956 545.343 82.1424C545.541 81.8828 545.676 81.6122 545.737 81.3468C545.801 81.0679 545.803 80.7626 545.74 80.4503L537.755 41.0835C537.545 40.0612 537.564 39.0547 537.8 38.1C538.036 37.1442 538.495 36.2419 539.158 35.4324C539.819 34.6247 540.609 34.0034 541.497 33.585C542.394 33.1676 543.373 32.955 544.409 32.9568L759.576 33.585L761.922 35.9767L761.915 36.3187L764.159 36.4495L765.741 37.186L767.764 39.3442L769.815 37.6763L772.539 37.5016L774.649 38.8207L776.376 36.9608L779.467 36.6574L782.32 38.7195L784.234 37.3516L786.848 37.2783L789.775 39.1276L791.733 37.3096L794.798 37.1982L796.787 38.7894L798.829 37.0202L801.847 36.973L804.061 38.772L806.322 36.7952H809.414L811.178 38.3392L812.265 36.7586L815.808 36.3814L818.366 38.7962L819.799 37.3637L822.817 37.1056L825.345 38.8907L827.945 36.7495L830.716 36.5927L834.111 38.7894L839.636 38.7546C839.774 36.5179 839.752 34.4902 839.262 32.9828C838.778 31.4806 837.649 30.4287 835.338 30.1512L736.883 22.0347L736.519 22.3715ZM613.935 7.54095L736.542 17.6482L736.906 17.3115C768.985 19.9548 804.518 21.2426 835.789 25.4684C840.371 25.9866 842.667 28.258 843.731 31.5296C844.649 34.3386 844.48 37.7284 844.166 41.2895L841.828 43.4336L833.43 43.488L832.143 43.1108L829.602 41.4675L826.942 43.657L824.098 43.7688L821.73 42.0972L820.083 43.7443L816.807 43.7896L814.578 41.6856L813.553 43.1792L810.074 43.6116L807.868 41.6821L805.663 43.6116L802.636 43.6676L800.415 41.8636L798.387 43.6203L795.386 43.6763L793.451 42.129L791.653 43.7984L788.8 44.0656L785.679 42.0938L783.677 43.5247L780.943 43.5156L778.407 41.6821L776.768 43.4461L773.806 43.8422L771.473 42.3834L769.027 44.3705L765.834 44.1578L762.957 41.0888L759.392 40.8814L757.175 38.4892L757.18 38.2712L544.409 37.6499C544.074 37.6499 543.765 37.713 543.502 37.8351C543.24 37.9624 542.994 38.1594 542.783 38.4159C542.575 38.6688 542.432 38.9447 542.364 39.2236C542.295 39.5081 542.289 39.8204 542.356 40.1451L550.343 79.5288C550.54 80.5164 550.535 81.4832 550.322 82.3972C550.106 83.3292 549.689 84.205 549.08 84.9971C548.467 85.7962 547.726 86.4243 546.885 86.871C546.049 87.3192 545.111 87.5774 544.102 87.6386L529.31 88.5264C527.714 88.621 526.197 88.162 524.971 87.2912C523.748 86.4224 522.814 85.14 522.378 83.5942L519.084 71.9166C518.957 71.463 518.697 71.0808 518.36 70.8227C518.02 70.5627 517.589 70.4074 517.12 70.4006L496.579 70.0691C496.251 70.0672 495.953 70.1231 495.698 70.2347C495.429 70.3567 495.186 70.54 494.977 70.7808C494.762 71.025 494.612 71.2922 494.532 71.5676C494.457 71.8259 494.443 72.1312 494.494 72.4646L495.525 79.3127C495.675 80.3071 495.612 81.2807 495.351 82.195C495.087 83.1146 494.619 83.9695 493.958 84.7404C493.295 85.5082 492.517 86.098 491.643 86.4976C490.76 86.9024 489.809 87.1099 488.815 87.1099H474.673C473.039 87.1099 471.521 86.529 470.333 85.5395C469.154 84.5591 468.307 83.17 468.007 81.5528L462.928 54.1675C462.874 53.8742 462.773 53.616 462.633 53.4013C462.499 53.1957 462.3 53.0019 462.051 52.8311L461.967 52.7732L462.028 52.9146C462.12 53.0386 462.233 53.1939 462.162 53.2252C461.649 53.4467 461.12 53.6788 460.473 53.7994L134.488 115.868C133.811 115.998 133.239 116.191 132.902 116.472C132.757 116.592 132.666 116.791 132.666 117.086C132.666 117.685 132.764 117.973 132.944 118.088C133.464 118.424 134.572 118.66 135.992 118.95L457.788 185.194C458.338 185.305 458.891 185.183 459.336 184.892C459.781 184.609 460.114 184.149 460.234 183.591L464.475 163.945C465.632 158.815 469.743 155.589 474.531 154.426C476.659 153.907 478.921 153.799 481.096 154.113C483.31 154.431 485.467 155.19 487.341 156.394C491.284 158.93 493.965 163.357 493.43 169.774C492.749 176.163 489.986 185.229 488.497 191.791C488.426 192.108 488.42 192.414 488.478 192.691C488.537 192.972 488.665 193.248 488.853 193.499C489.05 193.761 489.275 193.959 489.52 194.092C489.771 194.228 490.062 194.31 490.378 194.329L510.504 195.627C511.022 195.659 511.509 195.507 511.889 195.224C512.271 194.938 512.555 194.518 512.669 194.022C514.04 187.997 520.74 162.549 520.74 158.515C521.909 152.642 526.731 148.971 532.103 147.83C534.135 147.399 536.253 147.328 538.269 147.635C540.341 147.951 542.333 148.666 544.058 149.797C548.047 152.408 550.589 157.104 549.518 164.055C546.935 175.242 545.083 187.734 542.949 199.138C542.889 199.454 542.897 199.762 542.968 200.043C543.036 200.315 543.175 200.583 543.38 200.834C543.579 201.08 543.816 201.272 544.076 201.397C544.336 201.526 544.631 201.596 544.941 201.602L725.466 205.216C725.719 205.22 725.955 205.189 726.162 205.121C726.373 205.046 726.581 204.929 726.783 204.772L727.654 204.095L729.107 203.608L756.78 203.822L756.526 200.755L758.872 198.205H761.451L763.182 198.969L764.274 200.153L765.825 198.491L769.027 198.269L771.473 200.256L773.806 198.8L776.768 199.196L778.407 200.96L780.943 199.126L783.677 199.117L785.679 200.546L788.8 198.574L791.653 198.841L793.453 200.513L795.386 198.965L798.387 199.021L800.415 200.778L802.636 198.974L805.663 199.03L807.868 200.96L810.074 199.03L813.553 199.462L814.578 200.956L816.807 198.85L820.083 198.895L821.73 200.542L824.098 198.873L826.942 198.984L829.602 201.174L832.143 199.53L834.692 199.522L843.513 205.218L844.59 207.059C844.813 210.73 844.264 214.005 842.809 216.428C841.318 218.909 838.993 220.481 835.725 220.724C811.569 222.716 785.863 224.203 760.162 225.684L752.951 226.101C741.425 226.768 729.884 227.451 718.307 228.2C706.996 228.931 695.729 229.735 684.564 230.653C672.123 231.679 659.822 232.817 648.16 234.141C636.483 235.467 625.342 236.995 615.191 238.799L614.755 238.921L614.356 239.15C612.037 240.779 609.64 241.79 607.166 242.179C604.673 242.571 602.13 242.329 599.553 241.463C599.204 241.347 598.864 241.314 598.555 241.362C598.252 241.41 597.943 241.545 597.652 241.76C595.76 243.159 593.714 244.034 591.505 244.295C589.315 244.557 586.998 244.217 584.549 243.199C584.206 243.058 583.865 243.002 583.551 243.032C583.237 243.062 582.915 243.182 582.607 243.386C580.307 244.907 577.91 245.869 575.408 246.16C572.878 246.455 570.284 246.064 567.625 244.89C567.288 244.742 566.948 244.679 566.628 244.702C566.314 244.724 565.986 244.836 565.674 245.031C563.226 246.563 560.708 247.287 558.131 247.214C555.586 247.141 553.056 246.286 550.549 244.667C550.256 244.478 549.952 244.363 549.655 244.33C549.349 244.295 549.026 244.334 548.71 244.447C545.709 245.525 542.979 245.707 540.459 245.222C537.959 244.74 535.701 243.604 533.614 242.039C533.349 241.842 533.068 241.711 532.784 241.654C532.503 241.596 532.189 241.608 531.865 241.687C529.23 242.332 526.899 242.289 524.83 241.688C522.724 241.074 520.939 239.9 519.409 238.299C519.13 238.007 518.798 237.806 518.448 237.714C518.097 237.622 517.706 237.628 517.317 237.742C515.091 238.396 512.831 238.412 510.68 237.883C508.487 237.342 506.412 236.241 504.608 234.69C504.331 234.453 504.038 234.295 503.744 234.225C503.432 234.162 503.097 234.163 502.759 234.245C500.096 234.895 497.608 235.038 495.293 234.657C492.899 234.265 490.716 233.317 488.762 231.803C488.494 231.594 488.208 231.456 487.923 231.396C487.63 231.335 487.309 231.344 486.978 231.426C484.491 232.042 482.08 232.103 479.762 231.557C477.443 231.009 475.241 229.861 473.175 228.071C472.917 227.846 472.632 227.691 472.345 227.615C472.051 227.539 471.728 227.533 471.395 227.6C468.569 228.167 466.032 227.979 463.706 227.258C461.436 226.555 459.397 225.349 457.5 223.863C457.23 223.651 456.93 223.51 456.621 223.449C456.314 223.388 455.984 223.404 455.653 223.495C453.055 224.215 450.668 224.271 448.471 223.76C446.261 223.243 444.279 222.161 442.489 220.614C442.23 220.39 441.941 220.239 441.639 220.162C441.349 220.089 441.023 220.09 440.679 220.166C438.271 220.689 436.057 220.644 434.016 220.104C431.973 219.565 430.127 218.539 428.456 217.112C428.19 216.885 427.892 216.732 427.583 216.66C427.28 216.59 426.944 216.598 426.597 216.686C424.022 217.337 421.583 217.489 419.301 217.07C416.939 216.636 414.787 215.601 412.889 213.895C412.617 213.649 412.322 213.485 412.03 213.41C411.734 213.335 411.394 213.337 411.033 213.42C408.527 214.003 406.118 214.033 403.82 213.508C401.518 212.981 399.364 211.906 397.359 210.285C397.094 210.065 396.802 209.922 396.509 209.858C396.209 209.793 395.876 209.802 395.537 209.887C392.929 210.548 390.563 210.524 388.374 210.025C386.224 209.536 384.286 208.596 382.469 207.415C382.22 207.253 381.956 207.146 381.693 207.101C381.437 207.057 381.154 207.069 380.855 207.139C378.127 207.78 375.75 207.67 373.625 207.038C371.53 206.413 369.729 205.283 368.109 203.866C367.855 203.646 367.576 203.493 367.287 203.416C366.996 203.337 366.673 203.33 366.336 203.395C362.892 204.065 359.936 203.91 357.377 203.114C354.768 202.303 352.612 200.837 350.785 198.904C350.638 198.751 350.481 198.625 350.318 198.531C350.15 198.435 349.96 198.361 349.754 198.314C291.286 185.85 213.312 166.783 142.051 150.816C109.358 143.491 80.1516 135.427 52.8151 130.343C25.3632 125.238 33.7677 128.203 6.62134 127.529C4.78214 127.483 3.12483 126.707 1.93323 125.484C0.738161 124.259 0 122.586 0 120.754V114.525C0 113.607 0.172684 112.733 0.512817 111.916C0.848017 111.107 1.34855 110.369 2.00655 109.716C2.65362 109.074 3.39507 108.577 4.22054 108.24C5.03014 107.911 5.90055 107.745 6.81148 107.747C58.1381 108.012 48.8054 107.717 104.121 96.7427L353.776 43.7024C354.022 43.6536 354.236 43.57 354.421 43.4581C354.599 43.3569 354.768 43.2035 354.932 43.0062C356.67 40.932 358.804 39.4504 361.234 38.7686C363.536 38.1231 366.067 38.1944 368.728 39.1556C369.084 39.2848 369.452 39.3181 369.799 39.2568C370.134 39.1995 370.466 39.0407 370.762 38.7928C372.509 37.3362 374.498 36.4427 376.623 36.1146C378.731 35.7884 380.95 36.0257 383.164 36.8213C383.537 36.9555 383.921 36.987 384.28 36.9174C384.629 36.8494 384.968 36.6782 385.261 36.4166C386.809 35.0328 388.679 34.1274 390.658 33.6824C392.683 33.2271 394.845 33.2568 396.883 33.7452C397.216 33.8257 397.547 33.8291 397.855 33.7592C398.157 33.6877 398.448 33.5378 398.711 33.3196C400.66 31.6866 402.89 30.7023 405.113 30.2802C407.555 29.8198 410.014 30.0394 412.109 30.821C412.496 30.9642 412.896 30.9975 413.266 30.9204C413.636 30.8422 413.992 30.6502 414.292 30.3568C415.976 28.717 417.928 27.6385 420.13 27.1503C422.255 26.6808 424.574 26.7682 427.056 27.433C427.445 27.5358 427.822 27.5411 428.15 27.4537C428.485 27.3577 428.81 27.1624 429.087 26.8763C431.154 24.7511 433.314 23.542 435.466 23.0639C437.94 22.511 440.329 22.9278 442.52 24.0148C442.939 24.2227 443.385 24.2907 443.795 24.2227C444.207 24.1543 444.608 23.9502 444.929 23.624C446.641 21.8934 448.682 20.8098 450.834 20.3456C453.062 19.8642 455.407 20.0561 457.612 20.8777C458.015 21.0279 458.432 21.0539 458.816 20.9651C459.198 20.8759 459.559 20.6684 459.854 20.3562C461.557 18.5484 463.656 17.4827 465.824 17.0079C468.237 16.4811 470.757 16.6923 472.912 17.4199C473.288 17.5472 473.67 17.5715 474.018 17.4967C474.367 17.4213 474.707 17.24 475.002 16.9644C476.844 15.2512 479.057 14.1831 481.368 13.747C483.76 13.2954 486.268 13.5115 488.574 14.3664C488.994 14.5218 489.425 14.5479 489.813 14.4537C490.202 14.3543 490.568 14.1344 490.86 13.8048C492.676 11.7495 494.721 10.6451 496.94 10.3083C499.067 9.98561 501.283 10.4078 503.554 11.39C503.98 11.573 504.43 11.6133 504.843 11.5227C505.248 11.4335 505.634 11.2048 505.943 10.856C507.581 9.00668 509.548 8.08188 511.744 7.84108C513.746 7.61961 515.881 7.98588 518.092 8.71722C518.507 8.85322 518.917 8.87054 519.278 8.77654C519.648 8.68054 519.998 8.46734 520.283 8.15708C522.214 6.04054 524.289 4.84537 526.473 4.40057C528.67 3.95043 530.886 4.27658 533.105 5.20151C533.531 5.37764 533.974 5.41763 534.371 5.32883C534.768 5.2415 535.146 5.02003 535.45 4.68483C537.449 2.47069 539.696 1.36485 542.143 1.17445C544.458 0.994851 546.862 1.68041 549.326 3.05348C549.717 3.27161 550.14 3.36082 550.537 3.32415C550.935 3.28895 551.327 3.12163 551.673 2.83363C554.019 0.882964 556.424 -0.0240728 558.873 0.000460569C561.298 0.0212606 563.657 0.958148 565.943 2.68882C566.319 2.97495 566.747 3.1235 567.155 3.1303C567.572 3.1375 568.007 3.00628 568.392 2.73602C570.393 1.34028 572.433 0.556857 574.525 0.586724C576.699 0.619524 578.796 1.50431 580.78 3.44284C581.103 3.75658 581.49 3.95577 581.884 4.0219C582.286 4.0899 582.718 4.03243 583.127 3.84043C585.557 2.69936 587.85 2.15507 589.994 2.22841C592.28 2.30854 594.349 3.06935 596.188 4.52455C596.497 4.76868 596.852 4.9207 597.214 4.96417C597.58 5.0095 597.964 4.95202 598.327 4.79135C601.099 3.55615 603.676 3.09014 606.042 3.40081C608.533 3.73041 610.721 4.89269 612.59 6.89389C612.779 7.09616 612.983 7.25337 613.193 7.3543C613.399 7.45364 613.651 7.51828 613.935 7.54095ZM461.967 52.7732C461.892 52.7351 461.953 52.8136 462.028 52.9146L461.967 52.7732Z" fill="#1A1A18"></path> <path d="M731.787 35.2737C732.579 36.2994 732.388 37.7773 731.363 38.5695C730.337 39.3617 728.859 39.1716 728.067 38.1459L725.021 34.1988C724.829 33.9495 724.611 33.7577 724.382 33.6339C724.155 33.5099 723.876 33.4312 723.557 33.4032L553.769 18.6151L553.453 18.6585L95.4594 115.273C94.9658 115.377 94.5417 115.652 94.2522 116.026C93.9556 116.394 93.7949 116.875 93.8142 117.392L93.999 122.003C94.0164 122.478 94.1892 122.912 94.4665 123.249C94.7424 123.582 95.1401 123.831 95.6076 123.94L548.32 229.449L548.631 229.502L548.968 229.497L718.314 215.654C718.637 215.627 718.926 215.542 719.172 215.404C719.413 215.268 719.634 215.062 719.826 214.795L727.193 204.583C727.95 203.531 729.417 203.292 730.47 204.049C731.521 204.807 731.761 206.274 731.003 207.326L723.637 217.547C723.045 218.372 722.322 219.025 721.482 219.499C720.635 219.979 719.698 220.265 718.684 220.347L549.338 234.19C548.992 234.216 548.652 234.217 548.308 234.195C547.937 234.171 547.588 234.115 547.244 234.035L94.5398 128.525C93.0413 128.176 91.7622 127.361 90.8412 126.25C89.925 125.142 89.3668 123.73 89.3056 122.188L89.1208 117.577C89.0546 115.919 89.5849 114.366 90.5392 113.141C91.4849 111.912 92.8685 111.015 94.5032 110.671L552.497 14.0559C552.825 13.9879 553.146 13.9425 553.476 13.9236C553.822 13.899 554.146 13.9058 554.469 13.9322L723.962 28.7103C724.916 28.7923 725.813 29.0625 726.629 29.5092C727.439 29.9507 728.151 30.5629 728.74 31.3272L731.787 35.2737Z" fill="#1A1A18"></path> <path d="M441.707 184.241C442 182.976 443.269 182.19 444.534 182.482C445.799 182.776 446.585 184.044 446.292 185.309L442.918 199.616C442.625 200.881 441.356 201.668 440.091 201.374C438.826 201.082 438.039 199.813 438.333 198.548L441.707 184.241Z" fill="#1A1A18"></path> <path d="M494.353 196.678C494.58 195.402 495.801 194.554 497.077 194.781C498.352 195.008 499.2 196.229 498.973 197.505L496.152 213.092C495.925 214.368 494.704 215.215 493.428 214.989C492.153 214.762 491.305 213.541 491.532 212.265L494.353 196.678Z" fill="#1A1A18"></path> </svg> 