<?xml version="1.0" encoding="UTF-8"?> <!-- Creator: CorelDRAW --> <svg xmlns="http://www.w3.org/2000/svg" xmlns:xlink="http://www.w3.org/1999/xlink" xmlns:xodm="http://www.corel.com/coreldraw/odm/2003" xml:space="preserve" width="25.2582mm" height="18.2322mm" style="shape-rendering:geometricPrecision; text-rendering:geometricPrecision; image-rendering:optimizeQuality; fill-rule:evenodd; clip-rule:evenodd" viewBox="0 0 2525.82 1823.22"> <defs> <style type="text/css"> <![CDATA[ .fil3 {fill:none} .fil1 {fill:#2B2B2A} .fil2 {fill:white;fill-rule:nonzero} .fil0 {fill:#2B2B2A;fill-rule:nonzero} ]]> </style> <clipPath id="id0"> <path d="M1647.67 37.43l140.1 155.19 256.31 211 231.6 191.49 118.4 131.66 85.82 166.76 -123.25 -21.33 -193.95 -7.93 -11.05 2.98 -196.18 -0.32 -178.49 10.67 -11.19 -1.53 -89.71 11.63 -7.3 -0.61 -16.03 -15.03 -3.81 -4.81 3.94 -73.61 -3.94 -14.59 -3.52 -141.14 -0.7 -182.98 2.94 -218.27 -3.13 -11.03 3.14 -188.2z"></path> </clipPath> </defs> <g id="Слой_x0020_1"> <metadata id="CorelCorpID_0Corel-Layer"></metadata> <path class="fil0" d="M2512.23 900.83c1.96,8.35 3.34,115.39 4.27,253.94 1.68,250.42 2.24,588.71 2.24,657.15l-14.09 14.09 -2490.13 0c-9.45,0 -14.18,-4.87 -14.18,-14.6 0,-3.37 1.88,-16.64 4.24,-33.46 3.86,-27.41 9.15,-64.87 9.15,-77.83 0,-90.4 -5.27,-174.76 -10.5,-258.34 -7.88,-125.95 -15.65,-250.23 -5.42,-388.76 8.41,-113.95 14.46,-211.36 18.37,-308.85 3.88,-97.2 5.71,-196.04 5.71,-313.42 0,-10.46 -0.33,-25.16 -0.75,-44.72 -0.93,-42.79 -2.33,-106.48 -2.33,-165.13 0,-108.47 6.44,-214.39 33.49,-214.39 30.68,0 85.84,-0.34 164.15,-0.81 411.78,-2.51 1415.97,-8.62 1432.3,11.06l9.02 10.86c85.53,102.99 109.04,131.29 216.96,223 54.84,46.6 111.04,90.09 167.5,133.8 95.74,74.11 192.35,148.88 284.98,240.62 29.22,28.94 78.36,90.4 118.58,150.1 32.39,48.08 59.36,95.67 66.44,125.69zm-23.79 254.06c-0.92,-136.52 -2.12,-241.35 -3.61,-247.68 -6.21,-26.32 -31.62,-70.67 -62.38,-116.33 -39.37,-58.44 -87.02,-118.15 -115.06,-145.92 -91.35,-90.48 -187.28,-164.72 -282.34,-238.3 -56.81,-43.97 -113.36,-87.74 -168.48,-134.58 -109.61,-93.15 -133.49,-121.89 -220.38,-226.52l-9.02 -10.86c-7.87,-9.48 -1002.67,-3.42 -1410.6,-0.94l-164.27 0.93c-4.28,0 -5.31,91.99 -5.31,186.21 0,63.61 1.33,123.98 2.21,164.57 0.49,22.69 0.87,39.86 0.87,45.28 0,116.08 -1.86,215.27 -5.83,314.52 -3.96,98.93 -10.01,196.45 -18.37,309.73 -10.1,136.86 -2.39,260.16 5.42,385.12 5.28,84.53 10.62,169.84 10.62,260 0,14.42 -5.48,53.26 -9.49,81.69l-2.24 16.02 2460.38 0c-0.06,-95.37 -0.62,-418.73 -2.12,-642.94z"></path> <path class="fil0" d="M1624.04 27.77c-1.12,-7.68 4.2,-14.84 11.88,-15.96 7.68,-1.12 14.84,4.2 15.96,11.88 12.53,84.85 10.37,214.9 8.1,351.27 -2.18,130.83 -4.45,267.59 6.19,374.66 2.7,27.22 0.48,51.49 -1.4,72.07 -1.49,16.35 -2.76,30.17 -0.87,39.44 3,14.75 20.38,19.05 79.33,7.04 53.96,-10.99 301.88,-22.65 500.32,-16.31 124.24,3.97 230.51,15.7 262.47,40.23 0.88,0.55 1.71,1.21 2.47,1.97l2.81 2.97 -20.69 18.99 -3.06 -3.17c-22.92,-19.3 -124.18,-29.08 -244.88,-32.93 -196.63,-6.29 -441.12,5.03 -493.82,15.77 -80.67,16.44 -105.76,4.04 -112.47,-28.94 -2.7,-13.28 -1.27,-29 0.43,-47.6 1.77,-19.3 3.85,-42.09 1.4,-66.77 -10.77,-108.39 -8.48,-246.11 -6.29,-377.86 2.24,-134.97 4.38,-263.68 -7.88,-346.75z"></path> <polygon class="fil1" points="1647.67,37.43 1787.77,192.62 2044.08,403.62 2275.68,595.11 2394.08,726.77 2479.9,893.53 2356.65,872.2 2162.7,864.27 2151.65,867.25 1955.47,866.93 1776.98,877.6 1765.79,876.07 1676.08,887.7 1668.78,887.09 1652.75,872.06 1648.94,867.25 1652.88,793.64 1648.94,779.05 1645.42,637.91 1644.72,454.93 1647.66,236.66 1644.53,225.63 "></polygon> <g style="clip-path:url(#id0)"> <g id="_140167802856032"> <path id="_1" class="fil2" d="M2420.54 -561.79c-41.72,31.13 -86.88,64.3 -132.27,97.64 -170.23,125.03 -344.33,252.92 -483.13,383.09 -11.32,10.62 -81.02,70.01 -154.84,132.49 -91.47,77.41 -189.94,159.94 -192.75,161.21l-8.2 -18.2c1.32,-0.59 97.6,-81.7 188.05,-158.25 73.64,-62.32 143.06,-121.47 154.06,-131.79 139.69,-131.01 314.29,-259.26 485.01,-384.65 43.7,-32.1 87.16,-64.02 132.11,-97.56l11.96 16.02z"></path> <path class="fil2" d="M2410.79 -508.26c-41.82,31.21 -86.93,64.35 -132.38,97.72 -170.19,125.01 -344.24,252.87 -483.02,383.01 -11.34,10.63 -81.21,70.17 -155.14,132.75 -91.38,77.35 -189.65,159.68 -192.45,160.95l-8.2 -18.2c1.32,-0.6 97.39,-81.51 187.75,-157.99 73.75,-62.42 143.34,-121.72 154.36,-132.05 139.66,-130.97 314.21,-259.2 484.9,-384.57 43.75,-32.12 87.33,-64.15 132.22,-97.64l11.96 16.02z"></path> <path class="fil2" d="M2401.05 -454.73c-41.71,31.12 -86.91,64.32 -132.31,97.67 -170.23,125.03 -344.31,252.9 -483.1,383.06 -11.33,10.62 -81.13,70.11 -155.01,132.64 -91.43,77.39 -189.79,159.81 -192.57,161.06l-8.2 -18.2c1.32,-0.59 97.47,-81.58 187.87,-158.1 73.7,-62.38 143.21,-121.61 154.23,-131.94 139.67,-130.99 314.26,-259.23 484.98,-384.62 43.72,-32.12 87.17,-64.03 132.15,-97.59l11.96 16.02z"></path> <path class="fil2" d="M2391.3 -401.2c-41.72,31.13 -86.88,64.3 -132.27,97.64 -170.23,125.03 -344.33,252.92 -483.13,383.09 -11.33,10.62 -81.25,70.2 -155.2,132.8 -91.38,77.33 -189.6,159.64 -192.39,160.9l-8.2 -18.2c1.31,-0.59 97.35,-81.49 187.69,-157.94 73.77,-62.45 143.4,-121.77 154.42,-132.1 139.69,-131.01 314.29,-259.26 485.01,-384.65 43.7,-32.1 87.16,-64.02 132.11,-97.56l11.96 16.02z"></path> <path class="fil2" d="M2381.55 -347.67c-41.82,31.21 -86.93,64.35 -132.38,97.72 -170.19,125.01 -344.24,252.87 -483.02,383.01 -11.36,10.65 -81.44,70.37 -155.5,133.06 -91.27,77.25 -189.28,159.36 -192.13,160.64l-8.12 -18.2c1.27,-0.57 97.08,-81.28 187.35,-157.68 73.88,-62.53 143.68,-122.01 154.72,-132.36 139.66,-130.97 314.21,-259.2 484.9,-384.57 43.75,-32.12 87.33,-64.15 132.22,-97.64l11.96 16.02z"></path> <path class="fil2" d="M2371.8 -294.14c-41.82,31.21 -86.93,64.35 -132.38,97.72 -170.19,125.01 -344.24,252.87 -483.02,383.01 -11.31,10.61 -80.91,69.92 -154.67,132.36 -91.51,77.46 -190.11,160.08 -192.91,161.35l-8.2 -18.2c1.32,-0.59 97.72,-81.8 188.21,-158.39 73.58,-62.29 142.9,-121.35 153.89,-131.66 139.66,-130.97 314.21,-259.2 484.9,-384.57 43.75,-32.12 87.33,-64.15 132.22,-97.64l11.96 16.02z"></path> <path class="fil2" d="M2362.06 -240.61c-41.72,31.13 -86.88,64.3 -132.27,97.64 -170.23,125.03 -344.33,252.92 -483.13,383.09 -11.33,10.62 -81.02,70.02 -154.86,132.51 -91.47,77.42 -189.93,159.93 -192.73,161.2l-8.2 -18.2c1.32,-0.59 97.59,-81.69 188.03,-158.24 73.65,-62.34 143.07,-121.49 154.08,-131.81 139.69,-131.01 314.29,-259.26 485.01,-384.65 43.7,-32.1 87.16,-64.02 132.11,-97.56l11.96 16.02z"></path> <path class="fil2" d="M2352.31 -187.07c-41.67,31.09 -86.8,64.24 -132.17,97.56 -170.26,125.06 -344.4,252.96 -483.23,383.16 -11.33,10.62 -81.02,70.02 -154.86,132.51 -91.47,77.42 -189.93,159.93 -192.73,161.2l-8.2 -18.2c1.32,-0.59 97.59,-81.69 188.03,-158.24 73.65,-62.34 143.07,-121.49 154.08,-131.81 139.71,-131.02 314.35,-259.3 485.11,-384.72 43.65,-32.06 87.08,-63.96 132.01,-97.48l11.96 16.02z"></path> <path class="fil2" d="M2342.56 -133.54c-41.74,31.14 -86.84,64.28 -132.24,97.62 -170.25,125.04 -344.35,252.92 -483.16,383.1 -11.29,10.59 -80.76,69.81 -154.44,132.16 -91.59,77.53 -190.34,160.28 -193.14,161.55l-8.2 -18.2c1.33,-0.6 97.89,-81.94 188.44,-158.59 73.49,-62.19 142.67,-121.15 153.66,-131.46 139.69,-131.01 314.3,-259.26 485.04,-384.66 43.69,-32.09 87.19,-64.04 132.08,-97.54l11.96 16.02z"></path> <path class="fil2" d="M2332.82 -80.01c-41.79,31.17 -86.92,64.33 -132.34,97.69 -170.21,125.02 -344.28,252.88 -483.07,383.03 -11.29,10.59 -80.76,69.81 -154.44,132.16 -91.59,77.53 -190.34,160.28 -193.14,161.55l-8.2 -18.2c1.33,-0.6 97.89,-81.94 188.44,-158.59 73.49,-62.19 142.67,-121.15 153.66,-131.46 139.67,-130.97 314.24,-259.2 484.95,-384.59 43.71,-32.1 87.25,-64.09 132.18,-97.61l11.96 16.02z"></path> <path class="fil2" d="M2323.07 -26.48c-41.7,31.12 -86.9,64.31 -132.29,97.65 -170.22,125.03 -344.31,252.9 -483.11,383.07 -11.31,10.61 -80.89,69.9 -154.62,132.32 -91.54,77.47 -190.16,160.12 -192.97,161.39l-8.2 -18.2c1.31,-0.59 97.75,-81.83 188.27,-158.43 73.55,-62.26 142.85,-121.31 153.84,-131.62 139.69,-131 314.27,-259.24 484.99,-384.63 43.71,-32.1 87.17,-64.02 132.13,-97.57l11.96 16.02z"></path> <path class="fil2" d="M2313.32 27.05c-41.77,31.17 -86.96,64.36 -132.4,97.74 -170.18,125 -344.22,252.84 -483,382.98 -11.31,10.61 -80.89,69.91 -154.64,132.33 -91.53,77.47 -190.14,160.11 -192.94,161.38l-8.2 -18.2c1.32,-0.59 97.74,-81.82 188.24,-158.42 73.57,-62.27 142.87,-121.32 153.86,-131.63 139.65,-130.96 314.2,-259.18 484.88,-384.54 43.74,-32.13 87.26,-64.1 132.24,-97.66l11.96 16.02z"></path> <path class="fil2" d="M2303.58 80.58c-41.79,31.17 -86.92,64.33 -132.34,97.69 -170.21,125.02 -344.28,252.88 -483.07,383.03 -11.29,10.59 -80.76,69.81 -154.44,132.16 -91.59,77.53 -190.34,160.28 -193.14,161.55l-8.2 -18.2c1.33,-0.6 97.89,-81.94 188.44,-158.59 73.49,-62.19 142.67,-121.15 153.66,-131.46 139.67,-130.97 314.24,-259.2 484.95,-384.59 43.71,-32.1 87.25,-64.09 132.18,-97.61l11.96 16.02z"></path> <path class="fil2" d="M2293.83 134.11c-41.72,31.13 -86.88,64.3 -132.27,97.64 -170.23,125.03 -344.33,252.92 -483.13,383.09 -11.32,10.62 -81.02,70.01 -154.84,132.49 -91.47,77.41 -189.94,159.94 -192.75,161.21l-8.2 -18.2c1.32,-0.59 97.6,-81.7 188.05,-158.25 73.64,-62.32 143.06,-121.47 154.06,-131.79 139.69,-131.01 314.29,-259.26 485.01,-384.65 43.7,-32.1 87.16,-64.02 132.11,-97.56l11.96 16.02z"></path> <path class="fil2" d="M2284.08 187.64c-41.82,31.21 -86.93,64.35 -132.38,97.72 -170.19,125.01 -344.24,252.87 -483.02,383.01 -11.34,10.63 -81.21,70.17 -155.14,132.75 -91.38,77.35 -189.65,159.68 -192.45,160.95l-8.2 -18.2c1.32,-0.6 97.39,-81.51 187.75,-157.99 73.75,-62.42 143.34,-121.72 154.36,-132.05 139.66,-130.97 314.21,-259.2 484.9,-384.57 43.75,-32.12 87.33,-64.15 132.22,-97.64l11.96 16.02z"></path> <path class="fil2" d="M2274.34 241.17c-41.71,31.12 -86.91,64.32 -132.31,97.67 -170.23,125.03 -344.31,252.9 -483.1,383.06 -11.31,10.61 -80.9,69.91 -154.65,132.33 -91.52,77.46 -190.13,160.1 -192.93,161.37l-8.2 -18.2c1.32,-0.59 97.73,-81.81 188.23,-158.41 73.57,-62.27 142.88,-121.32 153.87,-131.63 139.67,-130.99 314.26,-259.23 484.98,-384.62 43.72,-32.12 87.17,-64.03 132.15,-97.59l11.96 16.02z"></path> <path class="fil2" d="M2264.59 294.7c-41.72,31.13 -86.88,64.3 -132.27,97.64 -170.23,125.03 -344.33,252.92 -483.13,383.09 -11.32,10.62 -81.02,70.01 -154.84,132.49 -91.47,77.41 -189.94,159.94 -192.75,161.21l-8.2 -18.2c1.32,-0.59 97.6,-81.7 188.05,-158.25 73.64,-62.32 143.06,-121.47 154.06,-131.79 139.69,-131.01 314.29,-259.26 485.01,-384.65 43.7,-32.1 87.16,-64.02 132.11,-97.56l11.96 16.02z"></path> <path class="fil2" d="M2254.84 348.23c-41.82,31.21 -86.93,64.35 -132.38,97.72 -170.19,125.01 -344.24,252.87 -483.02,383.01 -11.36,10.65 -81.44,70.37 -155.5,133.06 -91.27,77.25 -189.28,159.36 -192.13,160.64l-8.12 -18.2c1.27,-0.57 97.08,-81.28 187.35,-157.68 73.88,-62.53 143.68,-122.01 154.72,-132.36 139.66,-130.97 314.21,-259.2 484.9,-384.57 43.75,-32.12 87.33,-64.15 132.22,-97.64l11.96 16.02z"></path> <path class="fil2" d="M2245.09 401.76c-41.82,31.21 -86.93,64.35 -132.38,97.72 -170.19,125.01 -344.24,252.87 -483.02,383.01 -11.33,10.62 -81.13,70.11 -155.01,132.64 -91.43,77.39 -189.79,159.81 -192.57,161.06l-8.2 -18.2c1.32,-0.59 97.47,-81.58 187.87,-158.1 73.7,-62.38 143.21,-121.61 154.23,-131.94 139.66,-130.97 314.21,-259.2 484.9,-384.57 43.75,-32.12 87.33,-64.15 132.22,-97.64l11.96 16.02z"></path> <path class="fil2" d="M2235.35 455.29c-41.72,31.13 -86.88,64.3 -132.27,97.64 -170.23,125.03 -344.33,252.92 -483.13,383.09 -11.33,10.62 -81.02,70.02 -154.86,132.51 -91.47,77.42 -189.93,159.93 -192.73,161.2l-8.2 -18.2c1.32,-0.59 97.59,-81.69 188.03,-158.24 73.65,-62.34 143.07,-121.49 154.08,-131.81 139.69,-131.01 314.29,-259.26 485.01,-384.65 43.7,-32.1 87.16,-64.02 132.11,-97.56l11.96 16.02z"></path> <path class="fil2" d="M2468.77 343.64c-44.4,30.83 -90.87,62.59 -137.62,94.54 -177.11,121.07 -358.24,244.89 -504.14,371.74 -12.04,10.46 -84.93,68.18 -162.03,128.81 -95.71,75.26 -198.63,155.43 -201.43,156.6l-7.74 -18.44c1.41,-0.59 102.2,-79.45 196.83,-153.86 77.18,-60.69 149.88,-118.24 161.33,-128.19 146.89,-127.71 328.43,-251.81 505.92,-373.14 45.95,-31.4 91.67,-62.66 137.48,-94.46l11.4 16.4z"></path> <path class="fil2" d="M2456.07 396.9c-44.41,30.84 -90.95,62.65 -137.72,94.62 -177.08,121.05 -358.18,244.84 -504.04,371.67 -12.04,10.46 -84.93,68.18 -162.03,128.81 -95.71,75.26 -198.63,155.43 -201.43,156.6l-7.74 -18.44c1.41,-0.59 102.2,-79.45 196.83,-153.86 77.18,-60.69 149.88,-118.24 161.33,-128.19 146.85,-127.69 328.35,-251.75 505.82,-373.07 45.99,-31.43 91.73,-62.7 137.58,-94.54l11.4 16.4z"></path> <path class="fil2" d="M2443.36 450.17c-44.34,30.79 -90.81,62.55 -137.52,94.48 -177.14,121.09 -358.31,244.93 -504.23,371.8 -12.04,10.46 -84.93,68.18 -162.03,128.81 -95.71,75.26 -198.63,155.43 -201.43,156.6l-7.74 -18.44c1.41,-0.59 102.2,-79.45 196.83,-153.86 77.18,-60.69 149.88,-118.24 161.33,-128.19 146.9,-127.73 328.47,-251.84 506.01,-373.2 45.91,-31.38 91.6,-62.61 137.38,-94.4l11.4 16.4z"></path> <path class="fil2" d="M2430.66 503.43c-44.41,30.84 -90.91,62.63 -137.67,94.58 -177.1,121.06 -358.2,244.87 -504.08,371.71 -12.05,10.47 -85.1,68.32 -162.32,129.04 -95.63,75.2 -198.35,155.2 -201.15,156.37l-7.74 -18.44c1.42,-0.59 102,-79.28 196.55,-153.63 77.29,-60.78 150.17,-118.47 161.62,-128.42 146.87,-127.7 328.37,-251.78 505.86,-373.11 45.97,-31.41 91.71,-62.68 137.53,-94.5l11.4 16.4z"></path> <path class="fil2" d="M2417.96 556.7c-44.44,30.86 -90.95,62.65 -137.74,94.63 -177.07,121.05 -358.16,244.83 -504.02,371.65 -12.03,10.46 -84.78,68.07 -161.8,128.63 -95.77,75.31 -198.87,155.62 -201.66,156.79l-7.74 -18.44c1.43,-0.6 102.36,-79.58 197.06,-154.05 77.1,-60.62 149.67,-118.07 161.1,-128.01 146.85,-127.68 328.33,-251.73 505.8,-373.05 45.99,-31.43 91.76,-62.72 137.6,-94.55l11.4 16.4z"></path> <path class="fil2" d="M2405.26 609.96c-44.41,30.84 -90.95,62.65 -137.72,94.62 -177.08,121.05 -358.18,244.84 -504.04,371.67 -12.04,10.46 -84.93,68.18 -162.03,128.81 -95.71,75.26 -198.63,155.43 -201.43,156.6l-7.74 -18.44c1.41,-0.59 102.2,-79.45 196.83,-153.86 77.18,-60.69 149.88,-118.24 161.33,-128.19 146.85,-127.69 328.35,-251.75 505.82,-373.07 45.99,-31.43 91.73,-62.7 137.58,-94.54l11.4 16.4z"></path> <path class="fil2" d="M2392.55 663.23c-44.41,30.84 -90.91,62.63 -137.67,94.58 -177.1,121.06 -358.2,244.87 -504.08,371.71 -12.04,10.46 -84.93,68.18 -162.03,128.81 -95.71,75.26 -198.63,155.43 -201.43,156.6l-7.74 -18.44c1.41,-0.59 102.2,-79.45 196.83,-153.86 77.18,-60.69 149.88,-118.24 161.33,-128.19 146.87,-127.7 328.37,-251.78 505.86,-373.11 45.97,-31.41 91.71,-62.68 137.53,-94.5l11.4 16.4z"></path> <path class="fil2" d="M2379.85 716.5c-44.34,30.79 -90.81,62.55 -137.52,94.48 -177.14,121.09 -358.31,244.93 -504.23,371.8 -12.05,10.47 -85.1,68.32 -162.32,129.04 -95.63,75.2 -198.35,155.2 -201.15,156.37l-7.74 -18.44c1.42,-0.59 102,-79.28 196.55,-153.63 77.29,-60.78 150.17,-118.47 161.62,-128.42 146.9,-127.73 328.47,-251.84 506.01,-373.2 45.91,-31.38 91.6,-62.61 137.38,-94.4l11.4 16.4z"></path> <path class="fil2" d="M2631.73 591.17c-48.15,33.44 -111.55,76.63 -182.55,124.98 -244.95,166.84 -580.97,395.71 -723.79,519.9 -12.04,10.46 -84.95,68.19 -162.08,128.85 -95.64,75.2 -198.54,155.32 -201.38,156.52l-7.74 -18.36c1.36,-0.57 102.11,-79.42 196.78,-153.86 77.2,-60.71 149.94,-118.29 161.38,-128.23 143.82,-125.05 480.3,-354.24 725.57,-521.3 70.32,-47.89 133.13,-90.68 182.41,-124.9l11.4 16.4z"></path> <path class="fil2" d="M2618.99 644.45c-50.07,34.76 -112.47,77.27 -182.27,124.8 -244.96,166.84 -581.17,395.84 -724.03,520.06 -12.04,10.46 -84.94,68.19 -162.05,128.83 -95.71,75.26 -198.6,155.41 -201.41,156.59l-7.74 -18.44c1.42,-0.59 102.18,-79.44 196.81,-153.85 77.19,-60.7 149.91,-118.27 161.35,-128.21 143.86,-125.1 480.53,-354.4 725.81,-521.46 71.34,-48.58 134.99,-91.94 182.21,-124.72l11.32 16.4z"></path> <path class="fil2" d="M2606.35 697.7c-48.02,33.34 -111.26,76.42 -182.07,124.64 -244.99,166.86 -581.36,395.97 -724.29,520.24 -12.04,10.46 -84.93,68.18 -162.03,128.81 -95.71,75.26 -198.63,155.43 -201.43,156.6l-7.74 -18.44c1.41,-0.59 102.2,-79.45 196.83,-153.86 77.18,-60.69 149.88,-118.24 161.33,-128.19 143.93,-125.14 480.75,-354.55 726.07,-521.64 70.13,-47.76 132.75,-90.41 181.93,-124.56l11.4 16.4z"></path> <path class="fil2" d="M2653.15 706.87c-42.57,29.57 -100.19,69.01 -165.86,113.98 -261.65,179.15 -652.61,446.84 -799.98,574.97 -11.76,10.27 -84.92,68.18 -162.37,129.08 -95.62,75.19 -198.33,155.19 -201.12,156.36l-7.74 -18.44c1.43,-0.6 101.98,-79.27 196.52,-153.62 77.07,-60.6 149.88,-118.24 161.61,-128.44 148.38,-128.97 539.84,-397.01 801.82,-576.39 64.73,-44.32 121.51,-83.2 165.72,-113.9l11.4 16.4z"></path> <path class="fil2" d="M2640.47 760.14c-42.46,29.48 -99.91,68.82 -165.38,113.64 -261.67,179.15 -653.06,447.12 -800.51,575.33 -12.05,10.47 -85.14,68.34 -162.39,129.09 -95.6,75.18 -198.28,155.15 -201.07,156.32l-7.74 -18.44c1.42,-0.59 101.94,-79.25 196.47,-153.58 77.32,-60.8 150.24,-118.52 161.69,-128.47 148.42,-129.05 540.3,-397.36 802.29,-576.73 64.53,-44.18 121.14,-82.94 165.24,-113.56l11.4 16.4z"></path> <path class="fil2" d="M2303.64 1036.09c-44.41,30.84 -90.95,62.65 -137.72,94.62 -177.08,121.05 -358.18,244.84 -504.04,371.67 -12.04,10.46 -84.93,68.18 -162.03,128.81 -95.71,75.26 -198.63,155.43 -201.43,156.6l-7.74 -18.44c1.41,-0.59 102.2,-79.45 196.83,-153.86 77.18,-60.69 149.88,-118.24 161.33,-128.19 146.85,-127.69 328.35,-251.75 505.82,-373.07 45.99,-31.43 91.73,-62.7 137.58,-94.54l11.4 16.4z"></path> <path class="fil2" d="M2290.94 1089.36c-44.35,30.8 -90.78,62.53 -137.46,94.43 -177.16,121.11 -358.36,244.97 -504.3,371.85 -12.02,10.45 -84.53,67.87 -161.4,128.32 -95.85,75.37 -199.21,155.87 -202.02,157.06l-7.82 -18.36c1.41,-0.6 102.64,-79.81 197.5,-154.4 76.95,-60.51 149.29,-117.78 160.7,-127.7 146.93,-127.74 328.53,-251.88 506.08,-373.25 45.9,-31.37 91.57,-62.58 137.32,-94.35l11.4 16.4z"></path> <path class="fil2" d="M2278.23 1142.62c-44.41,30.84 -90.91,62.63 -137.67,94.58 -177.1,121.06 -358.2,244.87 -504.08,371.71 -12.05,10.47 -85.1,68.32 -162.32,129.04 -95.63,75.2 -198.35,155.2 -201.15,156.37l-7.74 -18.44c1.42,-0.59 102,-79.28 196.55,-153.63 77.29,-60.78 150.17,-118.47 161.62,-128.42 146.87,-127.7 328.37,-251.78 505.86,-373.11 45.97,-31.41 91.71,-62.68 137.53,-94.5l11.4 16.4z"></path> <path class="fil2" d="M2265.53 1195.89c-44.45,30.87 -90.93,62.65 -137.71,94.61 -177.07,121.05 -358.17,244.84 -504.05,371.67 -12.02,10.46 -84.83,68.11 -161.9,128.72 -95.74,75.3 -198.78,155.54 -201.56,156.7l-7.74 -18.44c1.44,-0.6 102.3,-79.51 196.96,-153.96 77.14,-60.66 149.77,-118.16 161.2,-128.1 146.86,-127.68 328.36,-251.75 505.83,-373.07 45.99,-31.43 91.75,-62.71 137.57,-94.53l11.4 16.4z"></path> <path class="fil2" d="M2252.83 1249.16c-44.4,30.83 -90.87,62.59 -137.62,94.54 -177.11,121.07 -358.24,244.89 -504.14,371.74 -12.04,10.46 -84.93,68.18 -162.03,128.81 -95.71,75.26 -198.63,155.43 -201.43,156.6l-7.74 -18.44c1.41,-0.59 102.2,-79.45 196.83,-153.86 77.18,-60.69 149.88,-118.24 161.33,-128.19 146.89,-127.71 328.43,-251.81 505.92,-373.14 45.95,-31.4 91.67,-62.66 137.48,-94.46l11.4 16.4z"></path> <path class="fil2" d="M2240.13 1302.42c-44.41,30.84 -90.95,62.65 -137.72,94.62 -177.08,121.05 -358.18,244.84 -504.04,371.67 -12.04,10.46 -84.93,68.18 -162.03,128.81 -95.71,75.26 -198.63,155.43 -201.43,156.6l-7.74 -18.44c1.41,-0.59 102.2,-79.45 196.83,-153.86 77.18,-60.69 149.88,-118.24 161.33,-128.19 146.85,-127.69 328.35,-251.75 505.82,-373.07 45.99,-31.43 91.73,-62.7 137.58,-94.54l11.4 16.4z"></path> <path class="fil2" d="M2227.42 1355.69c-44.34,30.79 -90.81,62.55 -137.52,94.48 -177.14,121.09 -358.31,244.93 -504.23,371.8 -12.04,10.46 -84.93,68.18 -162.03,128.81 -95.71,75.26 -198.63,155.43 -201.43,156.6l-7.74 -18.44c1.41,-0.59 102.2,-79.45 196.83,-153.86 77.18,-60.69 149.88,-118.24 161.33,-128.19 146.9,-127.73 328.47,-251.84 506.01,-373.2 45.91,-31.38 91.6,-62.61 137.38,-94.4l11.4 16.4z"></path> </g> </g> <polygon class="fil3" points="1647.67,37.43 1787.77,192.62 2044.08,403.62 2275.68,595.11 2394.08,726.77 2479.9,893.53 2356.65,872.2 2162.7,864.27 2151.65,867.25 1955.47,866.93 1776.98,877.6 1765.79,876.07 1676.08,887.7 1668.78,887.09 1652.75,872.06 1648.94,867.25 1652.88,793.64 1648.94,779.05 1645.42,637.91 1644.72,454.93 1647.66,236.66 1644.53,225.63 "></polygon> <path class="fil0" d="M987.2 592.32c49.18,6.22 109.02,3.7 169.84,1.14 58.73,-2.46 118.45,-4.98 171.85,0.15 6.38,0.61 34.82,1.07 68.98,1.62 69.75,1.12 161.34,2.66 162.89,18.61 5.27,54.19 4.32,147.72 3.48,230.15 -0.25,25.53 -0.51,49.78 -0.51,79.42 0,24.71 3.33,295.88 3.33,296.64l-14.03 14.26c-12.83,0 -33.47,0.28 -62.5,0.66 -106.88,1.41 -317.61,4.2 -440.92,1.55 -65.92,-1.42 -109.94,-7.75 -109.64,-22.28 0.6,-27.5 -0.26,-65.61 -1.19,-107.06 -0.85,-37.81 -1.77,-78.31 -1.77,-112.99 0,-10.78 -0.46,-30.03 -1.06,-55.66 -1.81,-76.36 -4.89,-206.38 -2.07,-278.8 1.58,-40.37 8.04,-66.38 22.32,-65.83 3.88,0.15 7.77,-0.38 11.51,-0.89 6.14,-0.83 12.1,-1.64 19.49,-0.69zm170.94 29.2c-61.89,2.61 -122.77,5.17 -174.38,-1.32 -4.09,-0.46 -8.15,0.09 -12.31,0.65 -4.89,0.66 -9.95,1.35 -16.3,1.11 -5.85,-0.14 7.7,15.54 6.79,38.82 -2.79,71.8 0.27,201.13 2.07,277.09 0.67,28.53 1.18,49.95 1.18,56.32 0,39.36 0.85,77.19 1.65,112.43 0.94,41.74 1.8,80.11 1.19,108.18 -0.12,5.91 33.04,-7.39 82.14,-6.34 122.97,2.64 333.33,-0.15 440.02,-1.55l48.64 -0.63c-0.7,-56.87 -3.28,-267.31 -3.28,-282.87 0,-17.86 0.31,-48.1 0.63,-79.64 0.83,-81.65 1.78,-174.3 -3.38,-227.29 -0.87,-8.97 -76.47,7.76 -135.37,6.81 -34.92,-0.56 -63.99,-1.04 -71.18,-1.72 -51.54,-4.95 -110.31,-2.48 -168.11,-0.05z"></path> <path class="fil0" d="M1255.81 780.14c36.92,0 70.42,15 94.68,39.25 24.3,24.31 39.3,57.81 39.3,94.73 0,36.93 -15,70.42 -39.25,94.68 -24.31,24.3 -57.81,39.3 -94.73,39.3 -36.93,0 -70.42,-15 -94.68,-39.25 -24.3,-24.31 -39.3,-57.8 -39.3,-94.73 0,-36.92 15,-70.42 39.25,-94.68 24.31,-24.3 57.8,-39.3 94.73,-39.3zm74.83 59.14c-19.12,-19.13 -45.59,-30.96 -74.83,-30.96 -29.25,0 -55.71,11.83 -74.81,30.94 -19.16,19.15 -30.99,45.62 -30.99,74.86 0,29.25 11.83,55.71 30.94,74.81 19.15,19.16 45.61,30.99 74.86,30.99 29.24,0 55.71,-11.83 74.81,-30.94 19.16,-19.15 30.99,-45.61 30.99,-74.86 0,-29.24 -11.83,-55.71 -30.97,-74.84z"></path> <path class="fil0" d="M1033.27 634.31c42.32,5.36 93.93,3.18 146.4,0.98 50.78,-2.13 102.39,-4.3 148.63,0.13 5.44,0.51 30.01,0.92 59.48,1.4 60.96,0.97 141,2.37 142.48,17.8 4.56,46.88 3.74,127.71 3.01,198.95 -0.21,21.63 -0.43,42.2 -0.43,68.57 0,19.69 2.87,255.5 2.87,256.15l-14.03 14.26c-11.85,0 -29.26,0.24 -53.96,0.56 -92.2,1.22 -273.85,3.62 -380.42,1.35 -58.31,-1.25 -97.26,-7.23 -96.97,-21.2 0.52,-23.73 -0.23,-56.63 -1.03,-92.45 -0.73,-32.81 -1.53,-67.97 -1.53,-97.54 0,-9.72 -0.4,-26.09 -0.91,-48.03 -1.56,-65.99 -4.22,-178.33 -1.78,-240.9 1.4,-36 7.54,-59.2 21.25,-58.67 3.17,0.12 6.46,-0.33 9.63,-0.76 5.44,-0.73 10.72,-1.45 17.31,-0.6zm147.5 29.04c-53.54,2.25 -106.2,4.47 -150.94,-1.16 -3.31,-0.36 -6.68,0.1 -10.13,0.56 -4.3,0.58 -8.75,1.19 -14.37,0.98 -6.54,-0.25 8.54,12.67 7.81,31.61 -2.41,61.95 0.23,173.64 1.78,239.24 0.58,24.84 1.03,43.61 1.03,48.69 0,34.33 0.73,66.75 1.41,96.98 0.81,36.11 1.56,69.28 1.03,93.57 -0.13,6.5 27.98,-8.3 69.47,-7.42 106.22,2.26 287.5,-0.14 379.52,-1.35l40.09 -0.52c-0.64,-51.54 -2.81,-227.73 -2.81,-242.39 0,-14.66 0.27,-41.12 0.55,-68.79 0.72,-70.46 1.54,-150.41 -2.91,-196.09 -0.9,-9.4 -64.86,8.42 -114.96,7.62 -30.23,-0.49 -55.41,-0.91 -61.68,-1.5 -44.38,-4.26 -95.05,-2.13 -144.89,-0.03z"></path> </g> </svg> 