<?xml version="1.0" encoding="UTF-8"?> <!-- Creator: CorelDRAW --> <svg xmlns="http://www.w3.org/2000/svg" xmlns:xlink="http://www.w3.org/1999/xlink" xmlns:xodm="http://www.corel.com/coreldraw/odm/2003" xml:space="preserve" width="25.2582mm" height="18.2322mm" style="shape-rendering:geometricPrecision; text-rendering:geometricPrecision; image-rendering:optimizeQuality; fill-rule:evenodd; clip-rule:evenodd" viewBox="0 0 2525.82 1823.22"> <defs> <style type="text/css"> <![CDATA[ .fil3 {fill:none} .fil1 {fill:#2B2B2A} .fil2 {fill:white;fill-rule:nonzero} .fil0 {fill:#2B2B2A;fill-rule:nonzero} ]]> </style> <clipPath id="id0"> <path d="M1653.56 42.86l140.1 155.19 256.31 211 231.6 191.49 118.4 131.66 85.82 166.76 -123.25 -21.33 -193.95 -7.93 -11.05 2.98 -196.18 -0.32 -178.49 10.67 -11.19 -1.53 -89.71 11.63 -7.3 -0.61 -16.03 -15.03 -3.81 -4.81 3.94 -73.61 -3.94 -14.59 -3.52 -141.14 -0.7 -182.98 2.94 -218.27 -3.13 -11.03 3.14 -188.2z"></path> </clipPath> </defs> <g id="Слой_x0020_1"> <metadata id="CorelCorpID_0Corel-Layer"></metadata> <path class="fil0" d="M2518.12 906.26c1.96,8.35 3.34,115.39 4.27,253.94 1.68,250.42 2.24,588.71 2.24,657.15l-14.09 14.09 -2490.13 0c-9.45,0 -14.18,-4.87 -14.18,-14.6 0,-3.37 1.88,-16.64 4.24,-33.46 3.86,-27.41 9.15,-64.87 9.15,-77.83 0,-90.4 -5.27,-174.76 -10.5,-258.34 -7.88,-125.95 -15.65,-250.23 -5.42,-388.76 8.42,-113.94 14.46,-211.35 18.37,-308.85 3.88,-97.2 5.71,-196.04 5.71,-313.42 0,-10.46 -0.33,-25.16 -0.75,-44.72 -0.93,-42.79 -2.33,-106.48 -2.33,-165.13 0,-108.47 6.44,-214.39 33.49,-214.39 30.68,0 85.84,-0.34 164.15,-0.81 411.78,-2.51 1415.97,-8.62 1432.3,11.06l9.02 10.86c85.53,102.99 109.04,131.29 216.96,223 54.84,46.6 111.04,90.09 167.5,133.8 95.74,74.11 192.35,148.88 284.98,240.62 29.22,28.94 78.36,90.4 118.58,150.1 32.39,48.08 59.36,95.67 66.44,125.69zm-23.79 254.06c-0.92,-136.52 -2.12,-241.35 -3.61,-247.68 -6.21,-26.32 -31.62,-70.67 -62.38,-116.33 -39.37,-58.44 -87.02,-118.15 -115.06,-145.92 -91.35,-90.48 -187.28,-164.72 -282.34,-238.3 -56.81,-43.97 -113.36,-87.74 -168.48,-134.58 -109.61,-93.15 -133.49,-121.89 -220.38,-226.52l-9.02 -10.86c-7.88,-9.49 -1002.67,-3.42 -1410.6,-0.94l-164.27 0.93c-4.28,0 -5.31,91.99 -5.31,186.21 0,63.61 1.33,123.98 2.21,164.57 0.49,22.69 0.87,39.86 0.87,45.28 0,116.08 -1.86,215.27 -5.83,314.52 -3.96,98.92 -10,196.45 -18.37,309.73 -10.1,136.86 -2.39,260.16 5.42,385.12 5.28,84.53 10.62,169.84 10.62,260 0,14.42 -5.48,53.26 -9.49,81.69l-2.24 16.02 2460.38 0c-0.06,-95.37 -0.62,-418.73 -2.12,-642.94z"></path> <path class="fil0" d="M1629.93 33.2c-1.12,-7.68 4.2,-14.84 11.88,-15.96 7.68,-1.12 14.84,4.2 15.96,11.88 12.53,84.85 10.37,214.9 8.1,351.27 -2.18,130.83 -4.45,267.59 6.19,374.66 2.7,27.22 0.48,51.49 -1.4,72.07 -1.49,16.35 -2.76,30.17 -0.87,39.44 3,14.75 20.38,19.05 79.33,7.04 53.96,-10.99 301.88,-22.65 500.32,-16.31 124.24,3.97 230.51,15.7 262.47,40.23 0.88,0.55 1.71,1.21 2.47,1.97l2.81 2.97 -20.69 18.99 -3.06 -3.17c-22.92,-19.3 -124.18,-29.08 -244.88,-32.93 -196.63,-6.29 -441.12,5.03 -493.82,15.77 -80.67,16.44 -105.76,4.04 -112.47,-28.94 -2.7,-13.28 -1.27,-29 0.43,-47.6 1.77,-19.3 3.85,-42.09 1.4,-66.77 -10.77,-108.39 -8.48,-246.11 -6.29,-377.86 2.24,-134.97 4.38,-263.68 -7.88,-346.75z"></path> <polygon class="fil1" points="1653.56,42.86 1793.66,198.05 2049.97,409.05 2281.57,600.54 2399.97,732.2 2485.79,898.96 2362.54,877.63 2168.59,869.7 2157.54,872.68 1961.36,872.36 1782.87,883.03 1771.68,881.5 1681.97,893.13 1674.67,892.52 1658.64,877.49 1654.83,872.68 1658.77,799.07 1654.83,784.48 1651.31,643.34 1650.61,460.36 1653.55,242.09 1650.42,231.06 "></polygon> <g style="clip-path:url(#id0)"> <g id="_140167724681200"> <path id="_1" class="fil2" d="M2426.43 -556.36c-41.72,31.13 -86.88,64.3 -132.27,97.64 -170.23,125.03 -344.33,252.92 -483.13,383.09 -11.32,10.62 -81.02,70.01 -154.84,132.49 -91.47,77.41 -189.94,159.94 -192.75,161.21l-8.2 -18.2c1.32,-0.59 97.6,-81.7 188.05,-158.25 73.64,-62.32 143.06,-121.47 154.06,-131.79 139.69,-131.01 314.29,-259.26 485.01,-384.65 43.7,-32.1 87.16,-64.02 132.11,-97.56l11.96 16.02z"></path> <path class="fil2" d="M2416.68 -502.83c-41.82,31.21 -86.93,64.35 -132.38,97.72 -170.19,125.01 -344.24,252.87 -483.02,383.01 -11.34,10.63 -81.21,70.17 -155.14,132.75 -91.38,77.35 -189.65,159.68 -192.45,160.95l-8.2 -18.2c1.32,-0.6 97.39,-81.51 187.75,-157.99 73.75,-62.42 143.34,-121.72 154.36,-132.05 139.66,-130.97 314.21,-259.2 484.9,-384.57 43.75,-32.12 87.33,-64.15 132.22,-97.64l11.96 16.02z"></path> <path class="fil2" d="M2406.94 -449.3c-41.71,31.12 -86.91,64.32 -132.31,97.67 -170.23,125.03 -344.31,252.9 -483.1,383.06 -11.33,10.62 -81.13,70.11 -155.01,132.64 -91.43,77.39 -189.79,159.81 -192.57,161.06l-8.2 -18.2c1.32,-0.59 97.47,-81.58 187.87,-158.1 73.7,-62.38 143.21,-121.61 154.23,-131.94 139.67,-130.99 314.26,-259.23 484.98,-384.62 43.72,-32.12 87.17,-64.03 132.15,-97.59l11.96 16.02z"></path> <path class="fil2" d="M2397.19 -395.77c-41.72,31.13 -86.88,64.3 -132.27,97.64 -170.23,125.03 -344.33,252.92 -483.13,383.09 -11.33,10.62 -81.25,70.2 -155.2,132.8 -91.38,77.33 -189.59,159.64 -192.39,160.9l-8.2 -18.2c1.31,-0.59 97.35,-81.49 187.69,-157.94 73.77,-62.45 143.4,-121.77 154.42,-132.1 139.69,-131.01 314.29,-259.26 485.01,-384.65 43.7,-32.1 87.16,-64.02 132.11,-97.56l11.96 16.02z"></path> <path class="fil2" d="M2387.44 -342.24c-41.82,31.21 -86.93,64.35 -132.38,97.72 -170.19,125.01 -344.24,252.87 -483.02,383.01 -11.36,10.65 -81.44,70.37 -155.5,133.06 -91.27,77.25 -189.28,159.36 -192.13,160.64l-8.12 -18.2c1.27,-0.57 97.08,-81.28 187.35,-157.68 73.88,-62.53 143.68,-122.01 154.72,-132.36 139.66,-130.97 314.21,-259.2 484.9,-384.57 43.75,-32.12 87.33,-64.15 132.22,-97.64l11.96 16.02z"></path> <path class="fil2" d="M2377.69 -288.71c-41.82,31.21 -86.93,64.35 -132.38,97.72 -170.19,125.01 -344.24,252.87 -483.02,383.01 -11.31,10.61 -80.91,69.92 -154.67,132.36 -91.51,77.46 -190.1,160.08 -192.91,161.35l-8.2 -18.2c1.32,-0.59 97.72,-81.8 188.21,-158.39 73.58,-62.29 142.9,-121.35 153.89,-131.66 139.66,-130.97 314.21,-259.2 484.9,-384.57 43.75,-32.12 87.33,-64.15 132.22,-97.64l11.96 16.02z"></path> <path class="fil2" d="M2367.95 -235.18c-41.72,31.13 -86.88,64.3 -132.27,97.64 -170.23,125.03 -344.33,252.92 -483.13,383.09 -11.33,10.62 -81.02,70.02 -154.86,132.51 -91.47,77.42 -189.93,159.93 -192.73,161.2l-8.2 -18.2c1.32,-0.59 97.59,-81.69 188.03,-158.24 73.65,-62.34 143.07,-121.49 154.08,-131.81 139.69,-131.01 314.29,-259.26 485.01,-384.65 43.7,-32.1 87.16,-64.02 132.11,-97.56l11.96 16.02z"></path> <path class="fil2" d="M2358.2 -181.64c-41.67,31.09 -86.8,64.24 -132.17,97.56 -170.26,125.06 -344.4,252.96 -483.23,383.16 -11.33,10.62 -81.02,70.02 -154.86,132.51 -91.47,77.42 -189.93,159.93 -192.73,161.2l-8.2 -18.2c1.32,-0.59 97.59,-81.69 188.03,-158.24 73.65,-62.34 143.07,-121.49 154.08,-131.81 139.71,-131.02 314.35,-259.3 485.11,-384.72 43.65,-32.06 87.08,-63.96 132.01,-97.48l11.96 16.02z"></path> <path class="fil2" d="M2348.45 -128.11c-41.74,31.14 -86.84,64.28 -132.24,97.62 -170.25,125.04 -344.35,252.92 -483.16,383.1 -11.29,10.59 -80.76,69.81 -154.44,132.16 -91.59,77.53 -190.34,160.28 -193.14,161.55l-8.2 -18.2c1.32,-0.6 97.89,-81.94 188.44,-158.59 73.49,-62.19 142.67,-121.15 153.66,-131.46 139.69,-131.01 314.3,-259.26 485.04,-384.66 43.69,-32.09 87.19,-64.04 132.08,-97.54l11.96 16.02z"></path> <path class="fil2" d="M2338.71 -74.58c-41.79,31.17 -86.92,64.33 -132.34,97.69 -170.21,125.02 -344.28,252.88 -483.07,383.03 -11.29,10.59 -80.76,69.81 -154.44,132.16 -91.59,77.53 -190.34,160.28 -193.14,161.55l-8.2 -18.2c1.32,-0.6 97.89,-81.94 188.44,-158.59 73.49,-62.19 142.67,-121.15 153.66,-131.46 139.67,-130.97 314.24,-259.2 484.95,-384.59 43.71,-32.1 87.25,-64.09 132.18,-97.61l11.96 16.02z"></path> <path class="fil2" d="M2328.96 -21.05c-41.7,31.12 -86.9,64.31 -132.29,97.65 -170.22,125.03 -344.31,252.9 -483.11,383.07 -11.31,10.61 -80.89,69.9 -154.62,132.32 -91.54,77.47 -190.16,160.12 -192.97,161.39l-8.2 -18.2c1.31,-0.59 97.75,-81.83 188.27,-158.43 73.55,-62.26 142.85,-121.31 153.84,-131.62 139.69,-131 314.27,-259.24 484.99,-384.63 43.71,-32.1 87.17,-64.02 132.13,-97.57l11.96 16.02z"></path> <path class="fil2" d="M2319.21 32.48c-41.77,31.17 -86.96,64.36 -132.4,97.74 -170.18,125 -344.22,252.84 -483,382.98 -11.31,10.61 -80.89,69.91 -154.64,132.33 -91.53,77.47 -190.14,160.11 -192.94,161.38l-8.2 -18.2c1.32,-0.59 97.74,-81.82 188.24,-158.42 73.57,-62.27 142.87,-121.32 153.86,-131.63 139.65,-130.96 314.2,-259.18 484.88,-384.54 43.74,-32.13 87.26,-64.1 132.24,-97.66l11.96 16.02z"></path> <path class="fil2" d="M2309.47 86.01c-41.79,31.17 -86.92,64.33 -132.34,97.69 -170.21,125.02 -344.28,252.88 -483.07,383.03 -11.29,10.59 -80.76,69.81 -154.44,132.16 -91.59,77.53 -190.34,160.28 -193.14,161.55l-8.2 -18.2c1.32,-0.6 97.89,-81.94 188.44,-158.59 73.49,-62.19 142.67,-121.15 153.66,-131.46 139.67,-130.97 314.24,-259.2 484.95,-384.59 43.71,-32.1 87.25,-64.09 132.18,-97.61l11.96 16.02z"></path> <path class="fil2" d="M2299.72 139.54c-41.72,31.13 -86.88,64.3 -132.27,97.64 -170.23,125.03 -344.33,252.92 -483.13,383.09 -11.32,10.62 -81.02,70.01 -154.84,132.49 -91.47,77.41 -189.94,159.94 -192.75,161.21l-8.2 -18.2c1.32,-0.59 97.6,-81.7 188.05,-158.25 73.64,-62.32 143.06,-121.47 154.06,-131.79 139.69,-131.01 314.29,-259.26 485.01,-384.65 43.7,-32.1 87.16,-64.02 132.11,-97.56l11.96 16.02z"></path> <path class="fil2" d="M2289.97 193.07c-41.82,31.21 -86.93,64.35 -132.38,97.72 -170.19,125.01 -344.24,252.87 -483.02,383.01 -11.34,10.63 -81.21,70.17 -155.14,132.75 -91.38,77.35 -189.65,159.68 -192.45,160.95l-8.2 -18.2c1.32,-0.6 97.39,-81.51 187.75,-157.99 73.75,-62.42 143.34,-121.72 154.36,-132.05 139.66,-130.97 314.21,-259.2 484.9,-384.57 43.75,-32.12 87.33,-64.15 132.22,-97.64l11.96 16.02z"></path> <path class="fil2" d="M2280.23 246.6c-41.71,31.12 -86.91,64.32 -132.31,97.67 -170.23,125.03 -344.31,252.9 -483.1,383.06 -11.31,10.61 -80.9,69.91 -154.65,132.33 -91.52,77.46 -190.12,160.1 -192.93,161.37l-8.2 -18.2c1.32,-0.59 97.73,-81.81 188.23,-158.41 73.57,-62.27 142.88,-121.32 153.87,-131.63 139.67,-130.99 314.26,-259.23 484.98,-384.62 43.72,-32.12 87.17,-64.03 132.15,-97.59l11.96 16.02z"></path> <path class="fil2" d="M2270.48 300.13c-41.72,31.13 -86.88,64.3 -132.27,97.64 -170.23,125.03 -344.33,252.92 -483.13,383.09 -11.32,10.62 -81.02,70.01 -154.84,132.49 -91.47,77.41 -189.94,159.94 -192.75,161.21l-8.2 -18.2c1.32,-0.59 97.6,-81.7 188.05,-158.25 73.64,-62.32 143.06,-121.47 154.06,-131.79 139.69,-131.01 314.29,-259.26 485.01,-384.65 43.7,-32.1 87.16,-64.02 132.11,-97.56l11.96 16.02z"></path> <path class="fil2" d="M2260.73 353.66c-41.82,31.21 -86.93,64.35 -132.38,97.72 -170.19,125.01 -344.24,252.87 -483.02,383.01 -11.36,10.65 -81.44,70.37 -155.5,133.06 -91.27,77.25 -189.28,159.36 -192.13,160.64l-8.12 -18.2c1.27,-0.57 97.08,-81.28 187.35,-157.68 73.88,-62.53 143.68,-122.01 154.72,-132.36 139.66,-130.97 314.21,-259.2 484.9,-384.57 43.75,-32.12 87.33,-64.15 132.22,-97.64l11.96 16.02z"></path> <path class="fil2" d="M2250.98 407.19c-41.82,31.21 -86.93,64.35 -132.38,97.72 -170.19,125.01 -344.24,252.87 -483.02,383.01 -11.33,10.62 -81.13,70.11 -155.01,132.64 -91.43,77.39 -189.79,159.81 -192.57,161.06l-8.2 -18.2c1.32,-0.59 97.47,-81.58 187.87,-158.1 73.7,-62.38 143.21,-121.61 154.23,-131.94 139.66,-130.97 314.21,-259.2 484.9,-384.57 43.75,-32.12 87.33,-64.15 132.22,-97.64l11.96 16.02z"></path> <path class="fil2" d="M2241.24 460.72c-41.72,31.13 -86.88,64.3 -132.27,97.64 -170.23,125.03 -344.33,252.92 -483.13,383.09 -11.33,10.62 -81.02,70.02 -154.86,132.51 -91.47,77.42 -189.93,159.93 -192.73,161.2l-8.2 -18.2c1.32,-0.59 97.59,-81.69 188.03,-158.24 73.65,-62.34 143.07,-121.49 154.08,-131.81 139.69,-131.01 314.29,-259.26 485.01,-384.65 43.7,-32.1 87.16,-64.02 132.11,-97.56l11.96 16.02z"></path> <path class="fil2" d="M2474.66 349.07c-44.4,30.83 -90.87,62.59 -137.62,94.54 -177.11,121.07 -358.24,244.89 -504.14,371.74 -12.04,10.46 -84.93,68.18 -162.03,128.81 -95.71,75.26 -198.63,155.43 -201.43,156.6l-7.74 -18.44c1.41,-0.59 102.2,-79.45 196.83,-153.86 77.18,-60.69 149.88,-118.24 161.33,-128.19 146.89,-127.71 328.43,-251.81 505.92,-373.14 45.95,-31.4 91.67,-62.66 137.48,-94.46l11.4 16.4z"></path> <path class="fil2" d="M2461.96 402.33c-44.41,30.84 -90.95,62.65 -137.72,94.62 -177.08,121.05 -358.18,244.84 -504.04,371.67 -12.04,10.46 -84.93,68.18 -162.03,128.81 -95.71,75.26 -198.63,155.43 -201.43,156.6l-7.74 -18.44c1.41,-0.59 102.2,-79.45 196.83,-153.86 77.18,-60.69 149.88,-118.24 161.33,-128.19 146.85,-127.69 328.35,-251.75 505.82,-373.07 45.99,-31.43 91.73,-62.7 137.58,-94.54l11.4 16.4z"></path> <path class="fil2" d="M2449.25 455.6c-44.34,30.79 -90.81,62.55 -137.52,94.48 -177.14,121.09 -358.31,244.93 -504.23,371.8 -12.04,10.46 -84.93,68.18 -162.03,128.81 -95.71,75.26 -198.63,155.43 -201.43,156.6l-7.74 -18.44c1.41,-0.59 102.2,-79.45 196.83,-153.86 77.18,-60.69 149.88,-118.24 161.33,-128.19 146.9,-127.73 328.47,-251.84 506.01,-373.2 45.91,-31.38 91.6,-62.61 137.38,-94.4l11.4 16.4z"></path> <path class="fil2" d="M2436.55 508.86c-44.41,30.84 -90.91,62.63 -137.67,94.58 -177.1,121.06 -358.2,244.87 -504.08,371.71 -12.05,10.47 -85.1,68.32 -162.32,129.04 -95.63,75.2 -198.35,155.2 -201.15,156.37l-7.74 -18.44c1.42,-0.59 102,-79.28 196.55,-153.63 77.29,-60.78 150.17,-118.47 161.62,-128.42 146.87,-127.7 328.37,-251.78 505.86,-373.11 45.97,-31.41 91.71,-62.68 137.53,-94.5l11.4 16.4z"></path> <path class="fil2" d="M2423.85 562.13c-44.44,30.86 -90.95,62.65 -137.74,94.63 -177.07,121.05 -358.16,244.83 -504.02,371.65 -12.03,10.46 -84.78,68.07 -161.8,128.63 -95.77,75.31 -198.86,155.62 -201.66,156.79l-7.74 -18.44c1.43,-0.6 102.36,-79.58 197.06,-154.05 77.1,-60.62 149.67,-118.07 161.1,-128.01 146.85,-127.68 328.33,-251.73 505.8,-373.05 45.99,-31.43 91.76,-62.72 137.6,-94.55l11.4 16.4z"></path> <path class="fil2" d="M2411.15 615.39c-44.41,30.84 -90.95,62.65 -137.72,94.62 -177.08,121.05 -358.18,244.84 -504.04,371.67 -12.04,10.46 -84.93,68.18 -162.03,128.81 -95.71,75.26 -198.63,155.43 -201.43,156.6l-7.74 -18.44c1.41,-0.59 102.2,-79.45 196.83,-153.86 77.18,-60.69 149.88,-118.24 161.33,-128.19 146.85,-127.69 328.35,-251.75 505.82,-373.07 45.99,-31.43 91.73,-62.7 137.58,-94.54l11.4 16.4z"></path> <path class="fil2" d="M2398.44 668.66c-44.41,30.84 -90.91,62.63 -137.67,94.58 -177.1,121.06 -358.2,244.87 -504.08,371.71 -12.04,10.46 -84.93,68.18 -162.03,128.81 -95.71,75.26 -198.63,155.43 -201.43,156.6l-7.74 -18.44c1.41,-0.59 102.2,-79.45 196.83,-153.86 77.18,-60.69 149.88,-118.24 161.33,-128.19 146.87,-127.7 328.37,-251.78 505.86,-373.11 45.97,-31.41 91.71,-62.68 137.53,-94.5l11.4 16.4z"></path> <path class="fil2" d="M2385.74 721.93c-44.34,30.79 -90.81,62.55 -137.52,94.48 -177.14,121.09 -358.31,244.93 -504.23,371.8 -12.05,10.47 -85.1,68.32 -162.32,129.04 -95.63,75.2 -198.35,155.2 -201.15,156.37l-7.74 -18.44c1.42,-0.59 102,-79.28 196.55,-153.63 77.29,-60.78 150.17,-118.47 161.62,-128.42 146.9,-127.73 328.47,-251.84 506.01,-373.2 45.91,-31.38 91.6,-62.61 137.38,-94.4l11.4 16.4z"></path> <path class="fil2" d="M2637.62 596.6c-48.15,33.44 -111.55,76.63 -182.55,124.98 -244.95,166.84 -580.97,395.71 -723.79,519.9 -12.04,10.46 -84.95,68.19 -162.08,128.85 -95.64,75.2 -198.54,155.32 -201.38,156.52l-7.74 -18.36c1.36,-0.57 102.11,-79.42 196.78,-153.86 77.2,-60.71 149.94,-118.29 161.38,-128.23 143.82,-125.05 480.3,-354.24 725.57,-521.3 70.32,-47.89 133.13,-90.68 182.41,-124.9l11.4 16.4z"></path> <path class="fil2" d="M2624.88 649.88c-50.07,34.76 -112.47,77.27 -182.27,124.8 -244.96,166.84 -581.17,395.84 -724.03,520.06 -12.04,10.46 -84.94,68.19 -162.05,128.83 -95.71,75.26 -198.6,155.41 -201.41,156.59l-7.74 -18.44c1.42,-0.59 102.18,-79.44 196.81,-153.85 77.19,-60.7 149.91,-118.27 161.35,-128.21 143.86,-125.1 480.53,-354.4 725.81,-521.46 71.34,-48.58 134.99,-91.94 182.21,-124.72l11.32 16.4z"></path> <path class="fil2" d="M2612.24 703.13c-48.02,33.34 -111.26,76.42 -182.07,124.64 -244.99,166.86 -581.36,395.97 -724.29,520.24 -12.04,10.46 -84.93,68.18 -162.03,128.81 -95.71,75.26 -198.63,155.43 -201.43,156.6l-7.74 -18.44c1.41,-0.59 102.2,-79.45 196.83,-153.86 77.18,-60.69 149.88,-118.24 161.33,-128.19 143.93,-125.14 480.75,-354.55 726.07,-521.64 70.13,-47.76 132.75,-90.41 181.93,-124.56l11.4 16.4z"></path> <path class="fil2" d="M2659.04 712.3c-42.57,29.57 -100.19,69.01 -165.86,113.98 -261.65,179.15 -652.61,446.84 -799.98,574.97 -11.76,10.27 -84.92,68.18 -162.37,129.08 -95.62,75.19 -198.33,155.19 -201.12,156.36l-7.74 -18.44c1.42,-0.59 101.98,-79.27 196.52,-153.62 77.07,-60.6 149.88,-118.24 161.61,-128.44 148.38,-128.97 539.84,-397.01 801.82,-576.39 64.73,-44.32 121.51,-83.2 165.72,-113.9l11.4 16.4z"></path> <path class="fil2" d="M2646.36 765.57c-42.46,29.48 -99.91,68.82 -165.38,113.64 -261.67,179.15 -653.06,447.12 -800.51,575.33 -12.05,10.47 -85.14,68.34 -162.39,129.09 -95.6,75.18 -198.28,155.15 -201.07,156.32l-7.74 -18.44c1.42,-0.59 101.94,-79.25 196.47,-153.58 77.32,-60.8 150.24,-118.52 161.69,-128.47 148.43,-129.06 540.3,-397.36 802.29,-576.73 64.53,-44.18 121.14,-82.94 165.24,-113.56l11.4 16.4z"></path> <path class="fil2" d="M2309.53 1041.52c-44.41,30.84 -90.95,62.65 -137.72,94.62 -177.08,121.05 -358.18,244.84 -504.04,371.67 -12.04,10.46 -84.93,68.18 -162.03,128.81 -95.71,75.26 -198.63,155.43 -201.43,156.6l-7.74 -18.44c1.41,-0.59 102.2,-79.45 196.83,-153.86 77.18,-60.69 149.88,-118.24 161.33,-128.19 146.85,-127.69 328.35,-251.75 505.82,-373.07 45.99,-31.43 91.73,-62.7 137.58,-94.54l11.4 16.4z"></path> <path class="fil2" d="M2296.83 1094.79c-44.35,30.8 -90.78,62.53 -137.46,94.43 -177.16,121.11 -358.36,244.97 -504.3,371.85 -12.02,10.45 -84.53,67.87 -161.4,128.32 -95.85,75.37 -199.21,155.87 -202.02,157.06l-7.82 -18.36c1.41,-0.6 102.64,-79.81 197.5,-154.4 76.95,-60.51 149.29,-117.78 160.7,-127.7 146.93,-127.74 328.53,-251.88 506.08,-373.25 45.9,-31.37 91.57,-62.58 137.32,-94.35l11.4 16.4z"></path> <path class="fil2" d="M2284.12 1148.05c-44.41,30.84 -90.91,62.63 -137.67,94.58 -177.1,121.06 -358.2,244.87 -504.08,371.71 -12.05,10.47 -85.1,68.32 -162.32,129.04 -95.63,75.2 -198.35,155.2 -201.15,156.37l-7.74 -18.44c1.42,-0.59 102,-79.28 196.55,-153.63 77.29,-60.78 150.17,-118.47 161.62,-128.42 146.87,-127.7 328.37,-251.78 505.86,-373.11 45.97,-31.41 91.71,-62.68 137.53,-94.5l11.4 16.4z"></path> <path class="fil2" d="M2271.42 1201.32c-44.45,30.87 -90.93,62.65 -137.71,94.61 -177.07,121.05 -358.17,244.84 -504.05,371.67 -12.02,10.46 -84.83,68.11 -161.9,128.72 -95.74,75.3 -198.78,155.54 -201.56,156.7l-7.74 -18.44c1.43,-0.6 102.3,-79.51 196.96,-153.96 77.14,-60.66 149.77,-118.16 161.2,-128.1 146.86,-127.68 328.36,-251.75 505.83,-373.07 45.99,-31.43 91.75,-62.71 137.57,-94.53l11.4 16.4z"></path> <path class="fil2" d="M2258.72 1254.59c-44.4,30.83 -90.87,62.59 -137.62,94.54 -177.11,121.07 -358.24,244.89 -504.14,371.74 -12.04,10.46 -84.93,68.18 -162.03,128.81 -95.71,75.26 -198.63,155.43 -201.43,156.6l-7.74 -18.44c1.41,-0.59 102.2,-79.45 196.83,-153.86 77.18,-60.69 149.88,-118.24 161.33,-128.19 146.89,-127.71 328.43,-251.81 505.92,-373.14 45.95,-31.4 91.67,-62.66 137.48,-94.46l11.4 16.4z"></path> <path class="fil2" d="M2246.02 1307.85c-44.41,30.84 -90.95,62.65 -137.72,94.62 -177.08,121.05 -358.18,244.84 -504.04,371.67 -12.04,10.46 -84.93,68.18 -162.03,128.81 -95.71,75.26 -198.63,155.43 -201.43,156.6l-7.74 -18.44c1.41,-0.59 102.2,-79.45 196.83,-153.86 77.18,-60.69 149.88,-118.24 161.33,-128.19 146.85,-127.69 328.35,-251.75 505.82,-373.07 45.99,-31.43 91.73,-62.7 137.58,-94.54l11.4 16.4z"></path> <path class="fil2" d="M2233.31 1361.12c-44.34,30.79 -90.81,62.55 -137.52,94.48 -177.14,121.09 -358.31,244.93 -504.23,371.8 -12.04,10.46 -84.93,68.18 -162.03,128.81 -95.71,75.26 -198.63,155.43 -201.43,156.6l-7.74 -18.44c1.41,-0.59 102.2,-79.45 196.83,-153.86 77.18,-60.69 149.88,-118.24 161.33,-128.19 146.9,-127.73 328.47,-251.84 506.01,-373.2 45.91,-31.38 91.6,-62.61 137.38,-94.4l11.4 16.4z"></path> </g> </g> <polygon class="fil3" points="1653.56,42.86 1793.66,198.05 2049.97,409.05 2281.57,600.54 2399.97,732.2 2485.79,898.96 2362.54,877.63 2168.59,869.7 2157.54,872.68 1961.36,872.36 1782.87,883.03 1771.68,881.5 1681.97,893.13 1674.67,892.52 1658.64,877.49 1654.83,872.68 1658.77,799.07 1654.83,784.48 1651.31,643.34 1650.61,460.36 1653.55,242.09 1650.42,231.06 "></polygon> <path class="fil0" d="M1240.12 1097.55c0,-7.7 6.31,-13.95 14.09,-13.95 7.78,0 14.09,6.25 14.09,13.95l0 719.8c0,7.7 -6.31,13.95 -14.09,13.95 -7.78,0 -14.09,-6.25 -14.09,-13.95l0 -719.8z"></path> <path class="fil0" d="M1254.21 754.94c49.24,0 93.85,19.98 126.11,52.24 32.27,32.27 52.24,76.87 52.24,126.11 0,49.18 -19.96,93.76 -52.24,126.06 -32.35,32.33 -76.93,52.29 -126.11,52.29 -49.24,0 -93.84,-19.97 -126.11,-52.24 -32.26,-32.26 -52.24,-76.87 -52.24,-126.11 0,-49.21 19.98,-93.79 52.24,-126.06 32.32,-32.31 76.9,-52.29 126.11,-52.29zm106.19 72.16c-27.16,-27.16 -64.72,-43.98 -106.19,-43.98 -41.49,0 -79.05,16.81 -106.21,43.96 -27.15,27.16 -43.96,64.72 -43.96,106.21 0,41.47 16.82,79.03 43.98,106.19 27.17,27.17 64.72,43.98 106.19,43.98 41.5,0 79.06,-16.79 106.19,-43.93 27.19,-27.18 43.98,-64.74 43.98,-106.24 0,-41.47 -16.81,-79.02 -43.98,-106.19z"></path> </g> </svg> 