<?xml version="1.0" encoding="UTF-8"?>
<!DOCTYPE svg PUBLIC "-//W3C//DTD SVG 1.1//EN" "http://www.w3.org/Graphics/SVG/1.1/DTD/svg11.dtd">
<!-- Creator: CorelDRAW -->
<svg xmlns="http://www.w3.org/2000/svg" xml:space="preserve" width="29.2448mm" height="12.5401mm" version="1.1" style="shape-rendering:geometricPrecision; text-rendering:geometricPrecision; image-rendering:optimizeQuality; fill-rule:evenodd; clip-rule:evenodd"
viewBox="0 0 474.77 203.58"
 xmlns:xlink="http://www.w3.org/1999/xlink"
 xmlns:xodm="http://www.corel.com/coreldraw/odm/2003">
 <defs>
  <style type="text/css">
   <![CDATA[
    .fil0 {fill:#059E8D;fill-rule:nonzero}
   ]]>
  </style>
 </defs>
 <g id="Слой_x0020_1">
  <metadata id="CorelCorpID_0Corel-Layer"/>
  <g id="_2447304843344">
   <path class="fil0" d="M372.71 173.51l33.72 0 0 15.08 -49.49 0 0 -80c16.49,0.01 32.98,0.02 49.47,0.03 0,5 0,9.99 0,14.98 -11.23,0.02 -22.46,0.05 -33.7,0.08l0 17.03c9.94,-0.05 19.88,-0.1 29.81,-0.15 0,5.03 0,10.06 0,15.09 -9.94,-0.03 -19.88,-0.06 -29.81,-0.09 0,5.98 0,11.96 0,17.94z"/>
   <path class="fil0" d="M250.98 72.49c4.86,4.88 10.98,7.32 18.36,7.32 7.37,0 13.49,-2.44 18.36,-7.32 4.94,-4.95 7.41,-11.24 7.41,-18.86 0,-7.62 -2.47,-13.9 -7.41,-18.86 -4.94,-4.95 -11.07,-7.43 -18.36,-7.43 -7.3,0 -13.43,2.48 -18.36,7.43 -4.94,4.95 -7.42,11.24 -7.42,18.86 0,7.62 2.47,13.9 7.42,18.86zm47.79 10.74c-8.16,8 -17.98,12 -29.48,12 -11.58,0 -21.41,-4 -29.49,-12 -8,-8.07 -12,-17.94 -12,-29.6 0,-11.66 4,-21.49 12,-29.49 8.07,-8.07 17.91,-12.11 29.49,-12.11 11.58,0 21.41,4.04 29.48,12.11 8.08,8 12.12,17.83 12.12,29.49 0,11.66 -4.04,21.52 -12.12,29.6z"/>
   <polygon class="fil0" points="368.25,13.63 384.02,13.63 384.02,93.63 372.02,93.63 337.74,44.72 337.74,93.63 321.96,93.63 321.96,13.63 333.97,13.63 368.25,62.43 "/>
   <path class="fil0" d="M414.65 78.54l33.71 0 0 15.09 -49.49 0 0 -80c16.49,0.01 32.98,0.02 49.47,0.03 0,5 0,9.99 0,14.99 -11.23,0.03 -22.46,0.05 -33.69,0.07l0 17.03c9.94,-0.05 19.88,-0.1 29.81,-0.15 0,5.03 0,10.07 0,15.1 -9.94,-0.03 -19.88,-0.06 -29.81,-0.09 0,5.98 0,11.96 0,17.95z"/>
   <path class="fil0" d="M258.77 190.21c-8,0 -14.69,-1.75 -20.06,-5.26 -5.37,-3.5 -9.16,-8.34 -11.37,-14.51 5.17,-1.29 10.32,-2.57 15.49,-3.85 0.8,1.26 2.15,3.07 4.29,4.68 4.55,3.41 9.44,3.51 12.11,3.51 4.42,0 7.66,-0.8 9.72,-2.4 2.06,-1.6 3.08,-3.62 3.08,-6.06 0,-2.82 -1.26,-4.99 -3.77,-6.52 -2.52,-1.6 -7.01,-3.31 -13.49,-5.14 -3.58,-1.07 -6.61,-2.13 -9.09,-3.2 -2.47,-1.07 -4.97,-2.48 -7.49,-4.23 -5.03,-3.73 -7.54,-9.22 -7.54,-16.46 0,-7.32 2.55,-13.06 7.66,-17.26 5.1,-4.34 11.31,-6.51 18.63,-6.51 6.47,0 12.17,1.56 17.08,4.69 4.92,3.12 8.75,7.55 11.49,13.26 -4.89,1.69 -9.78,3.37 -14.67,5.05 -0.71,-1.21 -2.48,-3.87 -5.86,-5.75 -3.51,-1.95 -6.74,-1.94 -8.05,-1.94 -3.27,0 -5.85,0.74 -7.72,2.23 -1.87,1.48 -2.8,3.41 -2.8,5.77 0,2.51 1.03,4.57 3.09,6.17 2.29,1.6 6.32,3.28 12.11,5.03l5.49 1.83c0.61,0.15 1.35,0.4 2.23,0.75 0.87,0.34 1.84,0.74 2.91,1.2 2.28,0.84 3.96,1.64 5.03,2.4 1.22,0.76 2.59,1.79 4.12,3.08 1.52,1.3 2.66,2.63 3.43,4 0.84,1.37 1.54,3.03 2.11,4.97 0.57,1.94 0.86,4.06 0.86,6.34 0,7.39 -2.71,13.26 -8.12,17.6 -5.41,4.34 -12.39,6.52 -20.91,6.52z"/>
   <polygon class="fil0" points="348.14,108.6 348.14,123.69 326.54,123.69 326.54,188.6 310.77,188.6 310.77,123.69 289.28,123.69 289.28,108.6 "/>
   <path class="fil0" d="M447.34 147.57c1.68,0 3.24,-0.3 4.68,-0.91 1.45,-0.61 2.69,-1.47 3.72,-2.57 1.03,-1.1 1.83,-2.38 2.4,-3.83 0.57,-1.44 0.86,-3.04 0.86,-4.8 0,-3.5 -1.08,-6.4 -3.26,-8.69 -2.17,-2.28 -4.97,-3.43 -8.4,-3.43l-14.06 0 0 24.23 14.06 0zm0.06 -38.97c7.63,0 14.12,2.59 19.47,7.77 5.26,5.18 7.9,11.54 7.9,19.08 0,7.62 -2.64,13.98 -7.9,19.09 -5.35,5.18 -11.84,7.77 -19.49,7.77l-14.09 0 0 26.28 -15.77 0 0 -80 29.89 0z"/>
   <path class="fil0" d="M194.2 107.34l-86.87 86.87c-1.47,1.47 -3.46,2.3 -5.55,2.3 -2.07,0 -4.08,-0.83 -5.55,-2.3l-86.88 -86.87c-1.47,-1.47 -2.3,-3.47 -2.3,-5.55 0,-2.09 0.83,-4.09 2.3,-5.56l86.88 -86.88c1.46,-1.47 3.46,-2.3 5.54,-2.3 2.09,0 4.09,0.83 5.55,2.3l86.87 86.88c1.49,1.47 2.31,3.46 2.31,5.55 0,2.07 -0.83,4.08 -2.31,5.56zm5.76 -14.25l-89.48 -89.48c-2.31,-2.3 -5.44,-3.61 -8.71,-3.61 -3.26,0 -6.39,1.3 -8.7,3.61l-89.48 89.48c-2.31,2.31 -3.61,5.44 -3.61,8.7 0,3.26 1.3,6.38 3.61,8.7l89.48 89.47c2.31,2.31 5.45,3.62 8.71,3.62 3.25,0 6.39,-1.3 8.69,-3.62l89.48 -89.47c2.31,-2.31 3.61,-5.45 3.61,-8.71 0,-3.25 -1.29,-6.39 -3.61,-8.69z"/>
   <path class="fil0" d="M128.27 101.62c-0.48,-0.88 -1.41,-1.41 -2.41,-1.41 -1.01,0.01 -1.92,0.56 -2.38,1.45l-36.17 68.34c-0.56,1.06 -0.37,2.37 0.49,3.21l12.06 12.07c0.51,0.52 1.21,0.8 1.93,0.8 0.72,0 1.42,-0.29 1.93,-0.8l44.2 -44.2c0.86,-0.86 1.05,-2.19 0.46,-3.25l-20.11 -36.21z"/>
   <path class="fil0" d="M90.06 140.19c-24.58,-14.07 -38.58,-41.2 -35.89,-69.39 0.11,-1.15 -0.51,-2.26 -1.56,-2.75 -1.04,-0.48 -2.27,-0.26 -3.08,0.55l-31.24 31.25c-0.51,0.51 -0.81,1.21 -0.81,1.93 0,0.73 0.29,1.42 0.81,1.94l58.89 58.89c0.61,0.62 1.48,0.91 2.33,0.77 0.86,-0.13 1.6,-0.66 2.01,-1.42l9.59 -18.12c0.68,-1.3 0.22,-2.92 -1.05,-3.65z"/>
   <path class="fil0" d="M105.2 19.77c-0.78,-0.78 -1.94,-1.01 -2.96,-0.61 -22.3,9.07 -37.81,30.17 -39.46,54.19 -1.67,24.02 10.5,46.89 31.34,58.94 0.64,0.38 1.41,0.47 2.13,0.26 0.71,-0.2 1.31,-0.69 1.66,-1.34l18.72 -35.36c1.81,-3.44 5.33,-5.57 9.23,-5.62 3.88,-0.05 7.48,2.04 9.38,5.43l18.98 34.21c0.42,0.75 1.17,1.26 2.01,1.38 0.85,0.12 1.7,-0.17 2.31,-0.78l26.77 -26.75c0.5,-0.51 0.8,-1.22 0.8,-1.94 0,-0.72 -0.29,-1.42 -0.8,-1.93l-80.09 -80.09z"/>
  </g>
 </g>
</svg>
