<?xml version="1.0" encoding="UTF-8"?>
<!DOCTYPE svg PUBLIC "-//W3C//DTD SVG 1.1//EN" "http://www.w3.org/Graphics/SVG/1.1/DTD/svg11.dtd">
<!-- Creator: CorelDRAW -->
<svg xmlns="http://www.w3.org/2000/svg" xml:space="preserve" width="39.5801mm" height="39.5809mm" version="1.1" style="shape-rendering:geometricPrecision; text-rendering:geometricPrecision; image-rendering:optimizeQuality; fill-rule:evenodd; clip-rule:evenodd"
viewBox="0 0 4197.53 4197.61"
 xmlns:xlink="http://www.w3.org/1999/xlink"
 xmlns:xodm="http://www.corel.com/coreldraw/odm/2003">
 <defs>
  <style type="text/css">
   <![CDATA[
    .fil0 {fill:#089E8D;fill-rule:nonzero}
   ]]>
  </style>
 </defs>
 <g id="Слой_x0020_1">
  <metadata id="CorelCorpID_0Corel-Layer"/>
  <path class="fil0" d="M4004.28 2213.36l-1791.22 1791.27c-30.21,30.22 -71.33,47.41 -114.33,47.41 -42.76,0 -84.05,-17.18 -114.43,-47.41l-1791.29 -1791.27c-30.28,-30.31 -47.46,-71.57 -47.46,-114.36 0,-43 17.18,-84.29 47.46,-114.55l1791.29 -1791.42c30.21,-30.31 71.43,-47.46 114.26,-47.46 43,0 84.29,17.15 114.5,47.46l1791.22 1791.42c30.62,30.26 47.53,71.32 47.7,114.34 0,42.79 -17.08,84.1 -47.7,114.56zm118.85 -293.85l-1845.06 -1845.06c-47.6,-47.46 -112.28,-74.45 -179.51,-74.45 -67.24,0 -131.74,26.78 -179.27,74.45l-1844.89 1845.06c-47.6,47.6 -74.4,112.2 -74.4,179.49 0,67.26 26.8,131.62 74.4,179.27l1844.89 1844.82c47.53,47.67 112.37,74.52 179.68,74.52 67.07,0 131.67,-26.85 179.1,-74.52l1845.06 -1844.82c47.53,-47.65 74.4,-112.37 74.4,-179.66 0,-67.12 -26.69,-131.69 -74.4,-179.1z"/>
  <path class="fil0" d="M2644.81 2095.34c-9.99,-18.13 -29.09,-29.14 -49.67,-28.97 -20.8,0.19 -39.57,11.63 -49.14,29.9l-745.89 1409.15c-11.54,21.94 -7.52,48.76 10.06,66.1l248.71 248.88c10.59,10.67 24.91,16.6 39.85,16.6 14.92,0 29.17,-5.93 39.76,-16.6l911.43 -911.42c17.75,-17.75 21.67,-45.08 9.48,-67.05l-414.59 -746.59z"/>
  <path class="fil0" d="M1857 2890.64c-506.75,-290.14 -795.56,-849.5 -739.93,-1430.68 2.21,-23.65 -10.59,-46.63 -32.17,-56.66 -21.34,-9.99 -46.76,-5.4 -63.57,11.36l-644.2 644.4c-10.59,10.42 -16.65,24.87 -16.65,39.74 0,15.03 6.06,29.27 16.65,39.89l1214.32 1214.18c12.56,12.73 30.48,18.73 48.14,15.99 17.66,-2.68 33.01,-13.69 41.38,-29.37l197.78 -373.63c14.07,-26.78 4.44,-60.15 -21.75,-75.22z"/>
  <path class="fil0" d="M2169.04 407.62c-16.06,-16.01 -40.03,-20.83 -61.02,-12.54 -459.88,187.01 -779.61,622.15 -813.66,1117.37 -34.37,495.31 216.4,966.73 646.16,1215.32 13.24,7.72 29.1,9.68 43.88,5.4 14.66,-4.23 27.03,-14.22 34.19,-27.72l385.92 -729.09c37.3,-70.95 109.9,-114.92 190.2,-115.9 79.94,-0.97 154.17,42.04 193.34,112.03l391.39 705.35c8.68,15.41 24.21,26 41.55,28.52 17.56,2.49 35.07,-3.41 47.52,-16.01l551.87 -551.65c10.41,-10.62 16.4,-25.08 16.4,-39.89 0,-14.87 -5.98,-29.31 -16.4,-39.74l-1651.36 -1651.44z"/>
 </g>
</svg>
